<?xml version="1.0" encoding="utf-8"?>
<!-- Generator: Adobe Illustrator 24.3.0, SVG Export Plug-In . SVG Version: 6.00 Build 0)  -->
<svg version="1.1" id="Layer_1" xmlns="http://www.w3.org/2000/svg" xmlns:xlink="http://www.w3.org/1999/xlink" x="0px" y="0px"
	 viewBox="0 0 1280 720" style="enable-background:new 0 0 1280 720;" xml:space="preserve">
<style type="text/css">
	.st0{opacity:0.6;}
	.st1{fill:#84D145;}
	.st2{fill:#FFA500;}
	.st3{fill:#FBA200;}
	.st4{fill:none;stroke:#FFA500;stroke-miterlimit:10;}
	.st5{fill:#FFFFFF;}
	.st6{font-family:'FONTSPRINGDEMO-QuincyCFBold';}
	.st7{font-size:35.764px;}
	.st8{fill:none;}
</style>
<image style="overflow:visible;" width="740" height="465" xlink:href="6626B7C8.jpg"  transform="matrix(1.757 0 0 1.757 -10.086 -48.5)">
</image>
<rect class="st0" width="1280" height="720"/>
<path class="st1" d="M383.6,473.9H190.6V246.1h56.7v171.2h88.5C344.8,441.2,361.8,461.2,383.6,473.9z"/>
<g>
	<path class="st2" d="M481.4,298.5c33.9,0,61.5,27.6,61.5,61.5s-27.6,61.5-61.5,61.5s-61.5-27.6-61.5-61.5S447.5,298.5,481.4,298.5
		 M481.4,228.5c-72.6,0-131.5,58.9-131.5,131.5s58.9,131.5,131.5,131.5S612.9,432.6,612.9,360S554,228.5,481.4,228.5L481.4,228.5z"
		/>
</g>
<g>
	<g>
		<path class="st2" d="M957.9,298.5c33.9,0,61.5,27.6,61.5,61.5s-27.6,61.5-61.5,61.5s-61.5-27.6-61.5-61.5S924,298.5,957.9,298.5
			 M957.9,228.5c-72.6,0-131.5,58.9-131.5,131.5s58.9,131.5,131.5,131.5s131.5-58.9,131.5-131.5S1030.5,228.5,957.9,228.5
			L957.9,228.5z"/>
	</g>
</g>
<path class="st1" d="M860.1,474.3H709.4c-23.7,0-46.8-7.6-65.4-22.3c-0.7-0.5-1.3-1.1-2-1.6c-10.5-8.6-17.9-17.8-23.1-25.6
	c10.8-19.1,17.1-41.2,17.1-64.8c0-24-6.4-46.5-17.7-65.8c6.9-8.4,16.8-18.6,30.5-28c0.2-0.1,0.3-0.2,0.5-0.4
	c19.6-13.3,42.7-20.2,66.4-20.2h144.3c-24.7,14.1-44.4,35.9-55.7,62.2h-89c-22.1,0-42.4,13.3-50.3,34c-1.7,4.5-2.8,9.1-3.2,14
	c-0.6,6.4,0,12.7,1.7,18.7c6.4,23.5,28.3,39.5,52.7,39.5h54.6v-30h-40.4V333h65.9c-1.8,8.7-2.8,17.7-2.8,27
	C793.6,409,820.3,451.7,860.1,474.3z"/>
<rect x="640" y="664.4" class="st1" width="640" height="55.6"/>
<rect y="664.4" class="st3" width="640" height="55.6"/>
<g>
	<g>
		<line class="st4" x1="638.7" y1="569.4" x2="638.7" y2="595.8"/>
		<line class="st5" x1="638.7" y1="569.4" x2="638.7" y2="595.8"/>
	</g>
	<g>
		<line class="st4" x1="751.9" y1="569.4" x2="751.9" y2="595.8"/>
		<line class="st5" x1="751.9" y1="569.4" x2="751.9" y2="595.8"/>
	</g>
	<text transform="matrix(1 0 0 1 365.4615 593.4922)" class="st5 st6 st7">Graphic Designs   Logos   Branding</text>
</g>
<rect class="st8" width="1280" height="720"/>
</svg>
