<?xml version="1.0" encoding="utf-8"?>
<!-- Generator: Adobe Illustrator 24.3.0, SVG Export Plug-In . SVG Version: 6.00 Build 0)  -->
<svg version="1.1" id="Layer_1" xmlns="http://www.w3.org/2000/svg" xmlns:xlink="http://www.w3.org/1999/xlink" x="0px" y="0px"
	 viewBox="0 0 1000 1000" style="enable-background:new 0 0 1000 1000;" xml:space="preserve">
<style type="text/css">
	.st0{fill:#010101;}
</style>
<g>
	<path class="st0" d="M882.32,242.46c-1.53-17.09-13.28-28.08-30.63-28.62c-7.25-0.22-14.61-0.9-21.72,0.08
		c-9.9,1.36-14.79-3.27-19.3-11.26c-13.46-23.83-27.72-47.21-41.4-70.92c-4.72-8.18-10.47-13.69-20.67-13.64
		c-34.68,0.19-69.37,0.18-104.06,0c-8.23-0.04-14.28,3.14-17.25,10.57c-6.65,16.65-12.78,33.51-19.39,50.99h121.46
		c-1.62-5.7-3.26-10.54-4.32-15.51c-0.97-4.55-6.84-11.27-0.8-13.27c6.21-2.05,15.72-4.98,20.91,3.8
		c11.2,18.96,22.03,38.13,33.65,58.33H219.89c12.92-20.69,24.71-39.95,36.93-58.93c4.99-7.75,13.92-5.33,19.82-3.38
		c6.79,2.23,0.47,8.29-0.28,12.73c-0.92,5.42-5.62,9.91-3.96,16.4h119.99c-6.4-17.02-12.23-31.85-17.54-46.87
		c-3.8-10.75-10.68-15.13-22.25-14.96c-32.61,0.5-65.24,0.45-97.84-0.02c-10.05-0.14-16.37,3.63-21.43,12.03
		c-12.26,20.35-26.44,39.68-37.23,60.76c-9.42,18.38-21.35,25.21-42.22,23.57c-26.74-2.11-36.38,8.99-36.38,35.83
		c-0.03,121.15-0.03,242.3,0.02,363.44c0.01,28.03,9.4,37.62,36.97,37.63c229.86,0.05,459.73,0.05,689.59,0.02
		c29.84-0.01,38.35-8.79,38.36-39.16c0.03-119.59,0.02-239.18,0.02-358.77C882.46,249.7,882.65,246.06,882.32,242.46z
		 M833.33,582.51c-0.03,16.09-5.63,20.67-23.72,20.68c-104,0.05-208,0.02-312,0.03c-101.94,0-203.87,0.01-305.8-0.01
		c-23.85,0-26.55-2.79-26.56-26.91c-0.01-96.76-0.05-193.52-0.01-290.28c0.01-20.61,4.1-24.95,24.35-24.65
		c194.03,2.85,388.06,0.53,582.08-0.84c15.99-0.11,32.03-0.59,47.97,2.32c9.97,1.83,13.87,6.98,13.86,16.96
		C833.34,380.71,833.49,481.61,833.33,582.51z"/>
	<path class="st0" d="M247.58,881.83c-30.52,0-61.05-0.27-91.56,0.18c-8.42,0.12-12.77-1.83-11.29-10.94c0.16-1.01,0-2.07,0.02-3.1
		c0.26-13.37-4.29-30.24,2.16-39.09c6.16-8.46,24.1-2.63,36.8-2.52c8.85,0.07,8.48-4.51,8.47-10.61
		c-0.1-40.35,0.37-80.7-0.25-121.04c-0.17-10.85,2.77-14.1,13.73-13.81c28.95,0.76,57.94,0.58,86.9,0.07
		c8.8-0.15,11.42,2.47,11.33,11.27c-0.44,40.34,0.06,80.7-0.45,121.04c-0.12,9.74,1.98,13.51,12.61,13.19
		c11.55-0.34,27.13-5.76,33.74,2.75c5.55,7.15,1.38,21.88,1.4,33.26c0.04,19.36,0,19.36-19.8,19.36
		C303.45,881.83,275.51,881.83,247.58,881.83z"/>
	<path class="st0" d="M750.17,881.82c-30.53,0-61.07-0.31-91.59,0.2c-8.76,0.14-12.52-2.33-11.17-11.2c0.23-1.52-0.01-3.1,0.03-4.65
		c0.28-12.85-4.04-29.09,2.2-37.56c5.99-8.13,23.21-2.33,35.43-2.21c8.66,0.08,10.13-3.11,10.07-10.76
		c-0.32-40.36,0.26-80.73-0.45-121.09c-0.19-10.98,2.85-13.94,13.67-13.67c28.96,0.74,57.96,0.54,86.93,0.07
		c8.77-0.14,11.46,2.52,11.36,11.38c-0.43,40.36,0.15,80.73-0.39,121.09c-0.13,9.88,2.07,13.6,12.59,12.95
		c11.16-0.7,25.83-4.98,32.79,1.93c6.95,6.9,1.59,21.52,2.24,32.74c0.03,0.52,0.01,1.03,0.01,1.55
		c0.01,19.26,0.01,19.24-19.87,19.23C806.06,881.81,778.12,881.82,750.17,881.82z"/>
	<g>
		<path class="st0" d="M282.17,432.88h-11.53v19.66h11.65c6.55,0,14.57-1.82,14.57-10.2C296.86,435.19,291.03,432.88,282.17,432.88z
			"/>
		<path class="st0" d="M294.07,408.24c0-5.83-4.49-8.38-13.23-8.38h-10.2v17.72h11.17C289.57,417.59,294.07,414.31,294.07,408.24z"
			/>
		<polygon class="st0" points="355.61,435.79 377.21,435.79 366.53,406.3 		"/>
		<path class="st0" d="M716.61,400.11h-11.05v20.03h9.83c6.68,0,15.05-1.7,15.05-10.44C730.44,401.68,722.8,400.11,716.61,400.11z"
			/>
		<path class="st0" d="M801.57,307.51c0.07-11.24-2.2-14.78-14.3-14.75c-191.97,0.42-383.94,0.41-575.91-0.02
			c-12.06-0.03-14.38,3.55-14.31,14.81c0.48,83.3,0.52,166.62-0.03,249.92c-0.08,11.64,2.75,14.4,14.36,14.33
			c95.72-0.52,191.44-0.29,287.17-0.29c96.24,0,192.48-0.23,288.72,0.3c11.66,0.06,14.43-2.81,14.36-14.37
			C801.08,474.13,801.11,390.82,801.57,307.51z M284.84,469.29h-34.23v-85.94h34.23c13.35,0,29.25,4.73,29.25,22.09
			c0,9.47-5.71,15.78-14.08,18.57v0.24c9.83,1.7,17.6,8.74,17.6,20.03C317.61,462.98,301.23,469.29,284.84,469.29z M389.6,469.29
			l-6.68-16.87h-33.26l-6.31,16.87h-22.58l36.05-85.94h20.15l35.69,85.94H389.6z M497.99,469.29h-23.55l-34.59-56.2h-0.36l0.49,56.2
			h-20.15v-85.94h23.67l34.47,56.08h0.36l-0.49-56.08h20.15V469.29z M593.89,469.29h-23.55l-34.59-56.2h-0.36l0.49,56.2h-20.15
			v-85.94h23.67l34.47,56.08h0.36l-0.49-56.08h20.15V469.29z M671.57,469.29h-59.96v-85.94h57.78v17.6h-37.75v16.14h35.69v16.63
			h-35.69v17.84h39.94V469.29z M731.29,469.29l-18.57-34.11h-7.04v34.11h-20.39v-85.94h32.77c16.51,0,32.9,6.31,32.9,25.98
			c0,11.53-6.8,19.79-17.84,23.18l22.46,36.78H731.29z"/>
	</g>
</g>
</svg>
