<?xml version="1.0" encoding="utf-8"?>
<!-- Generator: Adobe Illustrator 24.3.0, SVG Export Plug-In . SVG Version: 6.00 Build 0)  -->
<svg version="1.1" id="Layer_1" xmlns="http://www.w3.org/2000/svg" xmlns:xlink="http://www.w3.org/1999/xlink" x="0px" y="0px"
	 viewBox="0 0 1000 1000" style="enable-background:new 0 0 1000 1000;" xml:space="preserve">
<style type="text/css">
	.st0{fill:#FEFEFE;}
	.st1{fill:#010101;}
</style>
<g>
	<path d="M296.59,590.9c7.16,5.38,15.08,9.53,24.52,13.62c-16.13,4.88-30.12,11.33-42.81,20.36c-30.11,21.43-49.4,50.09-57.37,86.26
		c-0.25,1.13-0.5,2.27-0.82,3.39c-1.82,6.47-7.58,10.27-14,9.26c-6.21-0.98-10.67-6.67-9.94-13.44c0.88-8.12,3.35-15.92,6.08-23.58
		c15.74-44.13,44.98-76.1,87.14-96.42C292.12,589.04,294.1,589.02,296.59,590.9z"/>
	<path d="M522.33,706.98c0.72,3.26,1.26,6.53-0.11,9.8c-2.08,4.97-6.84,8-12.27,7.69s-9.81-3.98-11.1-9.82
		c-2.29-10.41-4.97-20.7-9.48-30.39c-21.58-46.32-57.54-74.02-107.85-83.26c-11.21-2.06-22.56-1.33-33.79-2.66
		c-50.79-5.98-88.59-54.33-81.85-104.83c6-45.04,40.92-78.71,85.92-82.87c52.91-4.89,100.7,37.51,102.16,90.64
		c0.74,27.01-8.53,50.09-27.13,69.59c-2.33,2.44-4.36,3.36-7.75,1.97c-7.86-3.21-16.2-4.94-25.32-7.03
		c13.44-8.22,23.47-18.48,29.33-32.2c11.28-26.37,8.35-51.4-10.01-73.38c-18.65-22.34-43.3-30.08-71.37-22.68
		c-27.48,7.25-44.67,25.85-50.46,53.67c-8.82,42.41,23.2,82.24,66.76,83.25c32.52,0.76,62.85,8.5,90.3,26.15
		C487.57,625.86,512.24,661.39,522.33,706.98z"/>
	<path d="M587.83,473.29c-1.18-7.26,2.99-14.14,9.92-16.46c2.26-0.76,4.59-0.63,6.91-0.63c20.95-0.02,41.9-0.01,62.85-0.01
		c0,0,0,0.01,0,0.02c21.62,0,43.23-0.12,64.85,0.04c11.61,0.09,18.6,11.45,13.24,21.27c-2.97,5.46-7.85,7.76-14.04,7.75
		c-28.93-0.05-57.86-0.02-86.79-0.02c-14.14,0-28.27,0.07-42.4-0.03C594.98,485.16,588.91,480.02,587.83,473.29z"/>
	<path d="M587.7,566.29c0.4-6.94,5.99-12.62,13.18-13.3c1.81-0.17,3.65-0.13,5.48-0.13c20.45-0.01,40.9,0,61.35,0
		c21.12,0,42.23-0.03,63.35,0.02c8.38,0.02,13.66,3.64,15.66,10.44c2.35,8-2.33,16.09-10.44,18.11c-2.29,0.57-4.61,0.56-6.93,0.56
		c-41.24,0-82.47,0-123.7-0.02c-2.15,0-4.35-0.05-6.44-0.48C591.82,579.99,587.27,573.87,587.7,566.29z"/>
	<path d="M810.12,664.16c-0.06,7.48-5.71,13.67-13.29,14.26c-3.64,0.29-7.32,0.14-10.98,0.14c-28.95,0.01-57.91,0-86.86,0h-92.36
		c-1.99,0-4,0.06-5.98-0.15c-7.41-0.8-12.84-6.74-12.95-14.04c-0.11-7.57,5.24-13.83,12.74-14.79c1.64-0.21,3.32-0.13,4.99-0.13
		c62.06,0,124.13-0.01,186.2,0c1.83,0,3.67-0.03,5.48,0.17C804.65,650.47,810.19,656.7,810.12,664.16z"/>
	<path d="M915.09,356.3c-7.25-23.87-21.12-42.65-42.47-55.91c-12.7-7.88-26.93-11.25-41.09-14.96
		c-47.49-12.43-94.96-24.91-142.44-37.39c-68.55-18.02-137.17-35.83-205.72-53.88c-36.04-9.49-72.06-19.12-108.17-28.32
		c-18.97-4.84-37.47-12.11-57.26-13.15c-15.94-0.83-31.86-1.09-47.11,5.48c-14.67,6.31-27.27,15.25-37.59,27.33
		c-6.15,7.2-5.57,15.59,1.03,21.88c6.43,6.12,14.72,6.2,21.56,0.17c2.12-1.87,4.02-3.98,6.06-5.94
		c16.66-15.92,36.47-21.93,58.81-16.67c33.04,7.78,65.78,16.79,98.62,25.37c33.81,8.83,67.62,17.69,101.47,26.37
		c28.79,7.38,57.41,15.48,86.44,21.91c-4.55-0.94-9.12-1.73-13.73-2.25c-28.93-3.26-57.79-7.06-86.68-10.63
		c-30.04-3.7-60.08-7.5-90.13-11.19c-42.93-5.26-85.85-10.57-128.79-15.77c-15.19-1.83-30.32-4.5-45.59-5.3
		c-29.35-1.53-55.04,8.11-76.77,27.74c-7.64,6.9-14.59,14.64-19.03,24.16c-3,6.42-0.98,12.17,3.36,17.04
		c4.45,5,10.34,5.71,16.52,3.76c4.16-1.32,6.98-4.56,9.37-7.95c3.67-5.23,8.04-9.77,12.66-14.08c14.95-13.92,32.93-20.03,53.07-18.6
		c17.57,1.25,35.02,4.09,52.52,6.23c33.19,4.07,66.36,8.3,99.55,12.37c44.92,5.49,89.83,11.04,134.73,16.6
		c16.23,2.01,32.44,4.28,48.73,5.69c-2.17-0.13-4.34-0.21-6.52-0.21c-129.82-0.03-259.63,0.03-389.44-0.07
		c-17.17-0.01-33.44,3.24-48.41,11.74c-31.51,17.91-49.62,44.4-49.69,81.26c-0.22,125.61-0.08,251.22-0.09,376.83
		c0,4.49,0.2,8.99,0.88,13.4c3.48,22.52,14.5,40.96,31.57,55.66c16.94,14.58,36.53,22.68,59.26,22.68
		c217.19-0.06,434.37-0.03,651.55-0.04c2.5,0,5.02,0.22,7.49-0.11c36.52-4.88,62-24.49,77.4-57.76c4.14-8.94,5.29-18.39,6.15-27.97
		V372.5C916.08,367.15,916.7,361.58,915.09,356.3z M888.11,750.32c0,23.41-9.26,42.23-28.41,55.86
		c-11.46,8.16-24.39,11.69-38.48,11.69c-107-0.07-214.01-0.04-321.01-0.04c-107.18,0-214.35,0.02-321.52-0.02
		c-28.67-0.01-53.46-17.54-62.61-44.08c-2.35-6.81-3.63-13.84-3.63-21.04c-0.03-123.6-0.12-247.21,0.04-370.82
		c0.04-35.73,29.17-64.85,64.83-65.01c51.58-0.23,103.17-0.09,154.76-0.1c161.92,0,323.84,0.05,485.77-0.07
		c15.8-0.02,30.38,3.25,43.17,12.75c16.92,12.57,25.78,29.57,27.03,50.57c0.09,1.49,0.07,2.99,0.07,4.49
		C888.12,506.44,888.13,628.38,888.11,750.32z"/>
	<path class="st0" d="M296.59,590.9c7.16,5.38,15.08,9.53,24.52,13.62c-16.13,4.88-30.12,11.33-42.81,20.36
		c-30.11,21.43-49.4,50.09-57.37,86.26c-0.25,1.13-0.5,2.27-0.82,3.39c-1.82,6.47-7.58,10.27-14,9.26
		c-6.21-0.98-10.67-6.67-9.94-13.44c0.88-8.12,3.35-15.92,6.08-23.58c15.74-44.13,44.98-76.1,87.14-96.42
		C292.12,589.04,294.1,589.02,296.59,590.9z"/>
	<path class="st0" d="M522.33,706.98c0.72,3.26,1.26,6.53-0.11,9.8c-2.08,4.97-6.84,8-12.27,7.69s-9.81-3.98-11.1-9.82
		c-2.29-10.41-4.97-20.7-9.48-30.39c-21.58-46.32-57.54-74.02-107.85-83.26c-11.21-2.06-22.56-1.33-33.79-2.66
		c-50.79-5.98-88.59-54.33-81.85-104.83c6-45.04,40.92-78.71,85.92-82.87c52.91-4.89,100.7,37.51,102.16,90.64
		c0.74,27.01-8.53,50.09-27.13,69.59c-2.33,2.44-4.36,3.36-7.75,1.97c-7.86-3.21-16.2-4.94-25.32-7.03
		c13.44-8.22,23.47-18.48,29.33-32.2c11.28-26.37,8.35-51.4-10.01-73.38c-18.65-22.34-43.3-30.08-71.37-22.68
		c-27.48,7.25-44.67,25.85-50.46,53.67c-8.82,42.41,23.2,82.24,66.76,83.25c32.52,0.76,62.85,8.5,90.3,26.15
		C487.57,625.86,512.24,661.39,522.33,706.98z"/>
	<path class="st0" d="M587.83,473.29c-1.18-7.26,2.99-14.14,9.92-16.46c2.26-0.76,4.59-0.63,6.91-0.63
		c20.95-0.02,41.9-0.01,62.85-0.01c0,0,0,0.01,0,0.02c21.62,0,43.23-0.12,64.85,0.04c11.61,0.09,18.6,11.45,13.24,21.27
		c-2.97,5.46-7.85,7.76-14.04,7.75c-28.93-0.05-57.86-0.02-86.79-0.02c-14.14,0-28.27,0.07-42.4-0.03
		C594.98,485.16,588.91,480.02,587.83,473.29z"/>
	<path class="st0" d="M587.7,566.29c0.4-6.94,5.99-12.62,13.18-13.3c1.81-0.17,3.65-0.13,5.48-0.13c20.45-0.01,40.9,0,61.35,0
		c21.12,0,42.23-0.03,63.35,0.02c8.38,0.02,13.66,3.64,15.66,10.44c2.35,8-2.33,16.09-10.44,18.11c-2.29,0.57-4.61,0.56-6.93,0.56
		c-41.24,0-82.47,0-123.7-0.02c-2.15,0-4.35-0.05-6.44-0.48C591.82,579.99,587.27,573.87,587.7,566.29z"/>
	<path class="st0" d="M810.12,664.16c-0.06,7.48-5.71,13.67-13.29,14.26c-3.64,0.29-7.32,0.14-10.98,0.14
		c-28.95,0.01-57.91,0-86.86,0h-92.36c-1.99,0-4,0.06-5.98-0.15c-7.41-0.8-12.84-6.74-12.95-14.04
		c-0.11-7.57,5.24-13.83,12.74-14.79c1.64-0.21,3.32-0.13,4.99-0.13c62.06,0,124.13-0.01,186.2,0c1.83,0,3.67-0.03,5.48,0.17
		C804.65,650.47,810.19,656.7,810.12,664.16z"/>
	<path d="M522.22,716.78c-2.08,4.97-6.84,8-12.27,7.69s-9.81-3.98-11.1-9.82c-2.29-10.41-4.97-20.7-9.48-30.39
		c-21.58-46.32-57.54-74.02-107.85-83.26c-11.21-2.06-22.56-1.33-33.79-2.66c-50.79-5.98-88.59-54.33-81.85-104.83
		c6-45.04,40.92-78.71,85.92-82.87c52.91-4.89,100.7,37.51,102.16,90.64c0.74,27.01-8.53,50.09-27.13,69.59
		c-2.33,2.44-4.36,3.36-7.75,1.97c-7.86-3.21-16.2-4.94-25.32-7.03c13.44-8.22,23.47-18.48,29.33-32.2
		c11.28-26.37,8.35-51.4-10.01-73.38c-18.65-22.34-43.3-30.08-71.37-22.68c-27.48,7.25-44.67,25.85-50.46,53.67
		c-8.82,42.41,23.2,82.24,66.76,83.25c32.52,0.76,62.85,8.5,90.3,26.15c39.26,25.24,63.93,60.77,74.02,106.36
		C523.05,710.24,523.59,713.51,522.22,716.78z"/>
	<path d="M810.12,664.16c-0.06,7.48-5.71,13.67-13.29,14.26c-3.64,0.29-7.32,0.14-10.98,0.14c-28.95,0.01-57.91,0-86.86,0h-92.36
		c-1.99,0-4,0.06-5.98-0.15c-7.41-0.8-12.84-6.74-12.95-14.04c-0.11-7.57,5.24-13.83,12.74-14.79c1.64-0.21,3.32-0.13,4.99-0.13
		c62.06,0,124.13-0.01,186.2,0c1.83,0,3.67-0.03,5.48,0.17C804.65,650.47,810.19,656.7,810.12,664.16z"/>
	<path d="M745.6,477.52c-2.97,5.46-7.85,7.76-14.04,7.75c-28.93-0.05-57.86-0.02-86.79-0.02c-14.14,0-28.27,0.07-42.4-0.03
		c-7.39-0.06-13.46-5.2-14.54-11.93c-1.18-7.26,2.99-14.14,9.92-16.46c2.26-0.76,4.59-0.63,6.91-0.63
		c20.95-0.02,41.9-0.01,62.85-0.01c0,0,0,0.01,0,0.02c21.62,0,43.23-0.12,64.85,0.04C743.97,456.34,750.96,467.7,745.6,477.52z"/>
	<path class="st1" d="M736.28,581.43c-2.29,0.57-4.61,0.56-6.93,0.56c-41.24,0-82.47,0-123.7-0.02c-2.15,0-4.35-0.05-6.44-0.48
		c-7.39-1.5-11.94-7.62-11.51-15.2c0.4-6.94,5.99-12.62,13.18-13.3c1.81-0.17,3.65-0.13,5.48-0.13c20.45-0.01,40.9,0,61.35,0
		c21.12,0,42.23-0.03,63.35,0.02c8.38,0.02,13.66,3.64,15.66,10.44C749.07,571.32,744.39,579.41,736.28,581.43z"/>
	<path d="M321.11,604.52c-16.13,4.88-30.12,11.33-42.81,20.36c-30.11,21.43-49.4,50.09-57.37,86.26c-0.25,1.13-0.5,2.27-0.82,3.39
		c-1.82,6.47-7.58,10.27-14,9.26c-6.21-0.98-10.67-6.67-9.94-13.44c0.88-8.12,3.35-15.92,6.08-23.58
		c15.74-44.13,44.98-76.1,87.14-96.42c2.73-1.31,4.71-1.33,7.2,0.55C303.75,596.28,311.67,600.43,321.11,604.52z"/>
</g>
</svg>
