<?xml version="1.0" encoding="utf-8"?>
<!-- Generator: Adobe Illustrator 24.3.0, SVG Export Plug-In . SVG Version: 6.00 Build 0)  -->
<svg version="1.1" id="Layer_1" xmlns="http://www.w3.org/2000/svg" xmlns:xlink="http://www.w3.org/1999/xlink" x="0px" y="0px"
	 viewBox="0 0 1000 1000" style="enable-background:new 0 0 1000 1000;" xml:space="preserve">
<g>
	<path d="M628.69,372.93c-24.44,0.14-43.87,19.68-43.93,44.15c-0.06,24.29,19.65,43.98,44.04,43.99
		c24.49,0.01,44.19-19.49,44.24-43.8C673.09,392.57,653.31,372.78,628.69,372.93z M628.78,444.95
		c-15.5-0.06-27.95-12.55-27.93-28.03c0.02-15.43,12.61-27.84,28.15-27.79c15.5,0.05,28.01,12.59,27.98,28
		C656.94,432.52,644.28,445,628.78,444.95z"/>
	<path d="M385.3,136.8c6.95,0.21,13.9,0.06,20.85,0.06c12.2,0,12.04,0.01,11.9-12.22c-0.04-3.6-1.22-4.42-4.56-4.34
		c-8.17,0.21-16.35,0.07-24.51,0.07c-7.77,0-15.56,0.32-23.3-0.11c-4.97-0.27-6.57,1.03-6.51,6.25c0.29,22.07,0.05,44.15,0.18,66.22
		c0.04,5.44-2.47,12.8,1.08,15.82c3.73,3.17,10.96,0.63,16.63,1.01c3.32,0.22,4.19-0.91,4.11-4.1c-0.2-8.59,0.15-17.18-0.17-25.76
		c-0.17-4.56,0.72-6.74,5.93-6.26c5.48,0.5,11.03,0.11,16.54,0.12c12.74,0.01,12.63,0.01,12.09-12.65c-0.12-2.95-0.98-3.8-3.88-3.73
		c-8.78,0.17-17.58-0.05-26.36,0.11c-3.08,0.06-4.5-0.69-4.29-4.05c0.26-4.07,0.22-8.18,0.02-12.26
		C380.92,137.78,382.08,136.7,385.3,136.8z M489.37,192.44c-8.99,0.25-18.01-0.21-26.98,0.2c-5.04,0.23-6.56-1.19-6.47-6.35
		c0.29-20.03,0.01-40.06,0.2-60.11c0.04-4.16-0.38-6.57-5.48-5.9c-3.82,0.52-7.79,0.38-11.63,0.02c-3.88-0.36-4.89,1.06-4.84,4.78
		c0.18,13.29,0.07,26.58,0.07,39.87c-0.01,0-0.01,0-0.02,0c0,13.29,0.14,26.58-0.09,39.87c-0.06,3.77,1.01,4.9,4.83,4.84
		c14.31-0.22,28.62-0.09,42.93-0.1c12.48-0.01,12.27-0.01,12.34-12.47C494.24,193.12,492.97,192.34,489.37,192.44z M569.58,120.39
		c-7.49,0-13.94,0.17-20.38-0.07c-3.13-0.11-4.72,0.96-5.93,3.86c-4.13,9.75-8.49,19.43-12.92,29.05c-0.66,1.45-0.41,3.77-2.67,4.15
		c-5.01-11.03-10-21.96-14.95-32.92c-1.01-2.26-1.72-4.3-5.06-4.15c-6.91,0.29-13.84,0.09-21.75,0.09
		c6.29,10.92,11.21,21.35,17.83,30.56c10.54,14.68,14.14,30.52,12.6,48.28c-0.88,10.18-0.16,10.26,10.1,10.28
		c11.59,0.02,12.48-0.06,11.39-11.24c-1.78-18.16,2.75-33.87,13.66-48.45C558.15,140.93,563.22,130.87,569.58,120.39z
		 M638.67,196.69c-0.11-2.89-0.84-3.97-3.81-3.88c-6.55,0.17-13.1,0.18-19.65,0c-5.23-0.16-12.42,2.36-15.18-1.14
		c-2.62-3.3-0.56-10.18-0.91-15.48c-0.23-3.6,1.19-4.43,4.53-4.35c8.81,0.21,17.61-0.2,26.41,0.16c5.87,0.25,4.72-4,3.98-6.5
		c-1.02-3.45,4.37-9.76-4.03-10.23c-0.81-0.05-1.63,0-2.46,0h-14.73c-14.3,0-14.14,0-13.74-14.21c0.11-3.78,1.63-4.32,4.79-4.25
		c6.95,0.16,13.92,0.05,20.88,0.05c12.15,0,12.05,0,11.78-12.34c-0.06-3.03-0.64-4.25-4.03-4.21c-16.99,0.17-33.97,0.17-50.96,0
		c-3.56-0.04-4.41,1.11-4.37,4.48c0.17,13.51,0.07,27.02,0.07,40.53c0,12.88,0.27,25.79-0.13,38.68c-0.16,4.9,1.52,5.71,5.88,5.64
		c14.53-0.26,29.06-0.12,43.59-0.12C639.27,209.5,639.17,209.51,638.67,196.69z M710.91,267.86H366.5
		c-9.76,0-11.74,1.99-11.74,11.89c0,138.96,0,277.9,0.01,416.86c0,9.53,1.85,11.37,11.57,11.37c115.01,0,230.02-0.01,345.01-0.01
		c10.22,0,12.15-1.95,12.15-12.12V280.23C723.5,269.78,721.54,267.86,710.91,267.86z M377.34,283.78
		c107.65,0.2,215.3,0.15,322.94,0.16c7.15,0,7.15,0.01,7.15,7.15v303.24c-9.05-7.86-17.16-14.86-25.24-21.9
		c-22.83-19.85-45.66-39.73-68.51-59.58c-7.15-6.21-9.42-6.21-16.83-0.07c-7.09,5.87-14.32,11.56-21.17,17.7
		c-3.37,3.02-5.31,3.27-8.73-0.22c-21.25-21.58-42.78-42.88-64.22-64.28c-7.76-7.75-10.5-7.75-17.99,0.43
		c-35.89,39.25-71.75,78.53-107.63,117.81c-1.74,1.92-3.52,3.81-6.26,6.76v-13.17c0-95.77,0.05-191.55-0.12-287.34
		C370.71,285.14,371.87,283.76,377.34,283.78z M701.36,691.95c-54.03-0.15-108.06-0.1-162.08-0.09c-54.03,0-108.06-0.07-162.07,0.11
		c-4.89,0.01-6.58-0.87-6.5-6.23c0.34-21.89,0.21-43.78,0.07-65.68c-0.02-3.5,0.95-6.03,3.37-8.67
		c38.69-42.21,77.29-84.52,115.81-126.91c2.98-3.29,4.61-4.07,8.22-0.38c21.24,21.6,42.78,42.89,64.22,64.28
		c6.34,6.33,9.21,6.42,16.13,0.65c7.86-6.55,15.79-12.99,23.56-19.65c2.16-1.84,3.44-2.32,5.94-0.14
		c31.99,28.03,64.11,55.91,96.28,83.74c2.4,2.08,3.22,4.25,3.21,7.37c-0.14,21.9-0.26,43.8,0.06,65.68
		C707.64,691.14,705.92,691.97,701.36,691.95z M724.45,206.19c-2.57-8.18-4.86-16.43-7.49-24.59c-1.87-5.8-5.12-10.67-11.2-13.84
		c9.53-6.09,13.25-9.94,15.08-15.34c4.61-13.55-3.19-26.81-18.37-30.59c-15.14-3.77-30.47-2-45.77-0.87
		c-4.09,0.31-3.49,3.08-3.49,5.69c0.01,22.1-0.01,44.18,0.02,66.27c0.01,5.28-1.79,12.34,0.88,15.4c3.1,3.55,10.35,0.68,15.76,1.26
		c3.72,0.41,5.01-0.72,4.86-4.64c-0.29-8.59,0.11-17.18-0.18-25.77c-0.14-3.88,1.17-4.78,4.86-4.74
		c10.13,0.11,14.01,2.79,16.83,12.52c1.81,6.26,3.52,12.56,5.42,18.82c0.56,1.9,1.18,3.88,3.98,3.81
		c5.53-0.12,11.05-0.09,16.57,0.01C724.95,209.63,725.17,208.49,724.45,206.19z M690.32,158.89c-4.61,1.44-9.94,2.16-13.78,0.44
		c-4.75-2.12-0.29-8.08-1.9-11.13c0-1.58-0.21-2.31,0.04-2.79c1.71-3.33-3.97-9.56,4.08-10.38c12.39-1.26,19.81,1.94,21.33,9.26
		C701.51,151.16,697.82,156.55,690.32,158.89z M755.45,805.35c-0.32-4.21-2.78-6.69-7.01-7.16c-1.83-0.2-3.68-0.15-5.51-0.15H538.57
		c-68.53-0.01-137.07-0.01-205.59,0c-8.39,0-12.09,2.38-12.21,7.77c-0.12,5.67,3.82,8.33,12.36,8.34h410.56
		c1.84,0,3.73,0.09,5.49-0.33C753.55,812.8,755.81,809.87,755.45,805.35z M749.06,887.06c-1.56-0.38-3.25-0.18-4.9-0.18
		c-137.05,0-274.11,0-411.17,0.01c-8.28,0-12.04,2.42-12.21,7.8c-0.18,5.63,3.73,8.25,12.36,8.25H538.1
		c68.13,0,136.24,0.01,204.36,0c2.05,0,4.13,0.16,6.13-0.14c4.16-0.6,6.63-3.14,6.89-7.34
		C755.77,890.95,753.35,888.11,749.06,887.06z M749.6,753.97c-2.33-0.58-4.86-0.54-7.31-0.54c-136.12-0.02-272.24-0.02-408.36-0.02
		c-1.63,0-3.29-0.11-4.91,0.05c-5.06,0.49-8.25,3.71-8.25,8.19c0.01,4.48,3.23,7.57,8.38,7.88c2.04,0.12,4.09,0.04,6.14,0.04h203.27
		v0.06c66.73,0,133.46,0,200.2-0.01c3.27,0,6.57,0.2,9.81-0.18c4.14-0.49,6.63-3.03,6.93-7.31
		C755.76,757.85,753.69,754.97,749.6,753.97z M747.9,842.57c-2.44-0.18-4.9-0.07-7.36-0.07H538.03c-68.32,0-136.65,0-204.96,0.01
		c-8.43,0-12.07,2.3-12.29,7.69c-0.21,5.56,3.88,8.35,12.32,8.35h410.55c1.44,0,2.87,0.1,4.3-0.05c4.63-0.45,7.57-3.62,7.57-8.03
		C755.52,846.01,752.63,842.94,747.9,842.57z M747.9,842.57c-2.44-0.18-4.9-0.07-7.36-0.07H538.03c-68.32,0-136.65,0-204.96,0.01
		c-8.43,0-12.07,2.3-12.29,7.69c-0.21,5.56,3.88,8.35,12.32,8.35h410.55c1.44,0,2.87,0.1,4.3-0.05c4.63-0.45,7.57-3.62,7.57-8.03
		C755.52,846.01,752.63,842.94,747.9,842.57z M749.6,753.97c-2.33-0.58-4.86-0.54-7.31-0.54c-136.12-0.02-272.24-0.02-408.36-0.02
		c-1.63,0-3.29-0.11-4.91,0.05c-5.06,0.49-8.25,3.71-8.25,8.19c0.01,4.48,3.23,7.57,8.38,7.88c2.04,0.12,4.09,0.04,6.14,0.04h203.27
		v0.06c66.73,0,133.46,0,200.2-0.01c3.27,0,6.57,0.2,9.81-0.18c4.14-0.49,6.63-3.03,6.93-7.31
		C755.76,757.85,753.69,754.97,749.6,753.97z M749.06,887.06c-1.56-0.38-3.25-0.18-4.9-0.18c-137.05,0-274.11,0-411.17,0.01
		c-8.28,0-12.04,2.42-12.21,7.8c-0.18,5.63,3.73,8.25,12.36,8.25H538.1c68.13,0,136.24,0.01,204.36,0c2.05,0,4.13,0.16,6.13-0.14
		c4.16-0.6,6.63-3.14,6.89-7.34C755.77,890.95,753.35,888.11,749.06,887.06z M755.45,805.35c-0.32-4.21-2.78-6.69-7.01-7.16
		c-1.83-0.2-3.68-0.15-5.51-0.15H538.57c-68.53-0.01-137.07-0.01-205.59,0c-8.39,0-12.09,2.38-12.21,7.77
		c-0.12,5.67,3.82,8.33,12.36,8.34h410.56c1.84,0,3.73,0.09,5.49-0.33C753.55,812.8,755.81,809.87,755.45,805.35z M724.45,206.19
		c-2.57-8.18-4.86-16.43-7.49-24.59c-1.87-5.8-5.12-10.67-11.2-13.84c9.53-6.09,13.25-9.94,15.08-15.34
		c4.61-13.55-3.19-26.81-18.37-30.59c-15.14-3.77-30.47-2-45.77-0.87c-4.09,0.31-3.49,3.08-3.49,5.69
		c0.01,22.1-0.01,44.18,0.02,66.27c0.01,5.28-1.79,12.34,0.88,15.4c3.1,3.55,10.35,0.68,15.76,1.26c3.72,0.41,5.01-0.72,4.86-4.64
		c-0.29-8.59,0.11-17.18-0.18-25.77c-0.14-3.88,1.17-4.78,4.86-4.74c10.13,0.11,14.01,2.79,16.83,12.52
		c1.81,6.26,3.52,12.56,5.42,18.82c0.56,1.9,1.18,3.88,3.98,3.81c5.53-0.12,11.05-0.09,16.57,0.01
		C724.95,209.63,725.17,208.49,724.45,206.19z M690.32,158.89c-4.61,1.44-9.94,2.16-13.78,0.44c-4.75-2.12-0.29-8.08-1.9-11.13
		c0-1.58-0.21-2.31,0.04-2.79c1.71-3.33-3.97-9.56,4.08-10.38c12.39-1.26,19.81,1.94,21.33,9.26
		C701.51,151.16,697.82,156.55,690.32,158.89z M710.91,267.86H366.5c-9.76,0-11.74,1.99-11.74,11.89c0,138.96,0,277.9,0.01,416.86
		c0,9.53,1.85,11.37,11.57,11.37c115.01,0,230.02-0.01,345.01-0.01c10.22,0,12.15-1.95,12.15-12.12V280.23
		C723.5,269.78,721.54,267.86,710.91,267.86z M377.34,283.78c107.65,0.2,215.3,0.15,322.94,0.16c7.15,0,7.15,0.01,7.15,7.15v303.24
		c-9.05-7.86-17.16-14.86-25.24-21.9c-22.83-19.85-45.66-39.73-68.51-59.58c-7.15-6.21-9.42-6.21-16.83-0.07
		c-7.09,5.87-14.32,11.56-21.17,17.7c-3.37,3.02-5.31,3.27-8.73-0.22c-21.25-21.58-42.78-42.88-64.22-64.28
		c-7.76-7.75-10.5-7.75-17.99,0.43c-35.89,39.25-71.75,78.53-107.63,117.81c-1.74,1.92-3.52,3.81-6.26,6.76v-13.17
		c0-95.77,0.05-191.55-0.12-287.34C370.71,285.14,371.87,283.76,377.34,283.78z M701.36,691.95c-54.03-0.15-108.06-0.1-162.08-0.09
		c-54.03,0-108.06-0.07-162.07,0.11c-4.89,0.01-6.58-0.87-6.5-6.23c0.34-21.89,0.21-43.78,0.07-65.68c-0.02-3.5,0.95-6.03,3.37-8.67
		c38.69-42.21,77.29-84.52,115.81-126.91c2.98-3.29,4.61-4.07,8.22-0.38c21.24,21.6,42.78,42.89,64.22,64.28
		c6.34,6.33,9.21,6.42,16.13,0.65c7.86-6.55,15.79-12.99,23.56-19.65c2.16-1.84,3.44-2.32,5.94-0.14
		c31.99,28.03,64.11,55.91,96.28,83.74c2.4,2.08,3.22,4.25,3.21,7.37c-0.14,21.9-0.26,43.8,0.06,65.68
		C707.64,691.14,705.92,691.97,701.36,691.95z M638.67,196.69c-0.11-2.89-0.84-3.97-3.81-3.88c-6.55,0.17-13.1,0.18-19.65,0
		c-5.23-0.16-12.42,2.36-15.18-1.14c-2.62-3.3-0.56-10.18-0.91-15.48c-0.23-3.6,1.19-4.43,4.53-4.35c8.81,0.21,17.61-0.2,26.41,0.16
		c5.87,0.25,4.72-4,3.98-6.5c-1.02-3.45,4.37-9.76-4.03-10.23c-0.81-0.05-1.63,0-2.46,0h-14.73c-14.3,0-14.14,0-13.74-14.21
		c0.11-3.78,1.63-4.32,4.79-4.25c6.95,0.16,13.92,0.05,20.88,0.05c12.15,0,12.05,0,11.78-12.34c-0.06-3.03-0.64-4.25-4.03-4.21
		c-16.99,0.17-33.97,0.17-50.96,0c-3.56-0.04-4.41,1.11-4.37,4.48c0.17,13.51,0.07,27.02,0.07,40.53c0,12.88,0.27,25.79-0.13,38.68
		c-0.16,4.9,1.52,5.71,5.88,5.64c14.53-0.26,29.06-0.12,43.59-0.12C639.27,209.5,639.17,209.51,638.67,196.69z M569.58,120.39
		c-7.49,0-13.94,0.17-20.38-0.07c-3.13-0.11-4.72,0.96-5.93,3.86c-4.13,9.75-8.49,19.43-12.92,29.05c-0.66,1.45-0.41,3.77-2.67,4.15
		c-5.01-11.03-10-21.96-14.95-32.92c-1.01-2.26-1.72-4.3-5.06-4.15c-6.91,0.29-13.84,0.09-21.75,0.09
		c6.29,10.92,11.21,21.35,17.83,30.56c10.54,14.68,14.14,30.52,12.6,48.28c-0.88,10.18-0.16,10.26,10.1,10.28
		c11.59,0.02,12.48-0.06,11.39-11.24c-1.78-18.16,2.75-33.87,13.66-48.45C558.15,140.93,563.22,130.87,569.58,120.39z
		 M489.37,192.44c-8.99,0.25-18.01-0.21-26.98,0.2c-5.04,0.23-6.56-1.19-6.47-6.35c0.29-20.03,0.01-40.06,0.2-60.11
		c0.04-4.16-0.38-6.57-5.48-5.9c-3.82,0.52-7.79,0.38-11.63,0.02c-3.88-0.36-4.89,1.06-4.84,4.78c0.18,13.29,0.07,26.58,0.07,39.87
		c-0.01,0-0.01,0-0.02,0c0,13.29,0.14,26.58-0.09,39.87c-0.06,3.77,1.01,4.9,4.83,4.84c14.31-0.22,28.62-0.09,42.93-0.1
		c12.48-0.01,12.27-0.01,12.34-12.47C494.24,193.12,492.97,192.34,489.37,192.44z M385.3,136.8c6.95,0.21,13.9,0.06,20.85,0.06
		c12.2,0,12.04,0.01,11.9-12.22c-0.04-3.6-1.22-4.42-4.56-4.34c-8.17,0.21-16.35,0.07-24.51,0.07c-7.77,0-15.56,0.32-23.3-0.11
		c-4.97-0.27-6.57,1.03-6.51,6.25c0.29,22.07,0.05,44.15,0.18,66.22c0.04,5.44-2.47,12.8,1.08,15.82
		c3.73,3.17,10.96,0.63,16.63,1.01c3.32,0.22,4.19-0.91,4.11-4.1c-0.2-8.59,0.15-17.18-0.17-25.76c-0.17-4.56,0.72-6.74,5.93-6.26
		c5.48,0.5,11.03,0.11,16.54,0.12c12.74,0.01,12.63,0.01,12.09-12.65c-0.12-2.95-0.98-3.8-3.88-3.73
		c-8.78,0.17-17.58-0.05-26.36,0.11c-3.08,0.06-4.5-0.69-4.29-4.05c0.26-4.07,0.22-8.18,0.02-12.26
		C380.92,137.78,382.08,136.7,385.3,136.8z M385.3,136.8c6.95,0.21,13.9,0.06,20.85,0.06c12.2,0,12.04,0.01,11.9-12.22
		c-0.04-3.6-1.22-4.42-4.56-4.34c-8.17,0.21-16.35,0.07-24.51,0.07c-7.77,0-15.56,0.32-23.3-0.11c-4.97-0.27-6.57,1.03-6.51,6.25
		c0.29,22.07,0.05,44.15,0.18,66.22c0.04,5.44-2.47,12.8,1.08,15.82c3.73,3.17,10.96,0.63,16.63,1.01c3.32,0.22,4.19-0.91,4.11-4.1
		c-0.2-8.59,0.15-17.18-0.17-25.76c-0.17-4.56,0.72-6.74,5.93-6.26c5.48,0.5,11.03,0.11,16.54,0.12
		c12.74,0.01,12.63,0.01,12.09-12.65c-0.12-2.95-0.98-3.8-3.88-3.73c-8.78,0.17-17.58-0.05-26.36,0.11
		c-3.08,0.06-4.5-0.69-4.29-4.05c0.26-4.07,0.22-8.18,0.02-12.26C380.92,137.78,382.08,136.7,385.3,136.8z M489.37,192.44
		c-8.99,0.25-18.01-0.21-26.98,0.2c-5.04,0.23-6.56-1.19-6.47-6.35c0.29-20.03,0.01-40.06,0.2-60.11c0.04-4.16-0.38-6.57-5.48-5.9
		c-3.82,0.52-7.79,0.38-11.63,0.02c-3.88-0.36-4.89,1.06-4.84,4.78c0.18,13.29,0.07,26.58,0.07,39.87c-0.01,0-0.01,0-0.02,0
		c0,13.29,0.14,26.58-0.09,39.87c-0.06,3.77,1.01,4.9,4.83,4.84c14.31-0.22,28.62-0.09,42.93-0.1c12.48-0.01,12.27-0.01,12.34-12.47
		C494.24,193.12,492.97,192.34,489.37,192.44z M569.58,120.39c-7.49,0-13.94,0.17-20.38-0.07c-3.13-0.11-4.72,0.96-5.93,3.86
		c-4.13,9.75-8.49,19.43-12.92,29.05c-0.66,1.45-0.41,3.77-2.67,4.15c-5.01-11.03-10-21.96-14.95-32.92
		c-1.01-2.26-1.72-4.3-5.06-4.15c-6.91,0.29-13.84,0.09-21.75,0.09c6.29,10.92,11.21,21.35,17.83,30.56
		c10.54,14.68,14.14,30.52,12.6,48.28c-0.88,10.18-0.16,10.26,10.1,10.28c11.59,0.02,12.48-0.06,11.39-11.24
		c-1.78-18.16,2.75-33.87,13.66-48.45C558.15,140.93,563.22,130.87,569.58,120.39z M638.67,196.69c-0.11-2.89-0.84-3.97-3.81-3.88
		c-6.55,0.17-13.1,0.18-19.65,0c-5.23-0.16-12.42,2.36-15.18-1.14c-2.62-3.3-0.56-10.18-0.91-15.48c-0.23-3.6,1.19-4.43,4.53-4.35
		c8.81,0.21,17.61-0.2,26.41,0.16c5.87,0.25,4.72-4,3.98-6.5c-1.02-3.45,4.37-9.76-4.03-10.23c-0.81-0.05-1.63,0-2.46,0h-14.73
		c-14.3,0-14.14,0-13.74-14.21c0.11-3.78,1.63-4.32,4.79-4.25c6.95,0.16,13.92,0.05,20.88,0.05c12.15,0,12.05,0,11.78-12.34
		c-0.06-3.03-0.64-4.25-4.03-4.21c-16.99,0.17-33.97,0.17-50.96,0c-3.56-0.04-4.41,1.11-4.37,4.48c0.17,13.51,0.07,27.02,0.07,40.53
		c0,12.88,0.27,25.79-0.13,38.68c-0.16,4.9,1.52,5.71,5.88,5.64c14.53-0.26,29.06-0.12,43.59-0.12
		C639.27,209.5,639.17,209.51,638.67,196.69z M710.91,267.86H366.5c-9.76,0-11.74,1.99-11.74,11.89c0,138.96,0,277.9,0.01,416.86
		c0,9.53,1.85,11.37,11.57,11.37c115.01,0,230.02-0.01,345.01-0.01c10.22,0,12.15-1.95,12.15-12.12V280.23
		C723.5,269.78,721.54,267.86,710.91,267.86z M377.34,283.78c107.65,0.2,215.3,0.15,322.94,0.16c7.15,0,7.15,0.01,7.15,7.15v303.24
		c-9.05-7.86-17.16-14.86-25.24-21.9c-22.83-19.85-45.66-39.73-68.51-59.58c-7.15-6.21-9.42-6.21-16.83-0.07
		c-7.09,5.87-14.32,11.56-21.17,17.7c-3.37,3.02-5.31,3.27-8.73-0.22c-21.25-21.58-42.78-42.88-64.22-64.28
		c-7.76-7.75-10.5-7.75-17.99,0.43c-35.89,39.25-71.75,78.53-107.63,117.81c-1.74,1.92-3.52,3.81-6.26,6.76v-13.17
		c0-95.77,0.05-191.55-0.12-287.34C370.71,285.14,371.87,283.76,377.34,283.78z M701.36,691.95c-54.03-0.15-108.06-0.1-162.08-0.09
		c-54.03,0-108.06-0.07-162.07,0.11c-4.89,0.01-6.58-0.87-6.5-6.23c0.34-21.89,0.21-43.78,0.07-65.68c-0.02-3.5,0.95-6.03,3.37-8.67
		c38.69-42.21,77.29-84.52,115.81-126.91c2.98-3.29,4.61-4.07,8.22-0.38c21.24,21.6,42.78,42.89,64.22,64.28
		c6.34,6.33,9.21,6.42,16.13,0.65c7.86-6.55,15.79-12.99,23.56-19.65c2.16-1.84,3.44-2.32,5.94-0.14
		c31.99,28.03,64.11,55.91,96.28,83.74c2.4,2.08,3.22,4.25,3.21,7.37c-0.14,21.9-0.26,43.8,0.06,65.68
		C707.64,691.14,705.92,691.97,701.36,691.95z M724.45,206.19c-2.57-8.18-4.86-16.43-7.49-24.59c-1.87-5.8-5.12-10.67-11.2-13.84
		c9.53-6.09,13.25-9.94,15.08-15.34c4.61-13.55-3.19-26.81-18.37-30.59c-15.14-3.77-30.47-2-45.77-0.87
		c-4.09,0.31-3.49,3.08-3.49,5.69c0.01,22.1-0.01,44.18,0.02,66.27c0.01,5.28-1.79,12.34,0.88,15.4c3.1,3.55,10.35,0.68,15.76,1.26
		c3.72,0.41,5.01-0.72,4.86-4.64c-0.29-8.59,0.11-17.18-0.18-25.77c-0.14-3.88,1.17-4.78,4.86-4.74
		c10.13,0.11,14.01,2.79,16.83,12.52c1.81,6.26,3.52,12.56,5.42,18.82c0.56,1.9,1.18,3.88,3.98,3.81
		c5.53-0.12,11.05-0.09,16.57,0.01C724.95,209.63,725.17,208.49,724.45,206.19z M690.32,158.89c-4.61,1.44-9.94,2.16-13.78,0.44
		c-4.75-2.12-0.29-8.08-1.9-11.13c0-1.58-0.21-2.31,0.04-2.79c1.71-3.33-3.97-9.56,4.08-10.38c12.39-1.26,19.81,1.94,21.33,9.26
		C701.51,151.16,697.82,156.55,690.32,158.89z M755.45,805.35c-0.32-4.21-2.78-6.69-7.01-7.16c-1.83-0.2-3.68-0.15-5.51-0.15H538.57
		c-68.53-0.01-137.07-0.01-205.59,0c-8.39,0-12.09,2.38-12.21,7.77c-0.12,5.67,3.82,8.33,12.36,8.34h410.56
		c1.84,0,3.73,0.09,5.49-0.33C753.55,812.8,755.81,809.87,755.45,805.35z M749.06,887.06c-1.56-0.38-3.25-0.18-4.9-0.18
		c-137.05,0-274.11,0-411.17,0.01c-8.28,0-12.04,2.42-12.21,7.8c-0.18,5.63,3.73,8.25,12.36,8.25H538.1
		c68.13,0,136.24,0.01,204.36,0c2.05,0,4.13,0.16,6.13-0.14c4.16-0.6,6.63-3.14,6.89-7.34
		C755.77,890.95,753.35,888.11,749.06,887.06z M749.6,753.97c-2.33-0.58-4.86-0.54-7.31-0.54c-136.12-0.02-272.24-0.02-408.36-0.02
		c-1.63,0-3.29-0.11-4.91,0.05c-5.06,0.49-8.25,3.71-8.25,8.19c0.01,4.48,3.23,7.57,8.38,7.88c2.04,0.12,4.09,0.04,6.14,0.04h203.27
		v0.06c66.73,0,133.46,0,200.2-0.01c3.27,0,6.57,0.2,9.81-0.18c4.14-0.49,6.63-3.03,6.93-7.31
		C755.76,757.85,753.69,754.97,749.6,753.97z M747.9,842.57c-2.44-0.18-4.9-0.07-7.36-0.07H538.03c-68.32,0-136.65,0-204.96,0.01
		c-8.43,0-12.07,2.3-12.29,7.69c-0.21,5.56,3.88,8.35,12.32,8.35h410.55c1.44,0,2.87,0.1,4.3-0.05c4.63-0.45,7.57-3.62,7.57-8.03
		C755.52,846.01,752.63,842.94,747.9,842.57z M333.09,858.55h410.55c1.44,0,2.87,0.1,4.3-0.05c4.63-0.45,7.57-3.62,7.57-8.03
		c0.01-4.46-2.87-7.53-7.6-7.9c-2.44-0.18-4.9-0.07-7.36-0.07H538.03c-68.32,0-136.65,0-204.96,0.01c-8.43,0-12.07,2.3-12.29,7.69
		C320.56,855.76,324.65,858.55,333.09,858.55z M329.14,769.53c2.04,0.12,4.09,0.04,6.14,0.04h203.27v0.06
		c66.73,0,133.46,0,200.2-0.01c3.27,0,6.57,0.2,9.81-0.18c4.14-0.49,6.63-3.03,6.93-7.31c0.28-4.27-1.79-7.15-5.88-8.16
		c-2.33-0.58-4.86-0.54-7.31-0.54c-136.12-0.02-272.24-0.02-408.36-0.02c-1.63,0-3.29-0.11-4.91,0.05
		c-5.06,0.49-8.25,3.71-8.25,8.19C320.77,766.12,323.99,769.21,329.14,769.53z M749.06,887.06c-1.56-0.38-3.25-0.18-4.9-0.18
		c-137.05,0-274.11,0-411.17,0.01c-8.28,0-12.04,2.42-12.21,7.8c-0.18,5.63,3.73,8.25,12.36,8.25H538.1
		c68.13,0,136.24,0.01,204.36,0c2.05,0,4.13,0.16,6.13-0.14c4.16-0.6,6.63-3.14,6.89-7.34
		C755.77,890.95,753.35,888.11,749.06,887.06z M333.13,814.16h410.56c1.84,0,3.73,0.09,5.49-0.33c4.37-1.03,6.63-3.95,6.28-8.47
		c-0.32-4.21-2.78-6.69-7.01-7.16c-1.83-0.2-3.68-0.15-5.51-0.15H538.57c-68.53-0.01-137.07-0.01-205.59,0
		c-8.39,0-12.09,2.38-12.21,7.77C320.65,811.49,324.59,814.15,333.13,814.16z M654.12,208.32c3.1,3.55,10.35,0.68,15.76,1.26
		c3.72,0.41,5.01-0.72,4.86-4.64c-0.29-8.59,0.11-17.18-0.18-25.77c-0.14-3.88,1.17-4.78,4.86-4.74
		c10.13,0.11,14.01,2.79,16.83,12.52c1.81,6.26,3.52,12.56,5.42,18.82c0.56,1.9,1.18,3.88,3.98,3.81
		c5.53-0.12,11.05-0.09,16.57,0.01c2.74,0.05,2.96-1.09,2.25-3.39c-2.57-8.18-4.86-16.43-7.49-24.59
		c-1.87-5.8-5.12-10.67-11.2-13.84c9.53-6.09,13.25-9.94,15.08-15.34c4.61-13.55-3.19-26.81-18.37-30.59
		c-15.14-3.77-30.47-2-45.77-0.87c-4.09,0.31-3.49,3.08-3.49,5.69c0.01,22.1-0.01,44.18,0.02,66.27
		C653.24,198.2,651.44,205.26,654.12,208.32z M674.64,148.21c0-1.58-0.21-2.31,0.04-2.79c1.71-3.33-3.97-9.56,4.08-10.38
		c12.39-1.26,19.81,1.94,21.33,9.26c1.42,6.85-2.27,12.25-9.76,14.59c-4.61,1.44-9.94,2.16-13.78,0.44
		C671.79,157.21,676.25,151.26,674.64,148.21z M366.34,707.98c115.01,0,230.02-0.01,345.01-0.01c10.22,0,12.15-1.95,12.15-12.12
		V280.23c0-10.45-1.95-12.37-12.59-12.37H366.5c-9.76,0-11.74,1.99-11.74,11.89c0,138.96,0,277.9,0.01,416.86
		C354.77,706.14,356.62,707.98,366.34,707.98z M377.34,283.78c107.65,0.2,215.3,0.15,322.94,0.16c7.15,0,7.15,0.01,7.15,7.15v303.24
		c-9.05-7.86-17.16-14.86-25.24-21.9c-22.83-19.85-45.66-39.73-68.51-59.58c-7.15-6.21-9.42-6.21-16.83-0.07
		c-7.09,5.87-14.32,11.56-21.17,17.7c-3.37,3.02-5.31,3.27-8.73-0.22c-21.25-21.58-42.78-42.88-64.22-64.28
		c-7.76-7.75-10.5-7.75-17.99,0.43c-35.89,39.25-71.75,78.53-107.63,117.81c-1.74,1.92-3.52,3.81-6.26,6.76v-13.17
		c0-95.77,0.05-191.55-0.12-287.34C370.71,285.14,371.87,283.76,377.34,283.78z M370.78,620.07c-0.02-3.5,0.95-6.03,3.37-8.67
		c38.69-42.21,77.29-84.52,115.81-126.91c2.98-3.29,4.61-4.07,8.22-0.38c21.24,21.6,42.78,42.89,64.22,64.28
		c6.34,6.33,9.21,6.42,16.13,0.65c7.86-6.55,15.79-12.99,23.56-19.65c2.16-1.84,3.44-2.32,5.94-0.14
		c31.99,28.03,64.11,55.91,96.28,83.74c2.4,2.08,3.22,4.25,3.21,7.37c-0.14,21.9-0.26,43.8,0.06,65.68c0.07,5.1-1.65,5.92-6.2,5.91
		c-54.03-0.15-108.06-0.1-162.08-0.09c-54.03,0-108.06-0.07-162.07,0.11c-4.89,0.01-6.58-0.87-6.5-6.23
		C371.06,663.87,370.92,641.97,370.78,620.07z M582.99,209.63c14.53-0.26,29.06-0.12,43.59-0.12c12.69-0.01,12.59,0,12.09-12.82
		c-0.11-2.89-0.84-3.97-3.81-3.88c-6.55,0.17-13.1,0.18-19.65,0c-5.23-0.16-12.42,2.36-15.18-1.14c-2.62-3.3-0.56-10.18-0.91-15.48
		c-0.23-3.6,1.19-4.43,4.53-4.35c8.81,0.21,17.61-0.2,26.41,0.16c5.87,0.25,4.72-4,3.98-6.5c-1.02-3.45,4.37-9.76-4.03-10.23
		c-0.81-0.05-1.63,0-2.46,0h-14.73c-14.3,0-14.14,0-13.74-14.21c0.11-3.78,1.63-4.32,4.79-4.25c6.95,0.16,13.92,0.05,20.88,0.05
		c12.15,0,12.05,0,11.78-12.34c-0.06-3.03-0.64-4.25-4.03-4.21c-16.99,0.17-33.97,0.17-50.96,0c-3.56-0.04-4.41,1.11-4.37,4.48
		c0.17,13.51,0.07,27.02,0.07,40.53c0,12.88,0.27,25.79-0.13,38.68C576.95,208.89,578.63,209.7,582.99,209.63z M516.36,199.23
		c-0.88,10.18-0.16,10.26,10.1,10.28c11.59,0.02,12.48-0.06,11.39-11.24c-1.78-18.16,2.75-33.87,13.66-48.45
		c6.64-8.89,11.72-18.95,18.08-29.43c-7.49,0-13.94,0.17-20.38-0.07c-3.13-0.11-4.72,0.96-5.93,3.86
		c-4.13,9.75-8.49,19.43-12.92,29.05c-0.66,1.45-0.41,3.77-2.67,4.15c-5.01-11.03-10-21.96-14.95-32.92
		c-1.01-2.26-1.72-4.3-5.06-4.15c-6.91,0.29-13.84,0.09-21.75,0.09c6.29,10.92,11.21,21.35,17.83,30.56
		C514.3,165.63,517.9,181.47,516.36,199.23z M438.95,209.66c14.31-0.22,28.62-0.09,42.93-0.1c12.48-0.01,12.27-0.01,12.34-12.47
		c0.02-3.97-1.25-4.75-4.85-4.65c-8.99,0.25-18.01-0.21-26.98,0.2c-5.04,0.23-6.56-1.19-6.47-6.35c0.29-20.03,0.01-40.06,0.2-60.11
		c0.04-4.16-0.38-6.57-5.48-5.9c-3.82,0.52-7.79,0.38-11.63,0.02c-3.88-0.36-4.89,1.06-4.84,4.78c0.18,13.29,0.07,26.58,0.07,39.87
		c-0.01,0-0.01,0-0.02,0c0,13.29,0.14,26.58-0.09,39.87C434.06,208.59,435.13,209.72,438.95,209.66z M360.44,208.56
		c3.73,3.17,10.96,0.63,16.63,1.01c3.32,0.22,4.19-0.91,4.11-4.1c-0.2-8.59,0.15-17.18-0.17-25.76c-0.17-4.56,0.72-6.74,5.93-6.26
		c5.48,0.5,11.03,0.11,16.54,0.12c12.74,0.01,12.63,0.01,12.09-12.65c-0.12-2.95-0.98-3.8-3.88-3.73
		c-8.78,0.17-17.58-0.05-26.36,0.11c-3.08,0.06-4.5-0.69-4.29-4.05c0.26-4.07,0.22-8.18,0.02-12.26c-0.16-3.21,1.01-4.29,4.23-4.19
		c6.95,0.21,13.9,0.06,20.85,0.06c12.2,0,12.04,0.01,11.9-12.22c-0.04-3.6-1.22-4.42-4.56-4.34c-8.17,0.21-16.35,0.07-24.51,0.07
		c-7.77,0-15.56,0.32-23.3-0.11c-4.97-0.27-6.57,1.03-6.51,6.25c0.29,22.07,0.05,44.15,0.18,66.22
		C359.4,198.18,356.89,205.54,360.44,208.56z M817.39,844.14c-8.25-33.52-16.7-66.99-24.66-100.58
		c-2.67-11.25-6.55-22.24-6.52-34.16c0.16-108.88,0.1-217.76,0.1-326.64c0-110.51,0.01-221.04,0-331.55
		c0-9.86-1.94-11.79-11.8-11.79H303.59c-9.76,0-11.99,2.12-12,11.75c-0.05,20.67-0.1,41.34,0.05,62.01
		c0.02,3.66-0.91,5.29-4.74,6.21c-31.58,7.58-63.08,15.45-94.62,23.19c-10.4,2.55-11.8,4.7-9.29,14.96
		c34.76,141.43,69.53,282.84,104.24,424.28c2.17,8.88,4.47,17.66,4.46,27.09c-0.2,112.97-0.12,225.94-0.11,338.91
		c0,10.94,1.87,12.74,12.88,12.74h469.68c10.27,0,12.16-1.88,12.16-12.05c0.01-26.81,0.14-53.62-0.14-80.43
		c-0.04-4.43,1.41-6.08,5.48-6.87c6.01-1.14,11.94-2.71,17.88-4.22C817.45,854.98,819.31,851.91,817.39,844.14z M291.57,141.42
		c0,30.29-0.01,60.57-0.01,90.87v294.64c-0.37,0.1-0.74,0.21-1.09,0.31c-5.77-23.32-11.56-46.65-17.29-69.98
		c-24.01-97.79-47.97-195.6-72.12-293.35c-1.23-4.97-0.77-6.85,4.73-8.14c26.46-6.15,52.78-12.85,79.14-19.36
		C291.79,134.71,291.57,133.8,291.57,141.42z M770.27,500.63c0,145.53,0,291.06-0.02,436.58c0,8.57,0.88,7.28-6.99,7.28
		c-149.62,0.04-299.25,0-448.87,0.15c-4.91,0-6.53-0.93-6.53-6.23c0.13-292.28,0.13-584.57,0-876.85c0-5.32,1.67-6.2,6.56-6.2
		c149.62,0.15,299.24,0.11,448.87,0.14c7.85,0.01,6.96-1.29,6.96,7.31C770.27,208.75,770.27,354.68,770.27,500.63z M796.03,843.87
		c-9.79,2.31-9.74,2.48-9.74-7.41c-0.01-15.49,0-30.98,0-46.46c2.58,3.35,2.92,7.41,3.91,11.26c3.08,12.23,6.02,24.49,9.22,36.69
		C800.32,841.38,799.8,842.98,796.03,843.87z M747.9,842.57c-2.44-0.18-4.9-0.07-7.36-0.07H538.03c-68.32,0-136.65,0-204.96,0.01
		c-8.43,0-12.07,2.3-12.29,7.69c-0.21,5.56,3.88,8.35,12.32,8.35h410.55c1.44,0,2.87,0.1,4.3-0.05c4.63-0.45,7.57-3.62,7.57-8.03
		C755.52,846.01,752.63,842.94,747.9,842.57z M329.14,769.53c2.04,0.12,4.09,0.04,6.14,0.04h203.27v0.06
		c66.73,0,133.46,0,200.2-0.01c3.27,0,6.57,0.2,9.81-0.18c4.14-0.49,6.63-3.03,6.93-7.31c0.28-4.27-1.79-7.15-5.88-8.16
		c-2.33-0.58-4.86-0.54-7.31-0.54c-136.12-0.02-272.24-0.02-408.36-0.02c-1.63,0-3.29-0.11-4.91,0.05
		c-5.06,0.49-8.25,3.71-8.25,8.19C320.77,766.12,323.99,769.21,329.14,769.53z M749.06,887.06c-1.56-0.38-3.25-0.18-4.9-0.18
		c-137.05,0-274.11,0-411.17,0.01c-8.28,0-12.04,2.42-12.21,7.8c-0.18,5.63,3.73,8.25,12.36,8.25H538.1
		c68.13,0,136.24,0.01,204.36,0c2.05,0,4.13,0.16,6.13-0.14c4.16-0.6,6.63-3.14,6.89-7.34
		C755.77,890.95,753.35,888.11,749.06,887.06z M748.44,798.19c-1.83-0.2-3.68-0.15-5.51-0.15H538.57
		c-68.53-0.01-137.07-0.01-205.59,0c-8.39,0-12.09,2.38-12.21,7.77c-0.12,5.67,3.82,8.33,12.36,8.34h410.56
		c1.84,0,3.73,0.09,5.49-0.33c4.37-1.03,6.63-3.95,6.28-8.47C755.13,801.14,752.68,798.66,748.44,798.19z M654.12,208.32
		c3.1,3.55,10.35,0.68,15.76,1.26c3.72,0.41,5.01-0.72,4.86-4.64c-0.29-8.59,0.11-17.18-0.18-25.77c-0.14-3.88,1.17-4.78,4.86-4.74
		c10.13,0.11,14.01,2.79,16.83,12.52c1.81,6.26,3.52,12.56,5.42,18.82c0.56,1.9,1.18,3.88,3.98,3.81
		c5.53-0.12,11.05-0.09,16.57,0.01c2.74,0.05,2.96-1.09,2.25-3.39c-2.57-8.18-4.86-16.43-7.49-24.59
		c-1.87-5.8-5.12-10.67-11.2-13.84c9.53-6.09,13.25-9.94,15.08-15.34c4.61-13.55-3.19-26.81-18.37-30.59
		c-15.14-3.77-30.47-2-45.77-0.87c-4.09,0.31-3.49,3.08-3.49,5.69c0.01,22.1-0.01,44.18,0.02,66.27
		C653.24,198.2,651.44,205.26,654.12,208.32z M674.64,148.21c0-1.58-0.21-2.31,0.04-2.79c1.71-3.33-3.97-9.56,4.08-10.38
		c12.39-1.26,19.81,1.94,21.33,9.26c1.42,6.85-2.27,12.25-9.76,14.59c-4.61,1.44-9.94,2.16-13.78,0.44
		C671.79,157.21,676.25,151.26,674.64,148.21z M366.34,707.98c115.01,0,230.02-0.01,345.01-0.01c10.22,0,12.15-1.95,12.15-12.12
		V280.23c0-10.45-1.95-12.37-12.59-12.37H366.5c-9.76,0-11.74,1.99-11.74,11.89c0,138.96,0,277.9,0.01,416.86
		C354.77,706.14,356.62,707.98,366.34,707.98z M377.34,283.78c107.65,0.2,215.3,0.15,322.94,0.16c7.15,0,7.15,0.01,7.15,7.15v303.24
		c-9.05-7.86-17.16-14.86-25.24-21.9c-22.83-19.85-45.66-39.73-68.51-59.58c-7.15-6.21-9.42-6.21-16.83-0.07
		c-7.09,5.87-14.32,11.56-21.17,17.7c-3.37,3.02-5.31,3.27-8.73-0.22c-21.25-21.58-42.78-42.88-64.22-64.28
		c-7.76-7.75-10.5-7.75-17.99,0.43c-35.89,39.25-71.75,78.53-107.63,117.81c-1.74,1.92-3.52,3.81-6.26,6.76v-13.17
		c0-95.77,0.05-191.55-0.12-287.34C370.71,285.14,371.87,283.76,377.34,283.78z M370.78,620.07c-0.02-3.5,0.95-6.03,3.37-8.67
		c38.69-42.21,77.29-84.52,115.81-126.91c2.98-3.29,4.61-4.07,8.22-0.38c21.24,21.6,42.78,42.89,64.22,64.28
		c6.34,6.33,9.21,6.42,16.13,0.65c7.86-6.55,15.79-12.99,23.56-19.65c2.16-1.84,3.44-2.32,5.94-0.14
		c31.99,28.03,64.11,55.91,96.28,83.74c2.4,2.08,3.22,4.25,3.21,7.37c-0.14,21.9-0.26,43.8,0.06,65.68c0.07,5.1-1.65,5.92-6.2,5.91
		c-54.03-0.15-108.06-0.1-162.08-0.09c-54.03,0-108.06-0.07-162.07,0.11c-4.89,0.01-6.58-0.87-6.5-6.23
		C371.06,663.87,370.92,641.97,370.78,620.07z M582.99,209.63c14.53-0.26,29.06-0.12,43.59-0.12c12.69-0.01,12.59,0,12.09-12.82
		c-0.11-2.89-0.84-3.97-3.81-3.88c-6.55,0.17-13.1,0.18-19.65,0c-5.23-0.16-12.42,2.36-15.18-1.14c-2.62-3.3-0.56-10.18-0.91-15.48
		c-0.23-3.6,1.19-4.43,4.53-4.35c8.81,0.21,17.61-0.2,26.41,0.16c5.87,0.25,4.72-4,3.98-6.5c-1.02-3.45,4.37-9.76-4.03-10.23
		c-0.81-0.05-1.63,0-2.46,0h-14.73c-14.3,0-14.14,0-13.74-14.21c0.11-3.78,1.63-4.32,4.79-4.25c6.95,0.16,13.92,0.05,20.88,0.05
		c12.15,0,12.05,0,11.78-12.34c-0.06-3.03-0.64-4.25-4.03-4.21c-16.99,0.17-33.97,0.17-50.96,0c-3.56-0.04-4.41,1.11-4.37,4.48
		c0.17,13.51,0.07,27.02,0.07,40.53c0,12.88,0.27,25.79-0.13,38.68C576.95,208.89,578.63,209.7,582.99,209.63z M516.36,199.23
		c-0.88,10.18-0.16,10.26,10.1,10.28c11.59,0.02,12.48-0.06,11.39-11.24c-1.78-18.16,2.75-33.87,13.66-48.45
		c6.64-8.89,11.72-18.95,18.08-29.43c-7.49,0-13.94,0.17-20.38-0.07c-3.13-0.11-4.72,0.96-5.93,3.86
		c-4.13,9.75-8.49,19.43-12.92,29.05c-0.66,1.45-0.41,3.77-2.67,4.15c-5.01-11.03-10-21.96-14.95-32.92
		c-1.01-2.26-1.72-4.3-5.06-4.15c-6.91,0.29-13.84,0.09-21.75,0.09c6.29,10.92,11.21,21.35,17.83,30.56
		C514.3,165.63,517.9,181.47,516.36,199.23z M438.95,209.66c14.31-0.22,28.62-0.09,42.93-0.1c12.48-0.01,12.27-0.01,12.34-12.47
		c0.02-3.97-1.25-4.75-4.85-4.65c-8.99,0.25-18.01-0.21-26.98,0.2c-5.04,0.23-6.56-1.19-6.47-6.35c0.29-20.03,0.01-40.06,0.2-60.11
		c0.04-4.16-0.38-6.57-5.48-5.9c-3.82,0.52-7.79,0.38-11.63,0.02c-3.88-0.36-4.89,1.06-4.84,4.78c0.18,13.29,0.07,26.58,0.07,39.87
		c-0.01,0-0.01,0-0.02,0c0,13.29,0.14,26.58-0.09,39.87C434.06,208.59,435.13,209.72,438.95,209.66z M360.44,208.56
		c3.73,3.17,10.96,0.63,16.63,1.01c3.32,0.22,4.19-0.91,4.11-4.1c-0.2-8.59,0.15-17.18-0.17-25.76c-0.17-4.56,0.72-6.74,5.93-6.26
		c5.48,0.5,11.03,0.11,16.54,0.12c12.74,0.01,12.63,0.01,12.09-12.65c-0.12-2.95-0.98-3.8-3.88-3.73
		c-8.78,0.17-17.58-0.05-26.36,0.11c-3.08,0.06-4.5-0.69-4.29-4.05c0.26-4.07,0.22-8.18,0.02-12.26c-0.16-3.21,1.01-4.29,4.23-4.19
		c6.95,0.21,13.9,0.06,20.85,0.06c12.2,0,12.04,0.01,11.9-12.22c-0.04-3.6-1.22-4.42-4.56-4.34c-8.17,0.21-16.35,0.07-24.51,0.07
		c-7.77,0-15.56,0.32-23.3-0.11c-4.97-0.27-6.57,1.03-6.51,6.25c0.29,22.07,0.05,44.15,0.18,66.22
		C359.4,198.18,356.89,205.54,360.44,208.56z M385.3,136.8c6.95,0.21,13.9,0.06,20.85,0.06c12.2,0,12.04,0.01,11.9-12.22
		c-0.04-3.6-1.22-4.42-4.56-4.34c-8.17,0.21-16.35,0.07-24.51,0.07c-7.77,0-15.56,0.32-23.3-0.11c-4.97-0.27-6.57,1.03-6.51,6.25
		c0.29,22.07,0.05,44.15,0.18,66.22c0.04,5.44-2.47,12.8,1.08,15.82c3.73,3.17,10.96,0.63,16.63,1.01c3.32,0.22,4.19-0.91,4.11-4.1
		c-0.2-8.59,0.15-17.18-0.17-25.76c-0.17-4.56,0.72-6.74,5.93-6.26c5.48,0.5,11.03,0.11,16.54,0.12
		c12.74,0.01,12.63,0.01,12.09-12.65c-0.12-2.95-0.98-3.8-3.88-3.73c-8.78,0.17-17.58-0.05-26.36,0.11
		c-3.08,0.06-4.5-0.69-4.29-4.05c0.26-4.07,0.22-8.18,0.02-12.26C380.92,137.78,382.08,136.7,385.3,136.8z M489.37,192.44
		c-8.99,0.25-18.01-0.21-26.98,0.2c-5.04,0.23-6.56-1.19-6.47-6.35c0.29-20.03,0.01-40.06,0.2-60.11c0.04-4.16-0.38-6.57-5.48-5.9
		c-3.82,0.52-7.79,0.38-11.63,0.02c-3.88-0.36-4.89,1.06-4.84,4.78c0.18,13.29,0.07,26.58,0.07,39.87c-0.01,0-0.01,0-0.02,0
		c0,13.29,0.14,26.58-0.09,39.87c-0.06,3.77,1.01,4.9,4.83,4.84c14.31-0.22,28.62-0.09,42.93-0.1c12.48-0.01,12.27-0.01,12.34-12.47
		C494.24,193.12,492.97,192.34,489.37,192.44z M569.58,120.39c-7.49,0-13.94,0.17-20.38-0.07c-3.13-0.11-4.72,0.96-5.93,3.86
		c-4.13,9.75-8.49,19.43-12.92,29.05c-0.66,1.45-0.41,3.77-2.67,4.15c-5.01-11.03-10-21.96-14.95-32.92
		c-1.01-2.26-1.72-4.3-5.06-4.15c-6.91,0.29-13.84,0.09-21.75,0.09c6.29,10.92,11.21,21.35,17.83,30.56
		c10.54,14.68,14.14,30.52,12.6,48.28c-0.88,10.18-0.16,10.26,10.1,10.28c11.59,0.02,12.48-0.06,11.39-11.24
		c-1.78-18.16,2.75-33.87,13.66-48.45C558.15,140.93,563.22,130.87,569.58,120.39z M638.67,196.69c-0.11-2.89-0.84-3.97-3.81-3.88
		c-6.55,0.17-13.1,0.18-19.65,0c-5.23-0.16-12.42,2.36-15.18-1.14c-2.62-3.3-0.56-10.18-0.91-15.48c-0.23-3.6,1.19-4.43,4.53-4.35
		c8.81,0.21,17.61-0.2,26.41,0.16c5.87,0.25,4.72-4,3.98-6.5c-1.02-3.45,4.37-9.76-4.03-10.23c-0.81-0.05-1.63,0-2.46,0h-14.73
		c-14.3,0-14.14,0-13.74-14.21c0.11-3.78,1.63-4.32,4.79-4.25c6.95,0.16,13.92,0.05,20.88,0.05c12.15,0,12.05,0,11.78-12.34
		c-0.06-3.03-0.64-4.25-4.03-4.21c-16.99,0.17-33.97,0.17-50.96,0c-3.56-0.04-4.41,1.11-4.37,4.48c0.17,13.51,0.07,27.02,0.07,40.53
		c0,12.88,0.27,25.79-0.13,38.68c-0.16,4.9,1.52,5.71,5.88,5.64c14.53-0.26,29.06-0.12,43.59-0.12
		C639.27,209.5,639.17,209.51,638.67,196.69z M710.91,267.86H366.5c-9.76,0-11.74,1.99-11.74,11.89c0,138.96,0,277.9,0.01,416.86
		c0,9.53,1.85,11.37,11.57,11.37c115.01,0,230.02-0.01,345.01-0.01c10.22,0,12.15-1.95,12.15-12.12V280.23
		C723.5,269.78,721.54,267.86,710.91,267.86z M377.34,283.78c107.65,0.2,215.3,0.15,322.94,0.16c7.15,0,7.15,0.01,7.15,7.15v303.24
		c-9.05-7.86-17.16-14.86-25.24-21.9c-22.83-19.85-45.66-39.73-68.51-59.58c-7.15-6.21-9.42-6.21-16.83-0.07
		c-7.09,5.87-14.32,11.56-21.17,17.7c-3.37,3.02-5.31,3.27-8.73-0.22c-21.25-21.58-42.78-42.88-64.22-64.28
		c-7.76-7.75-10.5-7.75-17.99,0.43c-35.89,39.25-71.75,78.53-107.63,117.81c-1.74,1.92-3.52,3.81-6.26,6.76v-13.17
		c0-95.77,0.05-191.55-0.12-287.34C370.71,285.14,371.87,283.76,377.34,283.78z M701.36,691.95c-54.03-0.15-108.06-0.1-162.08-0.09
		c-54.03,0-108.06-0.07-162.07,0.11c-4.89,0.01-6.58-0.87-6.5-6.23c0.34-21.89,0.21-43.78,0.07-65.68c-0.02-3.5,0.95-6.03,3.37-8.67
		c38.69-42.21,77.29-84.52,115.81-126.91c2.98-3.29,4.61-4.07,8.22-0.38c21.24,21.6,42.78,42.89,64.22,64.28
		c6.34,6.33,9.21,6.42,16.13,0.65c7.86-6.55,15.79-12.99,23.56-19.65c2.16-1.84,3.44-2.32,5.94-0.14
		c31.99,28.03,64.11,55.91,96.28,83.74c2.4,2.08,3.22,4.25,3.21,7.37c-0.14,21.9-0.26,43.8,0.06,65.68
		C707.64,691.14,705.92,691.97,701.36,691.95z M724.45,206.19c-2.57-8.18-4.86-16.43-7.49-24.59c-1.87-5.8-5.12-10.67-11.2-13.84
		c9.53-6.09,13.25-9.94,15.08-15.34c4.61-13.55-3.19-26.81-18.37-30.59c-15.14-3.77-30.47-2-45.77-0.87
		c-4.09,0.31-3.49,3.08-3.49,5.69c0.01,22.1-0.01,44.18,0.02,66.27c0.01,5.28-1.79,12.34,0.88,15.4c3.1,3.55,10.35,0.68,15.76,1.26
		c3.72,0.41,5.01-0.72,4.86-4.64c-0.29-8.59,0.11-17.18-0.18-25.77c-0.14-3.88,1.17-4.78,4.86-4.74
		c10.13,0.11,14.01,2.79,16.83,12.52c1.81,6.26,3.52,12.56,5.42,18.82c0.56,1.9,1.18,3.88,3.98,3.81
		c5.53-0.12,11.05-0.09,16.57,0.01C724.95,209.63,725.17,208.49,724.45,206.19z M690.32,158.89c-4.61,1.44-9.94,2.16-13.78,0.44
		c-4.75-2.12-0.29-8.08-1.9-11.13c0-1.58-0.21-2.31,0.04-2.79c1.71-3.33-3.97-9.56,4.08-10.38c12.39-1.26,19.81,1.94,21.33,9.26
		C701.51,151.16,697.82,156.55,690.32,158.89z M755.45,805.35c-0.32-4.21-2.78-6.69-7.01-7.16c-1.83-0.2-3.68-0.15-5.51-0.15H538.57
		c-68.53-0.01-137.07-0.01-205.59,0c-8.39,0-12.09,2.38-12.21,7.77c-0.12,5.67,3.82,8.33,12.36,8.34h410.56
		c1.84,0,3.73,0.09,5.49-0.33C753.55,812.8,755.81,809.87,755.45,805.35z M749.06,887.06c-1.56-0.38-3.25-0.18-4.9-0.18
		c-137.05,0-274.11,0-411.17,0.01c-8.28,0-12.04,2.42-12.21,7.8c-0.18,5.63,3.73,8.25,12.36,8.25H538.1
		c68.13,0,136.24,0.01,204.36,0c2.05,0,4.13,0.16,6.13-0.14c4.16-0.6,6.63-3.14,6.89-7.34
		C755.77,890.95,753.35,888.11,749.06,887.06z M749.6,753.97c-2.33-0.58-4.86-0.54-7.31-0.54c-136.12-0.02-272.24-0.02-408.36-0.02
		c-1.63,0-3.29-0.11-4.91,0.05c-5.06,0.49-8.25,3.71-8.25,8.19c0.01,4.48,3.23,7.57,8.38,7.88c2.04,0.12,4.09,0.04,6.14,0.04h203.27
		v0.06c66.73,0,133.46,0,200.2-0.01c3.27,0,6.57,0.2,9.81-0.18c4.14-0.49,6.63-3.03,6.93-7.31
		C755.76,757.85,753.69,754.97,749.6,753.97z M747.9,842.57c-2.44-0.18-4.9-0.07-7.36-0.07H538.03c-68.32,0-136.65,0-204.96,0.01
		c-8.43,0-12.07,2.3-12.29,7.69c-0.21,5.56,3.88,8.35,12.32,8.35h410.55c1.44,0,2.87,0.1,4.3-0.05c4.63-0.45,7.57-3.62,7.57-8.03
		C755.52,846.01,752.63,842.94,747.9,842.57z M747.9,842.57c-2.44-0.18-4.9-0.07-7.36-0.07H538.03c-68.32,0-136.65,0-204.96,0.01
		c-8.43,0-12.07,2.3-12.29,7.69c-0.21,5.56,3.88,8.35,12.32,8.35h410.55c1.44,0,2.87,0.1,4.3-0.05c4.63-0.45,7.57-3.62,7.57-8.03
		C755.52,846.01,752.63,842.94,747.9,842.57z M749.6,753.97c-2.33-0.58-4.86-0.54-7.31-0.54c-136.12-0.02-272.24-0.02-408.36-0.02
		c-1.63,0-3.29-0.11-4.91,0.05c-5.06,0.49-8.25,3.71-8.25,8.19c0.01,4.48,3.23,7.57,8.38,7.88c2.04,0.12,4.09,0.04,6.14,0.04h203.27
		v0.06c66.73,0,133.46,0,200.2-0.01c3.27,0,6.57,0.2,9.81-0.18c4.14-0.49,6.63-3.03,6.93-7.31
		C755.76,757.85,753.69,754.97,749.6,753.97z M749.06,887.06c-1.56-0.38-3.25-0.18-4.9-0.18c-137.05,0-274.11,0-411.17,0.01
		c-8.28,0-12.04,2.42-12.21,7.8c-0.18,5.63,3.73,8.25,12.36,8.25H538.1c68.13,0,136.24,0.01,204.36,0c2.05,0,4.13,0.16,6.13-0.14
		c4.16-0.6,6.63-3.14,6.89-7.34C755.77,890.95,753.35,888.11,749.06,887.06z M755.45,805.35c-0.32-4.21-2.78-6.69-7.01-7.16
		c-1.83-0.2-3.68-0.15-5.51-0.15H538.57c-68.53-0.01-137.07-0.01-205.59,0c-8.39,0-12.09,2.38-12.21,7.77
		c-0.12,5.67,3.82,8.33,12.36,8.34h410.56c1.84,0,3.73,0.09,5.49-0.33C753.55,812.8,755.81,809.87,755.45,805.35z M724.45,206.19
		c-2.57-8.18-4.86-16.43-7.49-24.59c-1.87-5.8-5.12-10.67-11.2-13.84c9.53-6.09,13.25-9.94,15.08-15.34
		c4.61-13.55-3.19-26.81-18.37-30.59c-15.14-3.77-30.47-2-45.77-0.87c-4.09,0.31-3.49,3.08-3.49,5.69
		c0.01,22.1-0.01,44.18,0.02,66.27c0.01,5.28-1.79,12.34,0.88,15.4c3.1,3.55,10.35,0.68,15.76,1.26c3.72,0.41,5.01-0.72,4.86-4.64
		c-0.29-8.59,0.11-17.18-0.18-25.77c-0.14-3.88,1.17-4.78,4.86-4.74c10.13,0.11,14.01,2.79,16.83,12.52
		c1.81,6.26,3.52,12.56,5.42,18.82c0.56,1.9,1.18,3.88,3.98,3.81c5.53-0.12,11.05-0.09,16.57,0.01
		C724.95,209.63,725.17,208.49,724.45,206.19z M690.32,158.89c-4.61,1.44-9.94,2.16-13.78,0.44c-4.75-2.12-0.29-8.08-1.9-11.13
		c0-1.58-0.21-2.31,0.04-2.79c1.71-3.33-3.97-9.56,4.08-10.38c12.39-1.26,19.81,1.94,21.33,9.26
		C701.51,151.16,697.82,156.55,690.32,158.89z M710.91,267.86H366.5c-9.76,0-11.74,1.99-11.74,11.89c0,138.96,0,277.9,0.01,416.86
		c0,9.53,1.85,11.37,11.57,11.37c115.01,0,230.02-0.01,345.01-0.01c10.22,0,12.15-1.95,12.15-12.12V280.23
		C723.5,269.78,721.54,267.86,710.91,267.86z M377.34,283.78c107.65,0.2,215.3,0.15,322.94,0.16c7.15,0,7.15,0.01,7.15,7.15v303.24
		c-9.05-7.86-17.16-14.86-25.24-21.9c-22.83-19.85-45.66-39.73-68.51-59.58c-7.15-6.21-9.42-6.21-16.83-0.07
		c-7.09,5.87-14.32,11.56-21.17,17.7c-3.37,3.02-5.31,3.27-8.73-0.22c-21.25-21.58-42.78-42.88-64.22-64.28
		c-7.76-7.75-10.5-7.75-17.99,0.43c-35.89,39.25-71.75,78.53-107.63,117.81c-1.74,1.92-3.52,3.81-6.26,6.76v-13.17
		c0-95.77,0.05-191.55-0.12-287.34C370.71,285.14,371.87,283.76,377.34,283.78z M701.36,691.95c-54.03-0.15-108.06-0.1-162.08-0.09
		c-54.03,0-108.06-0.07-162.07,0.11c-4.89,0.01-6.58-0.87-6.5-6.23c0.34-21.89,0.21-43.78,0.07-65.68c-0.02-3.5,0.95-6.03,3.37-8.67
		c38.69-42.21,77.29-84.52,115.81-126.91c2.98-3.29,4.61-4.07,8.22-0.38c21.24,21.6,42.78,42.89,64.22,64.28
		c6.34,6.33,9.21,6.42,16.13,0.65c7.86-6.55,15.79-12.99,23.56-19.65c2.16-1.84,3.44-2.32,5.94-0.14
		c31.99,28.03,64.11,55.91,96.28,83.74c2.4,2.08,3.22,4.25,3.21,7.37c-0.14,21.9-0.26,43.8,0.06,65.68
		C707.64,691.14,705.92,691.97,701.36,691.95z M638.67,196.69c-0.11-2.89-0.84-3.97-3.81-3.88c-6.55,0.17-13.1,0.18-19.65,0
		c-5.23-0.16-12.42,2.36-15.18-1.14c-2.62-3.3-0.56-10.18-0.91-15.48c-0.23-3.6,1.19-4.43,4.53-4.35c8.81,0.21,17.61-0.2,26.41,0.16
		c5.87,0.25,4.72-4,3.98-6.5c-1.02-3.45,4.37-9.76-4.03-10.23c-0.81-0.05-1.63,0-2.46,0h-14.73c-14.3,0-14.14,0-13.74-14.21
		c0.11-3.78,1.63-4.32,4.79-4.25c6.95,0.16,13.92,0.05,20.88,0.05c12.15,0,12.05,0,11.78-12.34c-0.06-3.03-0.64-4.25-4.03-4.21
		c-16.99,0.17-33.97,0.17-50.96,0c-3.56-0.04-4.41,1.11-4.37,4.48c0.17,13.51,0.07,27.02,0.07,40.53c0,12.88,0.27,25.79-0.13,38.68
		c-0.16,4.9,1.52,5.71,5.88,5.64c14.53-0.26,29.06-0.12,43.59-0.12C639.27,209.5,639.17,209.51,638.67,196.69z M569.58,120.39
		c-7.49,0-13.94,0.17-20.38-0.07c-3.13-0.11-4.72,0.96-5.93,3.86c-4.13,9.75-8.49,19.43-12.92,29.05c-0.66,1.45-0.41,3.77-2.67,4.15
		c-5.01-11.03-10-21.96-14.95-32.92c-1.01-2.26-1.72-4.3-5.06-4.15c-6.91,0.29-13.84,0.09-21.75,0.09
		c6.29,10.92,11.21,21.35,17.83,30.56c10.54,14.68,14.14,30.52,12.6,48.28c-0.88,10.18-0.16,10.26,10.1,10.28
		c11.59,0.02,12.48-0.06,11.39-11.24c-1.78-18.16,2.75-33.87,13.66-48.45C558.15,140.93,563.22,130.87,569.58,120.39z
		 M489.37,192.44c-8.99,0.25-18.01-0.21-26.98,0.2c-5.04,0.23-6.56-1.19-6.47-6.35c0.29-20.03,0.01-40.06,0.2-60.11
		c0.04-4.16-0.38-6.57-5.48-5.9c-3.82,0.52-7.79,0.38-11.63,0.02c-3.88-0.36-4.89,1.06-4.84,4.78c0.18,13.29,0.07,26.58,0.07,39.87
		c-0.01,0-0.01,0-0.02,0c0,13.29,0.14,26.58-0.09,39.87c-0.06,3.77,1.01,4.9,4.83,4.84c14.31-0.22,28.62-0.09,42.93-0.1
		c12.48-0.01,12.27-0.01,12.34-12.47C494.24,193.12,492.97,192.34,489.37,192.44z M385.3,136.8c6.95,0.21,13.9,0.06,20.85,0.06
		c12.2,0,12.04,0.01,11.9-12.22c-0.04-3.6-1.22-4.42-4.56-4.34c-8.17,0.21-16.35,0.07-24.51,0.07c-7.77,0-15.56,0.32-23.3-0.11
		c-4.97-0.27-6.57,1.03-6.51,6.25c0.29,22.07,0.05,44.15,0.18,66.22c0.04,5.44-2.47,12.8,1.08,15.82
		c3.73,3.17,10.96,0.63,16.63,1.01c3.32,0.22,4.19-0.91,4.11-4.1c-0.2-8.59,0.15-17.18-0.17-25.76c-0.17-4.56,0.72-6.74,5.93-6.26
		c5.48,0.5,11.03,0.11,16.54,0.12c12.74,0.01,12.63,0.01,12.09-12.65c-0.12-2.95-0.98-3.8-3.88-3.73
		c-8.78,0.17-17.58-0.05-26.36,0.11c-3.08,0.06-4.5-0.69-4.29-4.05c0.26-4.07,0.22-8.18,0.02-12.26
		C380.92,137.78,382.08,136.7,385.3,136.8z"/>
	<path d="M628.69,372.93c-24.44,0.14-43.87,19.68-43.93,44.15c-0.06,24.29,19.65,43.98,44.04,43.99
		c24.49,0.01,44.19-19.49,44.24-43.8C673.09,392.57,653.31,372.78,628.69,372.93z M628.78,444.95
		c-15.5-0.06-27.95-12.55-27.93-28.03c0.02-15.43,12.61-27.84,28.15-27.79c15.5,0.05,28.01,12.59,27.98,28
		C656.94,432.52,644.28,445,628.78,444.95z"/>
	<path d="M385.3,136.8c6.95,0.21,13.9,0.06,20.85,0.06c12.2,0,12.04,0.01,11.9-12.22c-0.04-3.6-1.22-4.42-4.56-4.34
		c-8.17,0.21-16.35,0.07-24.51,0.07c-7.77,0-15.56,0.32-23.3-0.11c-4.97-0.27-6.57,1.03-6.51,6.25c0.29,22.07,0.05,44.15,0.18,66.22
		c0.04,5.44-2.47,12.8,1.08,15.82c3.73,3.17,10.96,0.63,16.63,1.01c3.32,0.22,4.19-0.91,4.11-4.1c-0.2-8.59,0.15-17.18-0.17-25.76
		c-0.17-4.56,0.72-6.74,5.93-6.26c5.48,0.5,11.03,0.11,16.54,0.12c12.74,0.01,12.63,0.01,12.09-12.65c-0.12-2.95-0.98-3.8-3.88-3.73
		c-8.78,0.17-17.58-0.05-26.36,0.11c-3.08,0.06-4.5-0.69-4.29-4.05c0.26-4.07,0.22-8.18,0.02-12.26
		C380.92,137.78,382.08,136.7,385.3,136.8z M489.37,192.44c-8.99,0.25-18.01-0.21-26.98,0.2c-5.04,0.23-6.56-1.19-6.47-6.35
		c0.29-20.03,0.01-40.06,0.2-60.11c0.04-4.16-0.38-6.57-5.48-5.9c-3.82,0.52-7.79,0.38-11.63,0.02c-3.88-0.36-4.89,1.06-4.84,4.78
		c0.18,13.29,0.07,26.58,0.07,39.87c-0.01,0-0.01,0-0.02,0c0,13.29,0.14,26.58-0.09,39.87c-0.06,3.77,1.01,4.9,4.83,4.84
		c14.31-0.22,28.62-0.09,42.93-0.1c12.48-0.01,12.27-0.01,12.34-12.47C494.24,193.12,492.97,192.34,489.37,192.44z M569.58,120.39
		c-7.49,0-13.94,0.17-20.38-0.07c-3.13-0.11-4.72,0.96-5.93,3.86c-4.13,9.75-8.49,19.43-12.92,29.05c-0.66,1.45-0.41,3.77-2.67,4.15
		c-5.01-11.03-10-21.96-14.95-32.92c-1.01-2.26-1.72-4.3-5.06-4.15c-6.91,0.29-13.84,0.09-21.75,0.09
		c6.29,10.92,11.21,21.35,17.83,30.56c10.54,14.68,14.14,30.52,12.6,48.28c-0.88,10.18-0.16,10.26,10.1,10.28
		c11.59,0.02,12.48-0.06,11.39-11.24c-1.78-18.16,2.75-33.87,13.66-48.45C558.15,140.93,563.22,130.87,569.58,120.39z
		 M638.67,196.69c-0.11-2.89-0.84-3.97-3.81-3.88c-6.55,0.17-13.1,0.18-19.65,0c-5.23-0.16-12.42,2.36-15.18-1.14
		c-2.62-3.3-0.56-10.18-0.91-15.48c-0.23-3.6,1.19-4.43,4.53-4.35c8.81,0.21,17.61-0.2,26.41,0.16c5.87,0.25,4.72-4,3.98-6.5
		c-1.02-3.45,4.37-9.76-4.03-10.23c-0.81-0.05-1.63,0-2.46,0h-14.73c-14.3,0-14.14,0-13.74-14.21c0.11-3.78,1.63-4.32,4.79-4.25
		c6.95,0.16,13.92,0.05,20.88,0.05c12.15,0,12.05,0,11.78-12.34c-0.06-3.03-0.64-4.25-4.03-4.21c-16.99,0.17-33.97,0.17-50.96,0
		c-3.56-0.04-4.41,1.11-4.37,4.48c0.17,13.51,0.07,27.02,0.07,40.53c0,12.88,0.27,25.79-0.13,38.68c-0.16,4.9,1.52,5.71,5.88,5.64
		c14.53-0.26,29.06-0.12,43.59-0.12C639.27,209.5,639.17,209.51,638.67,196.69z M710.91,267.86H366.5
		c-9.76,0-11.74,1.99-11.74,11.89c0,138.96,0,277.9,0.01,416.86c0,9.53,1.85,11.37,11.57,11.37c115.01,0,230.02-0.01,345.01-0.01
		c10.22,0,12.15-1.95,12.15-12.12V280.23C723.5,269.78,721.54,267.86,710.91,267.86z M377.34,283.78
		c107.65,0.2,215.3,0.15,322.94,0.16c7.15,0,7.15,0.01,7.15,7.15v303.24c-9.05-7.86-17.16-14.86-25.24-21.9
		c-22.83-19.85-45.66-39.73-68.51-59.58c-7.15-6.21-9.42-6.21-16.83-0.07c-7.09,5.87-14.32,11.56-21.17,17.7
		c-3.37,3.02-5.31,3.27-8.73-0.22c-21.25-21.58-42.78-42.88-64.22-64.28c-7.76-7.75-10.5-7.75-17.99,0.43
		c-35.89,39.25-71.75,78.53-107.63,117.81c-1.74,1.92-3.52,3.81-6.26,6.76v-13.17c0-95.77,0.05-191.55-0.12-287.34
		C370.71,285.14,371.87,283.76,377.34,283.78z M701.36,691.95c-54.03-0.15-108.06-0.1-162.08-0.09c-54.03,0-108.06-0.07-162.07,0.11
		c-4.89,0.01-6.58-0.87-6.5-6.23c0.34-21.89,0.21-43.78,0.07-65.68c-0.02-3.5,0.95-6.03,3.37-8.67
		c38.69-42.21,77.29-84.52,115.81-126.91c2.98-3.29,4.61-4.07,8.22-0.38c21.24,21.6,42.78,42.89,64.22,64.28
		c6.34,6.33,9.21,6.42,16.13,0.65c7.86-6.55,15.79-12.99,23.56-19.65c2.16-1.84,3.44-2.32,5.94-0.14
		c31.99,28.03,64.11,55.91,96.28,83.74c2.4,2.08,3.22,4.25,3.21,7.37c-0.14,21.9-0.26,43.8,0.06,65.68
		C707.64,691.14,705.92,691.97,701.36,691.95z M724.45,206.19c-2.57-8.18-4.86-16.43-7.49-24.59c-1.87-5.8-5.12-10.67-11.2-13.84
		c9.53-6.09,13.25-9.94,15.08-15.34c4.61-13.55-3.19-26.81-18.37-30.59c-15.14-3.77-30.47-2-45.77-0.87
		c-4.09,0.31-3.49,3.08-3.49,5.69c0.01,22.1-0.01,44.18,0.02,66.27c0.01,5.28-1.79,12.34,0.88,15.4c3.1,3.55,10.35,0.68,15.76,1.26
		c3.72,0.41,5.01-0.72,4.86-4.64c-0.29-8.59,0.11-17.18-0.18-25.77c-0.14-3.88,1.17-4.78,4.86-4.74
		c10.13,0.11,14.01,2.79,16.83,12.52c1.81,6.26,3.52,12.56,5.42,18.82c0.56,1.9,1.18,3.88,3.98,3.81
		c5.53-0.12,11.05-0.09,16.57,0.01C724.95,209.63,725.17,208.49,724.45,206.19z M690.32,158.89c-4.61,1.44-9.94,2.16-13.78,0.44
		c-4.75-2.12-0.29-8.08-1.9-11.13c0-1.58-0.21-2.31,0.04-2.79c1.71-3.33-3.97-9.56,4.08-10.38c12.39-1.26,19.81,1.94,21.33,9.26
		C701.51,151.16,697.82,156.55,690.32,158.89z M755.45,805.35c-0.32-4.21-2.78-6.69-7.01-7.16c-1.83-0.2-3.68-0.15-5.51-0.15H538.57
		c-68.53-0.01-137.07-0.01-205.59,0c-8.39,0-12.09,2.38-12.21,7.77c-0.12,5.67,3.82,8.33,12.36,8.34h410.56
		c1.84,0,3.73,0.09,5.49-0.33C753.55,812.8,755.81,809.87,755.45,805.35z M749.06,887.06c-1.56-0.38-3.25-0.18-4.9-0.18
		c-137.05,0-274.11,0-411.17,0.01c-8.28,0-12.04,2.42-12.21,7.8c-0.18,5.63,3.73,8.25,12.36,8.25H538.1
		c68.13,0,136.24,0.01,204.36,0c2.05,0,4.13,0.16,6.13-0.14c4.16-0.6,6.63-3.14,6.89-7.34
		C755.77,890.95,753.35,888.11,749.06,887.06z M749.6,753.97c-2.33-0.58-4.86-0.54-7.31-0.54c-136.12-0.02-272.24-0.02-408.36-0.02
		c-1.63,0-3.29-0.11-4.91,0.05c-5.06,0.49-8.25,3.71-8.25,8.19c0.01,4.48,3.23,7.57,8.38,7.88c2.04,0.12,4.09,0.04,6.14,0.04h203.27
		v0.06c66.73,0,133.46,0,200.2-0.01c3.27,0,6.57,0.2,9.81-0.18c4.14-0.49,6.63-3.03,6.93-7.31
		C755.76,757.85,753.69,754.97,749.6,753.97z M747.9,842.57c-2.44-0.18-4.9-0.07-7.36-0.07H538.03c-68.32,0-136.65,0-204.96,0.01
		c-8.43,0-12.07,2.3-12.29,7.69c-0.21,5.56,3.88,8.35,12.32,8.35h410.55c1.44,0,2.87,0.1,4.3-0.05c4.63-0.45,7.57-3.62,7.57-8.03
		C755.52,846.01,752.63,842.94,747.9,842.57z"/>
	<path d="M628.69,372.93c-24.44,0.14-43.87,19.68-43.93,44.15c-0.06,24.29,19.65,43.98,44.04,43.99
		c24.49,0.01,44.19-19.49,44.24-43.8C673.09,392.57,653.31,372.78,628.69,372.93z M628.78,444.95
		c-15.5-0.06-27.95-12.55-27.93-28.03c0.02-15.43,12.61-27.84,28.15-27.79c15.5,0.05,28.01,12.59,27.98,28
		C656.94,432.52,644.28,445,628.78,444.95z"/>
	<path d="M710.91,267.86H366.5c-9.76,0-11.74,1.99-11.74,11.89c0,138.96,0,277.9,0.01,416.86c0,9.53,1.85,11.37,11.57,11.37
		c115.01,0,230.02-0.01,345.01-0.01c10.22,0,12.15-1.95,12.15-12.12V280.23C723.5,269.78,721.54,267.86,710.91,267.86z
		 M377.34,283.78c107.65,0.2,215.3,0.15,322.94,0.16c7.15,0,7.15,0.01,7.15,7.15v303.24c-9.05-7.86-17.16-14.86-25.24-21.9
		c-22.83-19.85-45.66-39.73-68.51-59.58c-7.15-6.21-9.42-6.21-16.83-0.07c-7.09,5.87-14.32,11.56-21.17,17.7
		c-3.37,3.02-5.31,3.27-8.73-0.22c-21.25-21.58-42.78-42.88-64.22-64.28c-7.76-7.75-10.5-7.75-17.99,0.43
		c-35.89,39.25-71.75,78.53-107.63,117.81c-1.74,1.92-3.52,3.81-6.26,6.76v-13.17c0-95.77,0.05-191.55-0.12-287.34
		C370.71,285.14,371.87,283.76,377.34,283.78z M701.36,691.95c-54.03-0.15-108.06-0.1-162.08-0.09c-54.03,0-108.06-0.07-162.07,0.11
		c-4.89,0.01-6.58-0.87-6.5-6.23c0.34-21.89,0.21-43.78,0.07-65.68c-0.02-3.5,0.95-6.03,3.37-8.67
		c38.69-42.21,77.29-84.52,115.81-126.91c2.98-3.29,4.61-4.07,8.22-0.38c21.24,21.6,42.78,42.89,64.22,64.28
		c6.34,6.33,9.21,6.42,16.13,0.65c7.86-6.55,15.79-12.99,23.56-19.65c2.16-1.84,3.44-2.32,5.94-0.14
		c31.99,28.03,64.11,55.91,96.28,83.74c2.4,2.08,3.22,4.25,3.21,7.37c-0.14,21.9-0.26,43.8,0.06,65.68
		C707.64,691.14,705.92,691.97,701.36,691.95z"/>
	<path d="M755.48,762.12c-0.29,4.27-2.79,6.82-6.93,7.31c-3.24,0.38-6.55,0.18-9.81,0.18c-66.74,0.01-133.47,0.01-200.2,0.01v-0.06
		H335.28c-2.05,0-4.1,0.09-6.14-0.04c-5.15-0.32-8.36-3.4-8.38-7.88c0-4.48,3.19-7.7,8.25-8.19c1.62-0.16,3.28-0.05,4.91-0.05
		c136.12,0,272.24,0,408.36,0.02c2.44,0,4.97-0.04,7.31,0.54C753.69,754.97,755.76,757.85,755.48,762.12z"/>
	<path d="M755.5,850.46c0,4.41-2.94,7.58-7.57,8.03c-1.42,0.15-2.86,0.05-4.3,0.05H333.09c-8.44,0-12.53-2.79-12.32-8.35
		c0.22-5.39,3.87-7.69,12.29-7.69c68.31-0.01,136.64-0.01,204.96-0.01h202.52c2.46,0,4.91-0.11,7.36,0.07
		C752.63,842.94,755.52,846.01,755.5,850.46z"/>
	<path d="M755.48,895.47c-0.26,4.2-2.73,6.74-6.89,7.34c-2,0.29-4.08,0.14-6.13,0.14c-68.12,0.01-136.23,0-204.36,0H333.13
		c-8.62,0-12.54-2.63-12.36-8.25c0.17-5.38,3.93-7.8,12.21-7.8c137.07-0.01,274.12-0.01,411.17-0.01c1.65,0,3.34-0.2,4.9,0.18
		C753.35,888.11,755.77,890.95,755.48,895.47z"/>
	<path d="M749.18,813.83c-1.76,0.42-3.65,0.33-5.49,0.33H333.13c-8.54-0.01-12.48-2.67-12.36-8.34c0.12-5.39,3.82-7.77,12.21-7.77
		c68.52-0.01,137.05-0.01,205.59,0h204.36c1.83,0,3.68-0.05,5.51,0.15c4.24,0.47,6.69,2.95,7.01,7.16
		C755.81,809.87,753.55,812.8,749.18,813.83z"/>
	<path d="M724.45,206.19c-2.57-8.18-4.86-16.43-7.49-24.59c-1.87-5.8-5.12-10.67-11.2-13.84c9.53-6.09,13.25-9.94,15.08-15.34
		c4.61-13.55-3.19-26.81-18.37-30.59c-15.14-3.77-30.47-2-45.77-0.87c-4.09,0.31-3.49,3.08-3.49,5.69
		c0.01,22.1-0.01,44.18,0.02,66.27c0.01,5.28-1.79,12.34,0.88,15.4c3.1,3.55,10.35,0.68,15.76,1.26c3.72,0.41,5.01-0.72,4.86-4.64
		c-0.29-8.59,0.11-17.18-0.18-25.77c-0.14-3.88,1.17-4.78,4.86-4.74c10.13,0.11,14.01,2.79,16.83,12.52
		c1.81,6.26,3.52,12.56,5.42,18.82c0.56,1.9,1.18,3.88,3.98,3.81c5.53-0.12,11.05-0.09,16.57,0.01
		C724.95,209.63,725.17,208.49,724.45,206.19z M690.32,158.89c-4.61,1.44-9.94,2.16-13.78,0.44c-4.75-2.12-0.29-8.08-1.9-11.13
		c0-1.58-0.21-2.31,0.04-2.79c1.71-3.33-3.97-9.56,4.08-10.38c12.39-1.26,19.81,1.94,21.33,9.26
		C701.51,151.16,697.82,156.55,690.32,158.89z"/>
	<path d="M626.58,209.51c-14.53,0-29.06-0.14-43.59,0.12c-4.36,0.07-6.04-0.74-5.88-5.64c0.41-12.88,0.13-25.79,0.13-38.68
		c0-13.51,0.1-27.02-0.07-40.53c-0.04-3.38,0.81-4.52,4.37-4.48c16.99,0.17,33.97,0.17,50.96,0c3.39-0.04,3.97,1.18,4.03,4.21
		c0.27,12.34,0.37,12.34-11.78,12.34c-6.96,0-13.93,0.11-20.88-0.05c-3.16-0.07-4.68,0.47-4.79,4.25
		c-0.39,14.21-0.55,14.21,13.74,14.21h14.73c0.82,0,1.65-0.05,2.46,0c8.4,0.47,3.01,6.78,4.03,10.23c0.74,2.49,1.89,6.74-3.98,6.5
		c-8.79-0.36-17.6,0.05-26.41-0.16c-3.34-0.09-4.77,0.75-4.53,4.35c0.34,5.29-1.71,12.17,0.91,15.48c2.76,3.5,9.95,0.98,15.18,1.14
		c6.55,0.18,13.1,0.17,19.65,0c2.97-0.09,3.7,0.99,3.81,3.88C639.17,209.51,639.27,209.5,626.58,209.51z"/>
	<path d="M381.08,140.99c0.2,4.08,0.23,8.19-0.02,12.26c-0.21,3.37,1.2,4.11,4.29,4.05c8.78-0.16,17.58,0.06,26.36-0.11
		c2.9-0.06,3.76,0.79,3.88,3.73c0.54,12.66,0.65,12.66-12.09,12.65c-5.51-0.01-11.07,0.38-16.54-0.12c-5.21-0.48-6.1,1.71-5.93,6.26
		c0.32,8.57-0.02,17.17,0.17,25.76c0.07,3.19-0.8,4.32-4.11,4.1c-5.67-0.38-12.9,2.16-16.63-1.01c-3.55-3.02-1.04-10.38-1.08-15.82
		c-0.14-22.07,0.11-44.15-0.18-66.22c-0.06-5.22,1.54-6.52,6.51-6.25c7.74,0.43,15.52,0.11,23.3,0.11c8.17,0,16.35,0.14,24.51-0.07
		c3.34-0.09,4.52,0.74,4.56,4.34c0.13,12.23,0.29,12.22-11.9,12.22c-6.95,0-13.9,0.15-20.85-0.06
		C382.08,136.7,380.92,137.78,381.08,140.99z"/>
	<path d="M551.5,149.82c-10.91,14.58-15.44,30.29-13.66,48.45c1.09,11.18,0.21,11.26-11.39,11.24c-10.26-0.02-10.98-0.1-10.1-10.28
		c1.54-17.76-2.06-33.6-12.6-48.28c-6.62-9.21-11.55-19.64-17.83-30.56c7.91,0,14.84,0.21,21.75-0.09c3.34-0.15,4.05,1.89,5.06,4.15
		c4.95,10.96,9.94,21.89,14.95,32.92c2.26-0.38,2-2.7,2.67-4.15c4.43-9.62,8.79-19.29,12.92-29.05c1.22-2.9,2.8-3.97,5.93-3.86
		c6.44,0.25,12.88,0.07,20.38,0.07C563.22,130.87,558.15,140.93,551.5,149.82z"/>
	<path d="M494.22,197.09c-0.07,12.45,0.13,12.45-12.34,12.47c-14.31,0.01-28.62-0.12-42.93,0.1c-3.82,0.06-4.89-1.07-4.83-4.84
		c0.22-13.29,0.09-26.58,0.09-39.87c0.01,0,0.01,0,0.02,0c0-13.29,0.11-26.58-0.07-39.87c-0.05-3.72,0.96-5.13,4.84-4.78
		c3.84,0.36,7.81,0.49,11.63-0.02c5.1-0.68,5.51,1.73,5.48,5.9c-0.18,20.04,0.1,40.08-0.2,60.11c-0.09,5.16,1.44,6.58,6.47,6.35
		c8.98-0.41,17.99,0.05,26.98-0.2C492.97,192.34,494.24,193.12,494.22,197.09z"/>
	<path d="M628.69,372.93c-24.44,0.14-43.87,19.68-43.93,44.15c-0.06,24.29,19.65,43.98,44.04,43.99
		c24.49,0.01,44.19-19.49,44.24-43.8C673.09,392.57,653.31,372.78,628.69,372.93z M628.78,444.95
		c-15.5-0.06-27.95-12.55-27.93-28.03c0.02-15.43,12.61-27.84,28.15-27.79c15.5,0.05,28.01,12.59,27.98,28
		C656.94,432.52,644.28,445,628.78,444.95z"/>
	<path d="M628.69,372.93c-24.44,0.14-43.87,19.68-43.93,44.15c-0.06,24.29,19.65,43.98,44.04,43.99
		c24.49,0.01,44.19-19.49,44.24-43.8C673.09,392.57,653.31,372.78,628.69,372.93z M628.78,444.95
		c-15.5-0.06-27.95-12.55-27.93-28.03c0.02-15.43,12.61-27.84,28.15-27.79c15.5,0.05,28.01,12.59,27.98,28
		C656.94,432.52,644.28,445,628.78,444.95z"/>
</g>
</svg>
