<?xml version="1.0" encoding="utf-8"?>
<!-- Generator: Adobe Illustrator 24.3.0, SVG Export Plug-In . SVG Version: 6.00 Build 0)  -->
<svg version="1.1" id="Layer_1" xmlns="http://www.w3.org/2000/svg" xmlns:xlink="http://www.w3.org/1999/xlink" x="0px" y="0px"
	 viewBox="0 0 1000 1000" style="enable-background:new 0 0 1000 1000;" xml:space="preserve">
<style type="text/css">
	.st0{fill:#010101;}
	.st1{fill:#FEFEFE;}
	.st2{fill:#060606;}
	.st3{fill:#030303;}
	.st4{fill:#020202;}
	.st5{fill:#151515;}
	.st6{fill:#0B0B0B;}
	.st7{fill:#0C0C0C;}
	.st8{fill:#121212;}
	.st9{font-family:'AvenirNextLTPro-Bold';}
	.st10{font-size:74.517px;}
</style>
<g>
	<g>
		<path class="st0" d="M434.6,420.72c-0.46,10.81-6.99,11.02-14.93,11.02c-53.51-0.09-107.01-0.05-160.52,0
			c-8.51,0.02-16.95,0.81-17.16-11.8c-0.21-12.4,7.64-12.56,16.56-12.51c26.75,0.14,53.51,0.05,80.26,0.07
			c26.75,0,53.51,0.21,80.26-0.12C428.69,407.26,435.13,408.76,434.6,420.72z"/>
		<path class="st0" d="M241.53,497.71c0.02-11.87,8.44-10.05,15.5-10.08c54.56-0.09,109.13,0.02,163.67-0.11
			c8.26-0.02,14.56,0.62,14.01,11.55c-0.55,10.93-7.66,10.74-15.37,10.72c-27.74-0.07-55.48-0.02-83.23-0.02
			c-25.9,0.02-51.78-0.07-77.68,0.07C249.65,509.9,241.51,510.22,241.53,497.71z"/>
		<path class="st0" d="M434.86,339.61c-0.28,13.23-8.33,11.87-16.61,11.87c-53.58,0.02-107.15-0.07-160.73,0.11
			c-9.29,0.05-15.76-0.83-15.78-13.02c-0.02-13.5,8.6-11.64,16.75-11.64c27.7-0.07,55.42-0.02,83.14-0.05
			c24.94,0,49.87-0.07,74.81,0.02C425.29,326.96,435.2,324.22,434.86,339.61z"/>
		<path class="st0" d="M241.46,261.49c-0.21-10.51,3.15-15.11,14.19-14.93c28.64,0.46,57.28,0.16,85.92,0.14
			c25.88-0.02,51.74,0.14,77.61-0.11c9.5-0.11,15.69,1.36,15.96,13.25c0.3,12.28-6.21,12.93-15.48,12.88
			c-54.52-0.21-109.04-0.16-163.53-0.07C248.18,272.67,241.67,272.44,241.46,261.49z"/>
		<path class="st0" d="M418.43,720.48c17.87,37.47,34.32,71.91,52.33,109.66c-59.69,0-112.42-0.11-165.12,0.09
			c-9.98,0.05-17.53,0.39-17.37-13.92c0.67-62.45,0.28-124.91,4.92-188.47c25.97,51.3,51.94,102.62,79.34,156.72
			C388.41,762.37,402.56,742.63,418.43,720.48z"/>
		<path class="st0" d="M523.83,855.56c-15.67,18.77-33.56,12.54-52.66,11.73c-55.46-2.32-111.08-0.85-166.64-0.81
			c-48.56,0.02-48.58,0.05-48.58-49.16c0-64.8,0.48-129.63-0.46-194.45c-0.16-11.34,5.64-23.39-7.04-35.45
			c-6.65-6.3,8.37-18.63,14.47-27.19c20.66,12.1,13.07,28.52,11.75,46.12c-2.71,35.91-0.74,72.16-0.71,108.28
			c0.02,37.04,0.55,74.09-0.3,111.11c-0.32,14.06,3.15,19.44,18.31,19.23c60.18-0.78,120.45,1.2,180.53-1.2
			C491.19,843.02,508.08,838.97,523.83,855.56z"/>
		<path class="st0" d="M561.05,503.92c-7.13,2.71-11.96-3.63-17.09-6.67c-53.87-32-76.88-96.18-57.79-163.37
			c7.15,2.51,12.21,4.76,17.51,6.03c21.14,5.04,31.22,13.66,27.54,39.66c-4.07,28.85,12.21,52.95,35.98,70.81
			C578.05,458.51,573.25,499.3,561.05,503.92z"/>
		<path class="st0" d="M655.32,268.13c-4.97,16.47-9.32,27.67-33.47,23.44c-30.71-5.36-56.52,11.62-76.03,36.25
			c-8.58,10.86-47.71,6.79-53.12-5.52c-2.65-6,2.42-10.05,4.95-14.56c31.56-56.59,101.15-82.28,163.65-60.52
			C662.64,255.14,657.44,261.19,655.32,268.13z"/>
		<path class="st0" d="M727.99,427.48c4.6,2.81,10.08,4.21,17.23,7.11c-28.46,60.89-85.57,91.51-149.36,82.4
			c-18.06-2.58-24.52-7.22-16.65-27.44c7.43-19.05,15.04-26.75,36.83-23.74c25.83,3.59,51.07-6.3,65.56-27.83
			C695.65,417.08,708.92,415.86,727.99,427.48z"/>
		<path class="st0" d="M755.11,693.59c-0.44,13.37-9.8,10.97-17.64,11.02c-26.8,0.18-53.58,0.07-80.35,0.09
			c-26.8,0-53.58,0.02-80.35,0c-8.28,0-17.07,1.66-16.93-11.64c0.12-14.17,10.24-10.35,17.53-10.37c53.58-0.25,107.15-0.23,160.7,0
			C745.57,682.71,755.57,679.49,755.11,693.59z"/>
		<path class="st0" d="M755.16,850.54c0.14,10.74-5.54,11.92-13.8,11.89c-28.62-0.14-57.23-0.05-85.85-0.02
			c-26.75,0.02-53.53-0.14-80.31,0.12c-9.2,0.09-16.08-0.46-15.46-12.91c0.53-11.41,7.61-10.42,15.04-10.42
			c55.37,0,110.76,0.07,166.16-0.07C749.08,839.11,755.02,839.68,755.16,850.54z"/>
		<path class="st0" d="M755.18,612.18c0.16,10.44-5.34,12.26-13.76,12.24c-27.7-0.11-55.37-0.05-83.07-0.05v0.07
			c-27.7,0-55.39-0.18-83.09,0.09c-9.39,0.11-16.15-0.83-15.53-13.07c0.55-10.88,7.13-10.86,14.98-10.86
			c55.37,0.09,110.76,0.09,166.13-0.05C749.08,600.54,755.02,601.55,755.18,612.18z"/>
		<path class="st0" d="M755.2,772.1c0.11,12.56-6.92,12.86-15.87,12.84c-54.4-0.09-108.81-0.07-163.21-0.07
			c-8.4,0-16.33,1.15-16.42-11.98c-0.11-12.51,6.53-12.79,15.69-12.7c27.65,0.28,55.32,0.09,82.97,0.09
			c26.73-0.02,53.48-0.05,80.21,0C746.76,760.3,755.09,758.82,755.2,772.1z"/>
		<path class="st0" d="M757.21,377.52c0,3.7,0.46,7.48-0.09,11.11c-1.73,11.64,1.79,29.97-9.52,32.34
			c-11.52,2.39-25.79-7.25-38.55-12.38c-8.53-3.43-4.46-10.97-3.8-16.98c4.03-36.48-9.34-64.89-38.88-86.38
			c-10.1-7.36-7.71-32.3,4.92-47.57c10.14-12.31,18.1,0.71,24.52,5.06C736,290.13,756.58,328.66,757.21,377.52z"/>
		<path class="st0" d="M863.04,76.58c0.07-21.55-5.27-26.96-26.94-26.87c-223.94,0.9-447.88,0.83-671.8,0.09
			c-20.84-0.07-27.7,4.03-27.49,26.5c1.15,140.67,0.58,281.31,0.58,421.98c0,141.59,0.48,283.15-0.51,424.74
			c-0.14,21.53,5.24,27.24,27.12,27.17c223.02-0.9,446.04-0.97,669.04,0.09c24.13,0.11,30.23-5.27,30.13-29.77
			C862.19,639.21,862.29,357.89,863.04,76.58z M838.02,499.87c-0.02,132.36-0.55,264.73,0.51,397.07
			c0.18,21.9-5.64,27.47-27.42,27.4c-207.33-0.85-414.66-0.81-621.99-0.02c-21.3,0.09-27.74-4.72-27.67-27.1
			c0.83-265.65,0.81-531.29,0.07-796.91c-0.07-21.67,5.22-27.63,27.4-27.54c207.33,0.94,414.66,0.92,621.97,0.07
			c21.72-0.09,27.83,5.08,27.67,27.19C837.46,233.31,838.02,366.59,838.02,499.87z"/>
		<path class="st1" d="M434.6,420.72c-0.46,10.81-6.99,11.02-14.93,11.02c-53.51-0.09-107.01-0.05-160.52,0
			c-8.51,0.02-16.95,0.81-17.16-11.8c-0.21-12.4,7.64-12.56,16.56-12.51c26.75,0.14,53.51,0.05,80.26,0.07
			c26.75,0,53.51,0.21,80.26-0.12C428.69,407.26,435.13,408.76,434.6,420.72z"/>
		<path class="st1" d="M241.53,497.71c0.02-11.87,8.44-10.05,15.5-10.08c54.56-0.09,109.13,0.02,163.67-0.11
			c8.26-0.02,14.56,0.62,14.01,11.55c-0.55,10.93-7.66,10.74-15.37,10.72c-27.74-0.07-55.48-0.02-83.23-0.02
			c-25.9,0.02-51.78-0.07-77.68,0.07C249.65,509.9,241.51,510.22,241.53,497.71z"/>
		<path class="st1" d="M434.86,339.61c-0.28,13.23-8.33,11.87-16.61,11.87c-53.58,0.02-107.15-0.07-160.73,0.11
			c-9.29,0.05-15.76-0.83-15.78-13.02c-0.02-13.5,8.6-11.64,16.75-11.64c27.7-0.07,55.42-0.02,83.14-0.05
			c24.94,0,49.87-0.07,74.81,0.02C425.29,326.96,435.2,324.22,434.86,339.61z"/>
		<path class="st1" d="M241.46,261.49c-0.21-10.51,3.15-15.11,14.19-14.93c28.64,0.46,57.28,0.16,85.92,0.14
			c25.88-0.02,51.74,0.14,77.61-0.11c9.5-0.11,15.69,1.36,15.96,13.25c0.3,12.28-6.21,12.93-15.48,12.88
			c-54.52-0.21-109.04-0.16-163.53-0.07C248.18,272.67,241.67,272.44,241.46,261.49z"/>
		<path class="st1" d="M418.43,720.48c17.87,37.47,34.32,71.91,52.33,109.66c-59.69,0-112.42-0.11-165.12,0.09
			c-9.98,0.05-17.53,0.39-17.37-13.92c0.67-62.45,0.28-124.91,4.92-188.47c25.97,51.3,51.94,102.62,79.34,156.72
			C388.41,762.37,402.56,742.63,418.43,720.48z"/>
		<path class="st1" d="M523.83,855.56c-15.67,18.77-33.56,12.54-52.66,11.73c-55.46-2.32-111.08-0.85-166.64-0.81
			c-48.56,0.02-48.58,0.05-48.58-49.16c0-64.8,0.48-129.63-0.46-194.45c-0.16-11.34,5.64-23.39-7.04-35.45
			c-6.65-6.3,8.37-18.63,14.47-27.19c20.66,12.1,13.07,28.52,11.75,46.12c-2.71,35.91-0.74,72.16-0.71,108.28
			c0.02,37.04,0.55,74.09-0.3,111.11c-0.32,14.06,3.15,19.44,18.31,19.23c60.18-0.78,120.45,1.2,180.53-1.2
			C491.19,843.02,508.08,838.97,523.83,855.56z"/>
		<path class="st1" d="M561.05,503.92c-7.13,2.71-11.96-3.63-17.09-6.67c-53.87-32-76.88-96.18-57.79-163.37
			c7.15,2.51,12.21,4.76,17.51,6.03c21.14,5.04,31.22,13.66,27.54,39.66c-4.07,28.85,12.21,52.95,35.98,70.81
			C578.05,458.51,573.25,499.3,561.05,503.92z"/>
		<path class="st1" d="M655.32,268.13c-4.97,16.47-9.32,27.67-33.47,23.44c-30.71-5.36-56.52,11.62-76.03,36.25
			c-8.58,10.86-47.71,6.79-53.12-5.52c-2.65-6,2.42-10.05,4.95-14.56c31.56-56.59,101.15-82.28,163.65-60.52
			C662.64,255.14,657.44,261.19,655.32,268.13z"/>
		<path class="st1" d="M727.99,427.48c4.6,2.81,10.08,4.21,17.23,7.11c-28.46,60.89-85.57,91.51-149.36,82.4
			c-18.06-2.58-24.52-7.22-16.65-27.44c7.43-19.05,15.04-26.75,36.83-23.74c25.83,3.59,51.07-6.3,65.56-27.83
			C695.65,417.08,708.92,415.86,727.99,427.48z"/>
		<path class="st1" d="M755.11,693.59c-0.44,13.37-9.8,10.97-17.64,11.02c-26.8,0.18-53.58,0.07-80.35,0.09
			c-26.8,0-53.58,0.02-80.35,0c-8.28,0-17.07,1.66-16.93-11.64c0.12-14.17,10.24-10.35,17.53-10.37c53.58-0.25,107.15-0.23,160.7,0
			C745.57,682.71,755.57,679.49,755.11,693.59z"/>
		<path class="st1" d="M755.16,850.54c0.14,10.74-5.54,11.92-13.8,11.89c-28.62-0.14-57.23-0.05-85.85-0.02
			c-26.75,0.02-53.53-0.14-80.31,0.12c-9.2,0.09-16.08-0.46-15.46-12.91c0.53-11.41,7.61-10.42,15.04-10.42
			c55.37,0,110.76,0.07,166.16-0.07C749.08,839.11,755.02,839.68,755.16,850.54z"/>
		<path class="st1" d="M755.18,612.18c0.16,10.44-5.34,12.26-13.76,12.24c-27.7-0.11-55.37-0.05-83.07-0.05v0.07
			c-27.7,0-55.39-0.18-83.09,0.09c-9.39,0.11-16.15-0.83-15.53-13.07c0.55-10.88,7.13-10.86,14.98-10.86
			c55.37,0.09,110.76,0.09,166.13-0.05C749.08,600.54,755.02,601.55,755.18,612.18z"/>
		<path class="st1" d="M755.2,772.1c0.11,12.56-6.92,12.86-15.87,12.84c-54.4-0.09-108.81-0.07-163.21-0.07
			c-8.4,0-16.33,1.15-16.42-11.98c-0.11-12.51,6.53-12.79,15.69-12.7c27.65,0.28,55.32,0.09,82.97,0.09
			c26.73-0.02,53.48-0.05,80.21,0C746.76,760.3,755.09,758.82,755.2,772.1z"/>
		<path class="st1" d="M757.11,388.63c-1.73,11.64,1.79,29.97-9.52,32.34c-11.52,2.39-25.79-7.25-38.55-12.38
			c-8.53-3.43-4.46-10.97-3.8-16.98c4.03-36.48-9.34-64.89-38.88-86.38c-10.1-7.36-7.71-32.3,4.92-47.57
			c10.14-12.31,18.1,0.71,24.52,5.06c40.19,27.4,60.78,65.93,61.4,114.79C757.21,381.22,757.67,384.99,757.11,388.63z"/>
		<path class="st0" d="M470.76,830.14c-59.69,0-112.42-0.11-165.12,0.09c-9.98,0.05-17.53,0.39-17.37-13.92
			c0.67-62.45,0.28-124.91,4.92-188.47c25.97,51.3,51.94,102.62,79.34,156.72c15.87-22.2,30.02-41.94,45.89-64.09
			C436.3,757.95,452.75,792.39,470.76,830.14z"/>
		<path class="st2" d="M523.83,855.56c-15.67,18.77-33.56,12.54-52.66,11.73c-55.46-2.32-111.08-0.85-166.64-0.81
			c-48.56,0.02-48.58,0.05-48.58-49.16c0-64.8,0.48-129.63-0.46-194.45c-0.16-11.34,5.64-23.39-7.04-35.45
			c-6.65-6.3,8.37-18.63,14.47-27.19c20.66,12.1,13.07,28.52,11.75,46.12c-2.71,35.91-0.74,72.16-0.71,108.28
			c0.02,37.04,0.55,74.09-0.3,111.11c-0.32,14.06,3.15,19.44,18.31,19.23c60.18-0.78,120.45,1.2,180.53-1.2
			C491.19,843.02,508.08,838.97,523.83,855.56z"/>
		<path class="st3" d="M745.22,434.59c-28.46,60.89-85.57,91.51-149.36,82.4c-18.06-2.58-24.52-7.22-16.65-27.44
			c7.43-19.05,15.04-26.75,36.83-23.74c25.83,3.59,51.07-6.3,65.56-27.83c14.06-20.89,27.33-22.11,46.4-10.49
			C732.59,430.29,738.07,431.69,745.22,434.59z"/>
		<path class="st4" d="M757.11,388.63c-1.73,11.64,1.79,29.97-9.52,32.34c-11.52,2.39-25.79-7.25-38.55-12.38
			c-8.53-3.43-4.46-10.97-3.8-16.98c4.03-36.48-9.34-64.89-38.88-86.38c-10.1-7.36-7.71-32.3,4.92-47.57
			c10.14-12.31,18.1,0.71,24.52,5.06c40.19,27.4,60.78,65.93,61.4,114.79C757.21,381.22,757.67,384.99,757.11,388.63z"/>
		<path class="st3" d="M655.32,268.13c-4.97,16.47-9.32,27.67-33.47,23.44c-30.71-5.36-56.52,11.62-76.03,36.25
			c-8.58,10.86-47.71,6.79-53.12-5.52c-2.65-6,2.42-10.05,4.95-14.56c31.56-56.59,101.15-82.28,163.65-60.52
			C662.64,255.14,657.44,261.19,655.32,268.13z"/>
		<path class="st3" d="M561.05,503.92c-7.13,2.71-11.96-3.63-17.09-6.67c-53.87-32-76.88-96.18-57.79-163.37
			c7.15,2.51,12.21,4.76,17.51,6.03c21.14,5.04,31.22,13.66,27.54,39.66c-4.07,28.85,12.21,52.95,35.98,70.81
			C578.05,458.51,573.25,499.3,561.05,503.92z"/>
		<path class="st5" d="M435.15,259.83c0.3,12.28-6.21,12.93-15.48,12.88c-54.52-0.21-109.04-0.16-163.53-0.07
			c-7.96,0.02-14.47-0.21-14.68-11.16c-0.21-10.51,3.15-15.11,14.19-14.93c28.64,0.46,57.28,0.16,85.92,0.14
			c25.88-0.02,51.74,0.14,77.61-0.11C428.69,246.47,434.88,247.94,435.15,259.83z"/>
		<path d="M434.6,420.72c-0.46,10.81-6.99,11.02-14.93,11.02c-53.51-0.09-107.01-0.05-160.52,0c-8.51,0.02-16.95,0.81-17.16-11.8
			c-0.21-12.4,7.64-12.56,16.56-12.51c26.75,0.14,53.51,0.05,80.26,0.07c26.75,0,53.51,0.21,80.26-0.12
			C428.69,407.26,435.13,408.76,434.6,420.72z"/>
		<path class="st6" d="M755.18,612.18c0.16,10.44-5.34,12.26-13.76,12.24c-27.7-0.11-55.37-0.05-83.07-0.05v0.07
			c-27.7,0-55.39-0.18-83.09,0.09c-9.39,0.11-16.15-0.83-15.53-13.07c0.55-10.88,7.13-10.86,14.98-10.86
			c55.37,0.09,110.76,0.09,166.13-0.05C749.08,600.54,755.02,601.55,755.18,612.18z"/>
		<path class="st7" d="M755.11,693.59c-0.44,13.37-9.8,10.97-17.64,11.02c-26.8,0.18-53.58,0.07-80.35,0.09
			c-26.8,0-53.58,0.02-80.35,0c-8.28,0-17.07,1.66-16.93-11.64c0.12-14.17,10.24-10.35,17.53-10.37c53.58-0.25,107.15-0.23,160.7,0
			C745.57,682.71,755.57,679.49,755.11,693.59z"/>
		<path class="st4" d="M755.2,772.1c0.11,12.56-6.92,12.86-15.87,12.84c-54.4-0.09-108.81-0.07-163.21-0.07
			c-8.4,0-16.33,1.15-16.42-11.98c-0.11-12.51,6.53-12.79,15.69-12.7c27.65,0.28,55.32,0.09,82.97,0.09
			c26.73-0.02,53.48-0.05,80.21,0C746.76,760.3,755.09,758.82,755.2,772.1z"/>
		<path class="st2" d="M755.16,850.54c0.14,10.74-5.54,11.92-13.8,11.89c-28.62-0.14-57.23-0.05-85.85-0.02
			c-26.75,0.02-53.53-0.14-80.31,0.12c-9.2,0.09-16.08-0.46-15.46-12.91c0.53-11.41,7.61-10.42,15.04-10.42
			c55.37,0,110.76,0.07,166.16-0.07C749.08,839.11,755.02,839.68,755.16,850.54z"/>
		<path class="st8" d="M434.72,499.07c-0.55,10.93-7.66,10.74-15.37,10.72c-27.74-0.07-55.48-0.02-83.23-0.02
			c-25.9,0.02-51.78-0.07-77.68,0.07c-8.79,0.07-16.93,0.39-16.91-12.12c0.02-11.87,8.44-10.05,15.5-10.08
			c54.56-0.09,109.13,0.02,163.67-0.11C428.97,487.5,435.27,488.14,434.72,499.07z"/>
		<path class="st0" d="M434.86,339.61c-0.28,13.23-8.33,11.87-16.61,11.87c-53.58,0.02-107.15-0.07-160.73,0.11
			c-9.29,0.05-15.76-0.83-15.78-13.02c-0.02-13.5,8.6-11.64,16.75-11.64c27.7-0.07,55.42-0.02,83.14-0.05
			c24.94,0,49.87-0.07,74.81,0.02C425.29,326.96,435.2,324.22,434.86,339.61z"/>
	</g>
	<text transform="matrix(1 0 0 1 212.9263 171.6367)" class="st9 st10">INFOGRAPHICS</text>
</g>
</svg>
