<?xml version="1.0" encoding="utf-8"?>
<!-- Generator: Adobe Illustrator 24.3.0, SVG Export Plug-In . SVG Version: 6.00 Build 0)  -->
<svg version="1.1" id="Layer_1" xmlns="http://www.w3.org/2000/svg" xmlns:xlink="http://www.w3.org/1999/xlink" x="0px" y="0px"
	 viewBox="0 0 1000 1000" style="enable-background:new 0 0 1000 1000;" xml:space="preserve">
<g>

	<path d="M570.29,805.85c0.14-29.1-19.05-52.31-46.35-57.08c-11.48-2.01-21.84,3.94-32.37,4.63c-10.66,0.67-21.48-6.87-33.48-4.81
		c-37.23,6.39-58.09,46.25-41.27,80.42c14.3,29.02,38.92,48.39,65.04,65.9c6.11,4.08,13.12,3.41,19.33-0.83
		c21.69-14.8,41.81-31.34,56.77-53.26C565.28,830.08,570.82,818.56,570.29,805.85z M532.74,814.65
		c-9.21,16.86-23.68,28.98-38.23,40.97c-2.93,2.41-4.97,2.18-7.66-0.06c-14.49-12.04-29.26-23.91-38.11-41.02
		c-7.21-13.93,2.43-31.41,16.67-31.16c5.09-0.16,8.93,2.59,12.56,5.61c8.54,7.09,17.15,7.03,25.47-0.02
		c7.95-6.71,15.92-7.96,24.21-1.08C535.31,794.29,537.73,805.56,532.74,814.65z M570.29,805.85c0.14-29.1-19.05-52.31-46.35-57.08
		c-11.48-2.01-21.84,3.94-32.37,4.63c-10.66,0.67-21.48-6.87-33.48-4.81c-37.23,6.39-58.09,46.25-41.27,80.42
		c14.3,29.02,38.92,48.39,65.04,65.9c6.11,4.08,13.12,3.41,19.33-0.83c21.69-14.8,41.81-31.34,56.77-53.26
		C565.28,830.08,570.82,818.56,570.29,805.85z M532.74,814.65c-9.21,16.86-23.68,28.98-38.23,40.97c-2.93,2.41-4.97,2.18-7.66-0.06
		c-14.49-12.04-29.26-23.91-38.11-41.02c-7.21-13.93,2.43-31.41,16.67-31.16c5.09-0.16,8.93,2.59,12.56,5.61
		c8.54,7.09,17.15,7.03,25.47-0.02c7.95-6.71,15.92-7.96,24.21-1.08C535.31,794.29,537.73,805.56,532.74,814.65z M248.11,464.49
		c0-16.7,0.16-33.38-0.06-50.09c-0.16-12.26-6.75-19.78-16.89-20.07c-10.5-0.28-17.67,7.6-17.74,20.5
		c-0.17,33.37-0.19,66.75,0.02,100.14c0.08,12.31,6.78,19.82,16.87,20.07c10.52,0.25,17.6-7.66,17.76-20.49
		C248.26,497.88,248.11,481.18,248.11,464.49z M371.33,416.72c-0.02-14.08-6.42-22.21-17.31-22.34
		c-10.87-0.11-17.62,8.04-17.84,22.06c-0.19,12.74-0.05,25.5-0.05,38.25c-0.87,0.16-1.76,0.3-2.65,0.45
		c-9.69-14.52-19.41-29.02-29.09-43.56c-6.17-9.25-11.62-20.63-25.64-16.39c-14.46,4.36-13.13,17.06-12.99,28.77
		c0.14,13.71,0.03,27.43,0.03,41.14c0,17.15-0.28,34.3,0.12,51.44c0.26,10.98,7.73,18.41,17.39,18.55c9.63,0.14,17-7.18,17.9-18.18
		c0.37-4.69,0.11-9.43,0.11-14.15V474.4c13.43,16.12,24.38,32.37,35.13,48.76c5.33,8.09,11.61,14.01,22.17,10.95
		c10.5-3.02,12.88-11.01,12.82-20.95C371.22,481.02,371.39,448.87,371.33,416.72z M482.24,395.22c-9.8-3.3-18.82,2.27-23.04,14.61
		c-5.53,16.14-10.81,32.36-16.2,48.54c-0.75-0.02-1.48-0.03-2.23-0.05c-5.56-16.54-10.92-33.15-16.76-49.59
		c-4.14-11.67-12.99-16.68-22.5-13.54c-10.25,3.4-14.49,12.87-10.48,25.1c10.87,33.28,22.11,66.44,33.04,99.7
		c2.99,9.08,8.44,15.27,18.35,14.92c9.18-0.31,14.24-6.17,17.07-14.88c10.86-33.31,22.21-66.46,33.14-99.75
		C496.65,408.05,492.47,398.66,482.24,395.22z M547.1,415.47c-0.05-13.18-6.65-21.02-17.12-21.12
		c-10.53-0.12-17.34,7.73-17.49,20.75c-0.19,16.68-0.05,33.37-0.05,50.05c0,16.26-0.12,32.53,0.05,48.78
		c0.12,13.16,6.65,21,17.11,21.11c10.48,0.12,17.45-7.74,17.51-20.72C547.28,481.37,547.24,448.42,547.1,415.47z M570.29,805.85
		c0.14-29.1-19.05-52.31-46.35-57.08c-11.48-2.01-21.84,3.94-32.37,4.63c-10.66,0.67-21.48-6.87-33.48-4.81
		c-37.23,6.39-58.09,46.25-41.27,80.42c14.3,29.02,38.92,48.39,65.04,65.9c6.11,4.08,13.12,3.41,19.33-0.83
		c21.69-14.8,41.81-31.34,56.77-53.26C565.28,830.08,570.82,818.56,570.29,805.85z M532.74,814.65
		c-9.21,16.86-23.68,28.98-38.23,40.97c-2.93,2.41-4.97,2.18-7.66-0.06c-14.49-12.04-29.26-23.91-38.11-41.02
		c-7.21-13.93,2.43-31.41,16.67-31.16c5.09-0.16,8.93,2.59,12.56,5.61c8.54,7.09,17.15,7.03,25.47-0.02
		c7.95-6.71,15.92-7.96,24.21-1.08C535.31,794.29,537.73,805.56,532.74,814.65z M654.85,394.66c-24.89-0.59-49.8-0.7-74.68,0.12
		c-9.04,0.31-14.69,7.32-15.05,16.51c-0.34,9.21,4.75,15.5,13.83,17.6c4.11,0.95,8.55,1.03,12.77,0.7c6.53-0.5,9.13,1.43,8.8,8.54
		c-0.59,12.85-0.17,25.75-0.16,38.63c0,12.45-0.11,24.89,0.03,37.34c0.16,12.99,6.89,20.95,17.4,20.95c10.5,0,17.21-7.8,17.37-21.08
		c0.23-20.61,0.02-41.22,0.11-61.83c0.03-6.82-1.68-14.83,1.28-20.14c3.19-5.73,11.81-1.31,17.95-2.46
		c9.5-1.81,15.66-8.46,15.75-17.45C670.36,403.12,664.16,394.89,654.85,394.66z M733.02,482.1c8.12,0.48,16.31,0.34,24.46,0.02
		c11.36-0.47,18.35-7.23,18.43-17.2c0.08-10.05-6.73-16.92-18.15-17.53c-8.55-0.45-17.18-0.53-25.74,0
		c-7.01,0.44-8.88-2.26-8.74-8.93c0.12-6.22,1.12-9.58,8.46-8.91c7.23,0.67,14.58,0.23,21.87,0.12
		c14.35-0.22,22.15-6.42,22.29-17.53c0.12-11.12-7.84-17.71-21.89-17.82c-14.6-0.11-29.19-0.11-43.79,0.02
		c-15.73,0.12-21.84,6.12-21.93,21.59c-0.12,16.31-0.03,32.62-0.03,48.93c0.02,17.17-0.2,34.35,0.09,51.5
		c0.19,11.33,5.94,18.18,17.04,18.65c17.56,0.75,35.19,0.7,52.78,0.08c11.15-0.39,17.98-8.18,17.73-18.09
		c-0.23-9.8-7.52-16.62-18.73-17.03c-8.15-0.3-16.33-0.47-24.46,0.06c-6.93,0.45-9.63-1.28-9.55-8.94
		C723.25,483.39,726.13,481.68,733.02,482.1z M570.29,805.85c0.14-29.1-19.05-52.31-46.35-57.08c-11.48-2.01-21.84,3.94-32.37,4.63
		c-10.66,0.67-21.48-6.87-33.48-4.81c-37.23,6.39-58.09,46.25-41.27,80.42c14.3,29.02,38.92,48.39,65.04,65.9
		c6.11,4.08,13.12,3.41,19.33-0.83c21.69-14.8,41.81-31.34,56.77-53.26C565.28,830.08,570.82,818.56,570.29,805.85z M532.74,814.65
		c-9.21,16.86-23.68,28.98-38.23,40.97c-2.93,2.41-4.97,2.18-7.66-0.06c-14.49-12.04-29.26-23.91-38.11-41.02
		c-7.21-13.93,2.43-31.41,16.67-31.16c5.09-0.16,8.93,2.59,12.56,5.61c8.54,7.09,17.15,7.03,25.47-0.02
		c7.95-6.71,15.92-7.96,24.21-1.08C535.31,794.29,537.73,805.56,532.74,814.65z M733.02,482.1c8.12,0.48,16.31,0.34,24.46,0.02
		c11.36-0.47,18.35-7.23,18.43-17.2c0.08-10.05-6.73-16.92-18.15-17.53c-8.55-0.45-17.18-0.53-25.74,0
		c-7.01,0.44-8.88-2.26-8.74-8.93c0.12-6.22,1.12-9.58,8.46-8.91c7.23,0.67,14.58,0.23,21.87,0.12
		c14.35-0.22,22.15-6.42,22.29-17.53c0.12-11.12-7.84-17.71-21.89-17.82c-14.6-0.11-29.19-0.11-43.79,0.02
		c-15.73,0.12-21.84,6.12-21.93,21.59c-0.12,16.31-0.03,32.62-0.03,48.93c0.02,17.17-0.2,34.35,0.09,51.5
		c0.19,11.33,5.94,18.18,17.04,18.65c17.56,0.75,35.19,0.7,52.78,0.08c11.15-0.39,17.98-8.18,17.73-18.09
		c-0.23-9.8-7.52-16.62-18.73-17.03c-8.15-0.3-16.33-0.47-24.46,0.06c-6.93,0.45-9.63-1.28-9.55-8.94
		C723.25,483.39,726.13,481.68,733.02,482.1z M654.85,394.66c-24.89-0.59-49.8-0.7-74.68,0.12c-9.04,0.31-14.69,7.32-15.05,16.51
		c-0.34,9.21,4.75,15.5,13.83,17.6c4.11,0.95,8.55,1.03,12.77,0.7c6.53-0.5,9.13,1.43,8.8,8.54c-0.59,12.85-0.17,25.75-0.16,38.63
		c0,12.45-0.11,24.89,0.03,37.34c0.16,12.99,6.89,20.95,17.4,20.95c10.5,0,17.21-7.8,17.37-21.08c0.23-20.61,0.02-41.22,0.11-61.83
		c0.03-6.82-1.68-14.83,1.28-20.14c3.19-5.73,11.81-1.31,17.95-2.46c9.5-1.81,15.66-8.46,15.75-17.45
		C670.36,403.12,664.16,394.89,654.85,394.66z M547.1,415.47c-0.05-13.18-6.65-21.02-17.12-21.12
		c-10.53-0.12-17.34,7.73-17.49,20.75c-0.19,16.68-0.05,33.37-0.05,50.05c0,16.26-0.12,32.53,0.05,48.78
		c0.12,13.16,6.65,21,17.11,21.11c10.48,0.12,17.45-7.74,17.51-20.72C547.28,481.37,547.24,448.42,547.1,415.47z M482.24,395.22
		c-9.8-3.3-18.82,2.27-23.04,14.61c-5.53,16.14-10.81,32.36-16.2,48.54c-0.75-0.02-1.48-0.03-2.23-0.05
		c-5.56-16.54-10.92-33.15-16.76-49.59c-4.14-11.67-12.99-16.68-22.5-13.54c-10.25,3.4-14.49,12.87-10.48,25.1
		c10.87,33.28,22.11,66.44,33.04,99.7c2.99,9.08,8.44,15.27,18.35,14.92c9.18-0.31,14.24-6.17,17.07-14.88
		c10.86-33.31,22.21-66.46,33.14-99.75C496.65,408.05,492.47,398.66,482.24,395.22z M371.33,416.72
		c-0.02-14.08-6.42-22.21-17.31-22.34c-10.87-0.11-17.62,8.04-17.84,22.06c-0.19,12.74-0.05,25.5-0.05,38.25
		c-0.87,0.16-1.76,0.3-2.65,0.45c-9.69-14.52-19.41-29.02-29.09-43.56c-6.17-9.25-11.62-20.63-25.64-16.39
		c-14.46,4.36-13.13,17.06-12.99,28.77c0.14,13.71,0.03,27.43,0.03,41.14c0,17.15-0.28,34.3,0.12,51.44
		c0.26,10.98,7.73,18.41,17.39,18.55c9.63,0.14,17-7.18,17.9-18.18c0.37-4.69,0.11-9.43,0.11-14.15V474.4
		c13.43,16.12,24.38,32.37,35.13,48.76c5.33,8.09,11.61,14.01,22.17,10.95c10.5-3.02,12.88-11.01,12.82-20.95
		C371.22,481.02,371.39,448.87,371.33,416.72z M248.11,464.49c0-16.7,0.16-33.38-0.06-50.09c-0.16-12.26-6.75-19.78-16.89-20.07
		c-10.5-0.28-17.67,7.6-17.74,20.5c-0.17,33.37-0.19,66.75,0.02,100.14c0.08,12.31,6.78,19.82,16.87,20.07
		c10.52,0.25,17.6-7.66,17.76-20.49C248.26,497.88,248.11,481.18,248.11,464.49z M248.11,464.49c0-16.7,0.16-33.38-0.06-50.09
		c-0.16-12.26-6.75-19.78-16.89-20.07c-10.5-0.28-17.67,7.6-17.74,20.5c-0.17,33.37-0.19,66.75,0.02,100.14
		c0.08,12.31,6.78,19.82,16.87,20.07c10.52,0.25,17.6-7.66,17.76-20.49C248.26,497.88,248.11,481.18,248.11,464.49z M371.33,416.72
		c-0.02-14.08-6.42-22.21-17.31-22.34c-10.87-0.11-17.62,8.04-17.84,22.06c-0.19,12.74-0.05,25.5-0.05,38.25
		c-0.87,0.16-1.76,0.3-2.65,0.45c-9.69-14.52-19.41-29.02-29.09-43.56c-6.17-9.25-11.62-20.63-25.64-16.39
		c-14.46,4.36-13.13,17.06-12.99,28.77c0.14,13.71,0.03,27.43,0.03,41.14c0,17.15-0.28,34.3,0.12,51.44
		c0.26,10.98,7.73,18.41,17.39,18.55c9.63,0.14,17-7.18,17.9-18.18c0.37-4.69,0.11-9.43,0.11-14.15V474.4
		c13.43,16.12,24.38,32.37,35.13,48.76c5.33,8.09,11.61,14.01,22.17,10.95c10.5-3.02,12.88-11.01,12.82-20.95
		C371.22,481.02,371.39,448.87,371.33,416.72z M482.24,395.22c-9.8-3.3-18.82,2.27-23.04,14.61c-5.53,16.14-10.81,32.36-16.2,48.54
		c-0.75-0.02-1.48-0.03-2.23-0.05c-5.56-16.54-10.92-33.15-16.76-49.59c-4.14-11.67-12.99-16.68-22.5-13.54
		c-10.25,3.4-14.49,12.87-10.48,25.1c10.87,33.28,22.11,66.44,33.04,99.7c2.99,9.08,8.44,15.27,18.35,14.92
		c9.18-0.31,14.24-6.17,17.07-14.88c10.86-33.31,22.21-66.46,33.14-99.75C496.65,408.05,492.47,398.66,482.24,395.22z M547.1,415.47
		c-0.05-13.18-6.65-21.02-17.12-21.12c-10.53-0.12-17.34,7.73-17.49,20.75c-0.19,16.68-0.05,33.37-0.05,50.05
		c0,16.26-0.12,32.53,0.05,48.78c0.12,13.16,6.65,21,17.11,21.11c10.48,0.12,17.45-7.74,17.51-20.72
		C547.28,481.37,547.24,448.42,547.1,415.47z M570.29,805.85c0.14-29.1-19.05-52.31-46.35-57.08c-11.48-2.01-21.84,3.94-32.37,4.63
		c-10.66,0.67-21.48-6.87-33.48-4.81c-37.23,6.39-58.09,46.25-41.27,80.42c14.3,29.02,38.92,48.39,65.04,65.9
		c6.11,4.08,13.12,3.41,19.33-0.83c21.69-14.8,41.81-31.34,56.77-53.26C565.28,830.08,570.82,818.56,570.29,805.85z M532.74,814.65
		c-9.21,16.86-23.68,28.98-38.23,40.97c-2.93,2.41-4.97,2.18-7.66-0.06c-14.49-12.04-29.26-23.91-38.11-41.02
		c-7.21-13.93,2.43-31.41,16.67-31.16c5.09-0.16,8.93,2.59,12.56,5.61c8.54,7.09,17.15,7.03,25.47-0.02
		c7.95-6.71,15.92-7.96,24.21-1.08C535.31,794.29,537.73,805.56,532.74,814.65z M654.85,394.66c-24.89-0.59-49.8-0.7-74.68,0.12
		c-9.04,0.31-14.69,7.32-15.05,16.51c-0.34,9.21,4.75,15.5,13.83,17.6c4.11,0.95,8.55,1.03,12.77,0.7c6.53-0.5,9.13,1.43,8.8,8.54
		c-0.59,12.85-0.17,25.75-0.16,38.63c0,12.45-0.11,24.89,0.03,37.34c0.16,12.99,6.89,20.95,17.4,20.95c10.5,0,17.21-7.8,17.37-21.08
		c0.23-20.61,0.02-41.22,0.11-61.83c0.03-6.82-1.68-14.83,1.28-20.14c3.19-5.73,11.81-1.31,17.95-2.46
		c9.5-1.81,15.66-8.46,15.75-17.45C670.36,403.12,664.16,394.89,654.85,394.66z M733.02,482.1c8.12,0.48,16.31,0.34,24.46,0.02
		c11.36-0.47,18.35-7.23,18.43-17.2c0.08-10.05-6.73-16.92-18.15-17.53c-8.55-0.45-17.18-0.53-25.74,0
		c-7.01,0.44-8.88-2.26-8.74-8.93c0.12-6.22,1.12-9.58,8.46-8.91c7.23,0.67,14.58,0.23,21.87,0.12
		c14.35-0.22,22.15-6.42,22.29-17.53c0.12-11.12-7.84-17.71-21.89-17.82c-14.6-0.11-29.19-0.11-43.79,0.02
		c-15.73,0.12-21.84,6.12-21.93,21.59c-0.12,16.31-0.03,32.62-0.03,48.93c0.02,17.17-0.2,34.35,0.09,51.5
		c0.19,11.33,5.94,18.18,17.04,18.65c17.56,0.75,35.19,0.7,52.78,0.08c11.15-0.39,17.98-8.18,17.73-18.09
		c-0.23-9.8-7.52-16.62-18.73-17.03c-8.15-0.3-16.33-0.47-24.46,0.06c-6.93,0.45-9.63-1.28-9.55-8.94
		C723.25,483.39,726.13,481.68,733.02,482.1z M570.29,805.85c0.14-29.1-19.05-52.31-46.35-57.08c-11.48-2.01-21.84,3.94-32.37,4.63
		c-10.66,0.67-21.48-6.87-33.48-4.81c-37.23,6.39-58.09,46.25-41.27,80.42c14.3,29.02,38.92,48.39,65.04,65.9
		c6.11,4.08,13.12,3.41,19.33-0.83c21.69-14.8,41.81-31.34,56.77-53.26C565.28,830.08,570.82,818.56,570.29,805.85z M532.74,814.65
		c-9.21,16.86-23.68,28.98-38.23,40.97c-2.93,2.41-4.97,2.18-7.66-0.06c-14.49-12.04-29.26-23.91-38.11-41.02
		c-7.21-13.93,2.43-31.41,16.67-31.16c5.09-0.16,8.93,2.59,12.56,5.61c8.54,7.09,17.15,7.03,25.47-0.02
		c7.95-6.71,15.92-7.96,24.21-1.08C535.31,794.29,537.73,805.56,532.74,814.65z M733.02,482.1c8.12,0.48,16.31,0.34,24.46,0.02
		c11.36-0.47,18.35-7.23,18.43-17.2c0.08-10.05-6.73-16.92-18.15-17.53c-8.55-0.45-17.18-0.53-25.74,0
		c-7.01,0.44-8.88-2.26-8.74-8.93c0.12-6.22,1.12-9.58,8.46-8.91c7.23,0.67,14.58,0.23,21.87,0.12
		c14.35-0.22,22.15-6.42,22.29-17.53c0.12-11.12-7.84-17.71-21.89-17.82c-14.6-0.11-29.19-0.11-43.79,0.02
		c-15.73,0.12-21.84,6.12-21.93,21.59c-0.12,16.31-0.03,32.62-0.03,48.93c0.02,17.17-0.2,34.35,0.09,51.5
		c0.19,11.33,5.94,18.18,17.04,18.65c17.56,0.75,35.19,0.7,52.78,0.08c11.15-0.39,17.98-8.18,17.73-18.09
		c-0.23-9.8-7.52-16.62-18.73-17.03c-8.15-0.3-16.33-0.47-24.46,0.06c-6.93,0.45-9.63-1.28-9.55-8.94
		C723.25,483.39,726.13,481.68,733.02,482.1z M654.85,394.66c-24.89-0.59-49.8-0.7-74.68,0.12c-9.04,0.31-14.69,7.32-15.05,16.51
		c-0.34,9.21,4.75,15.5,13.83,17.6c4.11,0.95,8.55,1.03,12.77,0.7c6.53-0.5,9.13,1.43,8.8,8.54c-0.59,12.85-0.17,25.75-0.16,38.63
		c0,12.45-0.11,24.89,0.03,37.34c0.16,12.99,6.89,20.95,17.4,20.95c10.5,0,17.21-7.8,17.37-21.08c0.23-20.61,0.02-41.22,0.11-61.83
		c0.03-6.82-1.68-14.83,1.28-20.14c3.19-5.73,11.81-1.31,17.95-2.46c9.5-1.81,15.66-8.46,15.75-17.45
		C670.36,403.12,664.16,394.89,654.85,394.66z M547.1,415.47c-0.05-13.18-6.65-21.02-17.12-21.12
		c-10.53-0.12-17.34,7.73-17.49,20.75c-0.19,16.68-0.05,33.37-0.05,50.05c0,16.26-0.12,32.53,0.05,48.78
		c0.12,13.16,6.65,21,17.11,21.11c10.48,0.12,17.45-7.74,17.51-20.72C547.28,481.37,547.24,448.42,547.1,415.47z M482.24,395.22
		c-9.8-3.3-18.82,2.27-23.04,14.61c-5.53,16.14-10.81,32.36-16.2,48.54c-0.75-0.02-1.48-0.03-2.23-0.05
		c-5.56-16.54-10.92-33.15-16.76-49.59c-4.14-11.67-12.99-16.68-22.5-13.54c-10.25,3.4-14.49,12.87-10.48,25.1
		c10.87,33.28,22.11,66.44,33.04,99.7c2.99,9.08,8.44,15.27,18.35,14.92c9.18-0.31,14.24-6.17,17.07-14.88
		c10.86-33.31,22.21-66.46,33.14-99.75C496.65,408.05,492.47,398.66,482.24,395.22z M371.33,416.72
		c-0.02-14.08-6.42-22.21-17.31-22.34c-10.87-0.11-17.62,8.04-17.84,22.06c-0.19,12.74-0.05,25.5-0.05,38.25
		c-0.87,0.16-1.76,0.3-2.65,0.45c-9.69-14.52-19.41-29.02-29.09-43.56c-6.17-9.25-11.62-20.63-25.64-16.39
		c-14.46,4.36-13.13,17.06-12.99,28.77c0.14,13.71,0.03,27.43,0.03,41.14c0,17.15-0.28,34.3,0.12,51.44
		c0.26,10.98,7.73,18.41,17.39,18.55c9.63,0.14,17-7.18,17.9-18.18c0.37-4.69,0.11-9.43,0.11-14.15V474.4
		c13.43,16.12,24.38,32.37,35.13,48.76c5.33,8.09,11.61,14.01,22.17,10.95c10.5-3.02,12.88-11.01,12.82-20.95
		C371.22,481.02,371.39,448.87,371.33,416.72z M248.11,464.49c0-16.7,0.16-33.38-0.06-50.09c-0.16-12.26-6.75-19.78-16.89-20.07
		c-10.5-0.28-17.67,7.6-17.74,20.5c-0.17,33.37-0.19,66.75,0.02,100.14c0.08,12.31,6.78,19.82,16.87,20.07
		c10.52,0.25,17.6-7.66,17.76-20.49C248.26,497.88,248.11,481.18,248.11,464.49z M248.11,464.49c0-16.7,0.16-33.38-0.06-50.09
		c-0.16-12.26-6.75-19.78-16.89-20.07c-10.5-0.28-17.67,7.6-17.74,20.5c-0.17,33.37-0.19,66.75,0.02,100.14
		c0.08,12.31,6.78,19.82,16.87,20.07c10.52,0.25,17.6-7.66,17.76-20.49C248.26,497.88,248.11,481.18,248.11,464.49z M371.33,416.72
		c-0.02-14.08-6.42-22.21-17.31-22.34c-10.87-0.11-17.62,8.04-17.84,22.06c-0.19,12.74-0.05,25.5-0.05,38.25
		c-0.87,0.16-1.76,0.3-2.65,0.45c-9.69-14.52-19.41-29.02-29.09-43.56c-6.17-9.25-11.62-20.63-25.64-16.39
		c-14.46,4.36-13.13,17.06-12.99,28.77c0.14,13.71,0.03,27.43,0.03,41.14c0,17.15-0.28,34.3,0.12,51.44
		c0.26,10.98,7.73,18.41,17.39,18.55c9.63,0.14,17-7.18,17.9-18.18c0.37-4.69,0.11-9.43,0.11-14.15V474.4
		c13.43,16.12,24.38,32.37,35.13,48.76c5.33,8.09,11.61,14.01,22.17,10.95c10.5-3.02,12.88-11.01,12.82-20.95
		C371.22,481.02,371.39,448.87,371.33,416.72z M482.24,395.22c-9.8-3.3-18.82,2.27-23.04,14.61c-5.53,16.14-10.81,32.36-16.2,48.54
		c-0.75-0.02-1.48-0.03-2.23-0.05c-5.56-16.54-10.92-33.15-16.76-49.59c-4.14-11.67-12.99-16.68-22.5-13.54
		c-10.25,3.4-14.49,12.87-10.48,25.1c10.87,33.28,22.11,66.44,33.04,99.7c2.99,9.08,8.44,15.27,18.35,14.92
		c9.18-0.31,14.24-6.17,17.07-14.88c10.86-33.31,22.21-66.46,33.14-99.75C496.65,408.05,492.47,398.66,482.24,395.22z M547.1,415.47
		c-0.05-13.18-6.65-21.02-17.12-21.12c-10.53-0.12-17.34,7.73-17.49,20.75c-0.19,16.68-0.05,33.37-0.05,50.05
		c0,16.26-0.12,32.53,0.05,48.78c0.12,13.16,6.65,21,17.11,21.11c10.48,0.12,17.45-7.74,17.51-20.72
		C547.28,481.37,547.24,448.42,547.1,415.47z M570.29,805.85c0.14-29.1-19.05-52.31-46.35-57.08c-11.48-2.01-21.84,3.94-32.37,4.63
		c-10.66,0.67-21.48-6.87-33.48-4.81c-37.23,6.39-58.09,46.25-41.27,80.42c14.3,29.02,38.92,48.39,65.04,65.9
		c6.11,4.08,13.12,3.41,19.33-0.83c21.69-14.8,41.81-31.34,56.77-53.26C565.28,830.08,570.82,818.56,570.29,805.85z M532.74,814.65
		c-9.21,16.86-23.68,28.98-38.23,40.97c-2.93,2.41-4.97,2.18-7.66-0.06c-14.49-12.04-29.26-23.91-38.11-41.02
		c-7.21-13.93,2.43-31.41,16.67-31.16c5.09-0.16,8.93,2.59,12.56,5.61c8.54,7.09,17.15,7.03,25.47-0.02
		c7.95-6.71,15.92-7.96,24.21-1.08C535.31,794.29,537.73,805.56,532.74,814.65z M654.85,394.66c-24.89-0.59-49.8-0.7-74.68,0.12
		c-9.04,0.31-14.69,7.32-15.05,16.51c-0.34,9.21,4.75,15.5,13.83,17.6c4.11,0.95,8.55,1.03,12.77,0.7c6.53-0.5,9.13,1.43,8.8,8.54
		c-0.59,12.85-0.17,25.75-0.16,38.63c0,12.45-0.11,24.89,0.03,37.34c0.16,12.99,6.89,20.95,17.4,20.95c10.5,0,17.21-7.8,17.37-21.08
		c0.23-20.61,0.02-41.22,0.11-61.83c0.03-6.82-1.68-14.83,1.28-20.14c3.19-5.73,11.81-1.31,17.95-2.46
		c9.5-1.81,15.66-8.46,15.75-17.45C670.36,403.12,664.16,394.89,654.85,394.66z M733.02,482.1c8.12,0.48,16.31,0.34,24.46,0.02
		c11.36-0.47,18.35-7.23,18.43-17.2c0.08-10.05-6.73-16.92-18.15-17.53c-8.55-0.45-17.18-0.53-25.74,0
		c-7.01,0.44-8.88-2.26-8.74-8.93c0.12-6.22,1.12-9.58,8.46-8.91c7.23,0.67,14.58,0.23,21.87,0.12
		c14.35-0.22,22.15-6.42,22.29-17.53c0.12-11.12-7.84-17.71-21.89-17.82c-14.6-0.11-29.19-0.11-43.79,0.02
		c-15.73,0.12-21.84,6.12-21.93,21.59c-0.12,16.31-0.03,32.62-0.03,48.93c0.02,17.17-0.2,34.35,0.09,51.5
		c0.19,11.33,5.94,18.18,17.04,18.65c17.56,0.75,35.19,0.7,52.78,0.08c11.15-0.39,17.98-8.18,17.73-18.09
		c-0.23-9.8-7.52-16.62-18.73-17.03c-8.15-0.3-16.33-0.47-24.46,0.06c-6.93,0.45-9.63-1.28-9.55-8.94
		C723.25,483.39,726.13,481.68,733.02,482.1z M570.29,805.85c0.14-29.1-19.05-52.31-46.35-57.08c-11.48-2.01-21.84,3.94-32.37,4.63
		c-10.66,0.67-21.48-6.87-33.48-4.81c-37.23,6.39-58.09,46.25-41.27,80.42c14.3,29.02,38.92,48.39,65.04,65.9
		c6.11,4.08,13.12,3.41,19.33-0.83c21.69-14.8,41.81-31.34,56.77-53.26C565.28,830.08,570.82,818.56,570.29,805.85z M532.74,814.65
		c-9.21,16.86-23.68,28.98-38.23,40.97c-2.93,2.41-4.97,2.18-7.66-0.06c-14.49-12.04-29.26-23.91-38.11-41.02
		c-7.21-13.93,2.43-31.41,16.67-31.16c5.09-0.16,8.93,2.59,12.56,5.61c8.54,7.09,17.15,7.03,25.47-0.02
		c7.95-6.71,15.92-7.96,24.21-1.08C535.31,794.29,537.73,805.56,532.74,814.65z M733.02,482.1c8.12,0.48,16.31,0.34,24.46,0.02
		c11.36-0.47,18.35-7.23,18.43-17.2c0.08-10.05-6.73-16.92-18.15-17.53c-8.55-0.45-17.18-0.53-25.74,0
		c-7.01,0.44-8.88-2.26-8.74-8.93c0.12-6.22,1.12-9.58,8.46-8.91c7.23,0.67,14.58,0.23,21.87,0.12
		c14.35-0.22,22.15-6.42,22.29-17.53c0.12-11.12-7.84-17.71-21.89-17.82c-14.6-0.11-29.19-0.11-43.79,0.02
		c-15.73,0.12-21.84,6.12-21.93,21.59c-0.12,16.31-0.03,32.62-0.03,48.93c0.02,17.17-0.2,34.35,0.09,51.5
		c0.19,11.33,5.94,18.18,17.04,18.65c17.56,0.75,35.19,0.7,52.78,0.08c11.15-0.39,17.98-8.18,17.73-18.09
		c-0.23-9.8-7.52-16.62-18.73-17.03c-8.15-0.3-16.33-0.47-24.46,0.06c-6.93,0.45-9.63-1.28-9.55-8.94
		C723.25,483.39,726.13,481.68,733.02,482.1z M654.85,394.66c-24.89-0.59-49.8-0.7-74.68,0.12c-9.04,0.31-14.69,7.32-15.05,16.51
		c-0.34,9.21,4.75,15.5,13.83,17.6c4.11,0.95,8.55,1.03,12.77,0.7c6.53-0.5,9.13,1.43,8.8,8.54c-0.59,12.85-0.17,25.75-0.16,38.63
		c0,12.45-0.11,24.89,0.03,37.34c0.16,12.99,6.89,20.95,17.4,20.95c10.5,0,17.21-7.8,17.37-21.08c0.23-20.61,0.02-41.22,0.11-61.83
		c0.03-6.82-1.68-14.83,1.28-20.14c3.19-5.73,11.81-1.31,17.95-2.46c9.5-1.81,15.66-8.46,15.75-17.45
		C670.36,403.12,664.16,394.89,654.85,394.66z M529.98,394.34c-10.53-0.12-17.34,7.73-17.49,20.75
		c-0.19,16.68-0.05,33.37-0.05,50.05c0,16.26-0.12,32.53,0.05,48.78c0.12,13.16,6.65,21,17.11,21.11
		c10.48,0.12,17.45-7.74,17.51-20.72c0.17-32.95,0.14-65.9,0-98.85C547.06,402.29,540.45,394.45,529.98,394.34z M482.24,395.22
		c-9.8-3.3-18.82,2.27-23.04,14.61c-5.53,16.14-10.81,32.36-16.2,48.54c-0.75-0.02-1.48-0.03-2.23-0.05
		c-5.56-16.54-10.92-33.15-16.76-49.59c-4.14-11.67-12.99-16.68-22.5-13.54c-10.25,3.4-14.49,12.87-10.48,25.1
		c10.87,33.28,22.11,66.44,33.04,99.7c2.99,9.08,8.44,15.27,18.35,14.92c9.18-0.31,14.24-6.17,17.07-14.88
		c10.86-33.31,22.21-66.46,33.14-99.75C496.65,408.05,492.47,398.66,482.24,395.22z M371.33,416.72
		c-0.02-14.08-6.42-22.21-17.31-22.34c-10.87-0.11-17.62,8.04-17.84,22.06c-0.19,12.74-0.05,25.5-0.05,38.25
		c-0.87,0.16-1.76,0.3-2.65,0.45c-9.69-14.52-19.41-29.02-29.09-43.56c-6.17-9.25-11.62-20.63-25.64-16.39
		c-14.46,4.36-13.13,17.06-12.99,28.77c0.14,13.71,0.03,27.43,0.03,41.14c0,17.15-0.28,34.3,0.12,51.44
		c0.26,10.98,7.73,18.41,17.39,18.55c9.63,0.14,17-7.18,17.9-18.18c0.37-4.69,0.11-9.43,0.11-14.15V474.4
		c13.43,16.12,24.38,32.37,35.13,48.76c5.33,8.09,11.61,14.01,22.17,10.95c10.5-3.02,12.88-11.01,12.82-20.95
		C371.22,481.02,371.39,448.87,371.33,416.72z M248.04,414.41c-0.16-12.26-6.75-19.78-16.89-20.07c-10.5-0.28-17.67,7.6-17.74,20.5
		c-0.17,33.37-0.19,66.75,0.02,100.14c0.08,12.31,6.78,19.82,16.87,20.07c10.52,0.25,17.6-7.66,17.76-20.49
		c0.2-16.68,0.05-33.38,0.05-50.07C248.11,447.79,248.26,431.11,248.04,414.41z M934.59,490.79c0.02-11.75-3.35-20.17-12.96-27.45
		c-22.9-17.35-44.96-35.83-67.69-53.42c-5.64-4.38-7.88-8.9-7.84-16.06c0.33-44.23,0.19-88.47,0.14-132.71
		c-0.03-20.5-4.44-24.89-25-24.91c-57.98-0.05-115.97-0.14-173.93,0.12c-7.74,0.03-13.79-1.82-19.88-6.79
		c-24.6-20.08-49.48-39.82-74.5-59.37c-38.51-30.07-82.08-29.65-120.28,0.9c-23.79,19.04-47.73,37.87-71.18,57.33
		c-7.1,5.89-14.27,8.02-23.38,7.96c-55.4-0.34-110.81-0.19-166.21-0.17c-25.81,0-29.3,3.58-29.3,29.97
		c-0.02,42.51-0.17,85.04,0.16,127.56c0.05,7.15-2.13,11.76-7.74,16.12c-22.32,17.43-43.95,35.77-66.52,52.84
		c-10.34,7.8-14.07,16.72-14.04,29.51c0.34,151.61,0.22,303.22,0.22,454.82c0,23.32,4.35,27.67,27.7,27.67
		c137.01,0.02,274.01,0,411.01,0c138.29,0,276.58,0.02,414.87,0c22.06-0.02,26.17-4.16,26.19-26.53
		C934.43,795.71,934.34,643.26,934.59,490.79z M847.08,449.48c13.72,10.84,26.27,20.73,39.62,31.27
		c-13.27,8.49-25.77,16.47-39.62,25.32V449.48z M469.27,189.04c17.7-9.88,36.95-8.52,53.62,3.07c18.52,12.88,35.78,27.59,53.59,41.5
		c-0.44,0.65-0.87,1.31-1.29,1.96H411.63C430.28,218.88,447.71,201.05,469.27,189.04z M178.05,402.99
		c0-39.93,0.23-79.86-0.17-119.78c-0.09-8.79,0.87-12.48,11.48-12.46c203.49,0.41,406.99,0.37,610.49,0.06
		c10-0.02,11.9,2.98,11.86,12.31c-0.37,78.58-0.3,157.14-0.06,235.7c0.02,7.21-2.01,11.48-8.33,15.5
		c-76.66,48.67-153.14,97.61-229.47,146.8c-6.67,4.32-11.08,4.84-17.98,0.03c-43.64-30.53-83.3-29.86-126.95,1.32
		c-18.69,13.37-18.71,13.38-37.37,0.41c-68.27-47.47-136.45-95.04-204.86-142.29c-6.28-4.33-8.93-8.68-8.83-16.53
		C178.3,483.7,178.05,443.35,178.05,402.99z M141.84,449.43v59.62c-13.68-9.5-26.37-18.34-39.96-27.78
		C115.41,470.49,127.92,460.52,141.84,449.43z M91.12,516.73c96.43,67.1,191.9,133.49,288.5,200.7
		c-96.35,68.48-191.8,136.33-288.5,205.06V516.73z M131.81,939.67c-1.28-4.75,3.43-5.19,5.73-6.82
		c105.76-75.35,211.57-150.64,317.49-225.8c23.76-16.84,51.08-17.79,74.48-1.37c108.74,76.35,217.2,153.09,325.73,229.72
		c0.95,0.65,1.59,1.74,3.82,4.27H131.81z M898.7,922.89c-101.4-71.57-201.45-142.19-303.16-214
		c101.29-64.82,201.63-129.05,303.16-194.01V922.89z M688.36,516.37c0.19,11.33,5.94,18.18,17.04,18.65
		c17.56,0.75,35.19,0.7,52.78,0.08c11.15-0.39,17.98-8.18,17.73-18.09c-0.23-9.8-7.52-16.62-18.73-17.03
		c-8.15-0.3-16.33-0.47-24.46,0.06c-6.93,0.45-9.63-1.28-9.55-8.94c0.08-7.71,2.96-9.43,9.85-9c8.12,0.48,16.31,0.34,24.46,0.02
		c11.36-0.47,18.35-7.23,18.43-17.2c0.08-10.05-6.73-16.92-18.15-17.53c-8.55-0.45-17.18-0.53-25.74,0
		c-7.01,0.44-8.88-2.26-8.74-8.93c0.12-6.22,1.12-9.58,8.46-8.91c7.23,0.67,14.58,0.23,21.87,0.12
		c14.35-0.22,22.15-6.42,22.29-17.53c0.12-11.12-7.84-17.71-21.89-17.82c-14.6-0.11-29.19-0.11-43.79,0.02
		c-15.73,0.12-21.84,6.12-21.93,21.59c-0.12,16.31-0.03,32.62-0.03,48.93C688.28,482.04,688.06,499.22,688.36,516.37z M578.95,428.9
		c4.11,0.95,8.55,1.03,12.77,0.7c6.53-0.5,9.13,1.43,8.8,8.54c-0.59,12.85-0.17,25.75-0.16,38.63c0,12.45-0.11,24.89,0.03,37.34
		c0.16,12.99,6.89,20.95,17.4,20.95c10.5,0,17.21-7.8,17.37-21.08c0.23-20.61,0.02-41.22,0.11-61.83
		c0.03-6.82-1.68-14.83,1.28-20.14c3.19-5.73,11.81-1.31,17.95-2.46c9.5-1.81,15.66-8.46,15.75-17.45
		c0.11-8.99-6.09-17.21-15.41-17.45c-24.89-0.59-49.8-0.7-74.68,0.12c-9.04,0.31-14.69,7.32-15.05,16.51
		C564.77,420.5,569.86,426.79,578.95,428.9z M523.94,748.77c-11.48-2.01-21.84,3.94-32.37,4.63c-10.66,0.67-21.48-6.87-33.48-4.81
		c-37.23,6.39-58.09,46.25-41.27,80.42c14.3,29.02,38.92,48.39,65.04,65.9c6.11,4.08,13.12,3.41,19.33-0.83
		c21.69-14.8,41.81-31.34,56.77-53.26c7.32-10.73,12.85-22.25,12.32-34.96C570.43,776.75,551.23,753.54,523.94,748.77z
		 M532.74,814.65c-9.21,16.86-23.68,28.98-38.23,40.97c-2.93,2.41-4.97,2.18-7.66-0.06c-14.49-12.04-29.26-23.91-38.11-41.02
		c-7.21-13.93,2.43-31.41,16.67-31.16c5.09-0.16,8.93,2.59,12.56,5.61c8.54,7.09,17.15,7.03,25.47-0.02
		c7.95-6.71,15.92-7.96,24.21-1.08C535.31,794.29,537.73,805.56,532.74,814.65z M512.49,513.93c0.12,13.16,6.65,21,17.11,21.11
		c10.48,0.12,17.45-7.74,17.51-20.72c0.17-32.95,0.14-65.9,0-98.85c-0.05-13.18-6.65-21.02-17.12-21.12
		c-10.53-0.12-17.34,7.73-17.49,20.75c-0.19,16.68-0.05,33.37-0.05,50.05C512.44,481.41,512.32,497.68,512.49,513.93z M424.07,520
		c2.99,9.08,8.44,15.27,18.35,14.92c9.18-0.31,14.24-6.17,17.07-14.88c10.86-33.31,22.21-66.46,33.14-99.75
		c4.02-12.24-0.16-21.64-10.39-25.08c-9.8-3.3-18.82,2.27-23.04,14.61c-5.53,16.14-10.81,32.36-16.2,48.54
		c-0.75-0.02-1.48-0.03-2.23-0.05c-5.56-16.54-10.92-33.15-16.76-49.59c-4.14-11.67-12.99-16.68-22.5-13.54
		c-10.25,3.4-14.49,12.87-10.48,25.1C401.9,453.57,413.13,486.74,424.07,520z M265.8,465.1c0,17.15-0.28,34.3,0.12,51.44
		c0.26,10.98,7.73,18.41,17.39,18.55c9.63,0.14,17-7.18,17.9-18.18c0.37-4.69,0.11-9.43,0.11-14.15V474.4
		c13.43,16.12,24.38,32.37,35.13,48.76c5.33,8.09,11.61,14.01,22.17,10.95c10.5-3.02,12.88-11.01,12.82-20.95
		c-0.22-32.14-0.05-64.29-0.11-96.45c-0.02-14.08-6.42-22.21-17.31-22.34c-10.87-0.11-17.62,8.04-17.84,22.06
		c-0.19,12.74-0.05,25.5-0.05,38.25c-0.87,0.16-1.76,0.3-2.65,0.45c-9.69-14.52-19.41-29.02-29.09-43.56
		c-6.17-9.25-11.62-20.63-25.64-16.39c-14.46,4.36-13.13,17.06-12.99,28.77C265.91,437.67,265.8,451.39,265.8,465.1z M230.3,535.05
		c10.52,0.25,17.6-7.66,17.76-20.49c0.2-16.68,0.05-33.38,0.05-50.07c0-16.7,0.16-33.38-0.06-50.09
		c-0.16-12.26-6.75-19.78-16.89-20.07c-10.5-0.28-17.67,7.6-17.74,20.5c-0.17,33.37-0.19,66.75,0.02,100.14
		C213.51,527.29,220.2,534.8,230.3,535.05z M248.11,464.49c0-16.7,0.16-33.38-0.06-50.09c-0.16-12.26-6.75-19.78-16.89-20.07
		c-10.5-0.28-17.67,7.6-17.74,20.5c-0.17,33.37-0.19,66.75,0.02,100.14c0.08,12.31,6.78,19.82,16.87,20.07
		c10.52,0.25,17.6-7.66,17.76-20.49C248.26,497.88,248.11,481.18,248.11,464.49z M371.33,416.72c-0.02-14.08-6.42-22.21-17.31-22.34
		c-10.87-0.11-17.62,8.04-17.84,22.06c-0.19,12.74-0.05,25.5-0.05,38.25c-0.87,0.16-1.76,0.3-2.65,0.45
		c-9.69-14.52-19.41-29.02-29.09-43.56c-6.17-9.25-11.62-20.63-25.64-16.39c-14.46,4.36-13.13,17.06-12.99,28.77
		c0.14,13.71,0.03,27.43,0.03,41.14c0,17.15-0.28,34.3,0.12,51.44c0.26,10.98,7.73,18.41,17.39,18.55c9.63,0.14,17-7.18,17.9-18.18
		c0.37-4.69,0.11-9.43,0.11-14.15V474.4c13.43,16.12,24.38,32.37,35.13,48.76c5.33,8.09,11.61,14.01,22.17,10.95
		c10.5-3.02,12.88-11.01,12.82-20.95C371.22,481.02,371.39,448.87,371.33,416.72z M482.24,395.22c-9.8-3.3-18.82,2.27-23.04,14.61
		c-5.53,16.14-10.81,32.36-16.2,48.54c-0.75-0.02-1.48-0.03-2.23-0.05c-5.56-16.54-10.92-33.15-16.76-49.59
		c-4.14-11.67-12.99-16.68-22.5-13.54c-10.25,3.4-14.49,12.87-10.48,25.1c10.87,33.28,22.11,66.44,33.04,99.7
		c2.99,9.08,8.44,15.27,18.35,14.92c9.18-0.31,14.24-6.17,17.07-14.88c10.86-33.31,22.21-66.46,33.14-99.75
		C496.65,408.05,492.47,398.66,482.24,395.22z M547.1,415.47c-0.05-13.18-6.65-21.02-17.12-21.12
		c-10.53-0.12-17.34,7.73-17.49,20.75c-0.19,16.68-0.05,33.37-0.05,50.05c0,16.26-0.12,32.53,0.05,48.78
		c0.12,13.16,6.65,21,17.11,21.11c10.48,0.12,17.45-7.74,17.51-20.72C547.28,481.37,547.24,448.42,547.1,415.47z M654.85,394.66
		c-24.89-0.59-49.8-0.7-74.68,0.12c-9.04,0.31-14.69,7.32-15.05,16.51c-0.34,9.21,4.75,15.5,13.83,17.6
		c4.11,0.95,8.55,1.03,12.77,0.7c6.53-0.5,9.13,1.43,8.8,8.54c-0.59,12.85-0.17,25.75-0.16,38.63c0,12.45-0.11,24.89,0.03,37.34
		c0.16,12.99,6.89,20.95,17.4,20.95c10.5,0,17.21-7.8,17.37-21.08c0.23-20.61,0.02-41.22,0.11-61.83
		c0.03-6.82-1.68-14.83,1.28-20.14c3.19-5.73,11.81-1.31,17.95-2.46c9.5-1.81,15.66-8.46,15.75-17.45
		C670.36,403.12,664.16,394.89,654.85,394.66z M733.02,482.1c8.12,0.48,16.31,0.34,24.46,0.02c11.36-0.47,18.35-7.23,18.43-17.2
		c0.08-10.05-6.73-16.92-18.15-17.53c-8.55-0.45-17.18-0.53-25.74,0c-7.01,0.44-8.88-2.26-8.74-8.93c0.12-6.22,1.12-9.58,8.46-8.91
		c7.23,0.67,14.58,0.23,21.87,0.12c14.35-0.22,22.15-6.42,22.29-17.53c0.12-11.12-7.84-17.71-21.89-17.82
		c-14.6-0.11-29.19-0.11-43.79,0.02c-15.73,0.12-21.84,6.12-21.93,21.59c-0.12,16.31-0.03,32.62-0.03,48.93
		c0.02,17.17-0.2,34.35,0.09,51.5c0.19,11.33,5.94,18.18,17.04,18.65c17.56,0.75,35.19,0.7,52.78,0.08
		c11.15-0.39,17.98-8.18,17.73-18.09c-0.23-9.8-7.52-16.62-18.73-17.03c-8.15-0.3-16.33-0.47-24.46,0.06
		c-6.93,0.45-9.63-1.28-9.55-8.94C723.25,483.39,726.13,481.68,733.02,482.1z M570.29,805.85c0.14-29.1-19.05-52.31-46.35-57.08
		c-11.48-2.01-21.84,3.94-32.37,4.63c-10.66,0.67-21.48-6.87-33.48-4.81c-37.23,6.39-58.09,46.25-41.27,80.42
		c14.3,29.02,38.92,48.39,65.04,65.9c6.11,4.08,13.12,3.41,19.33-0.83c21.69-14.8,41.81-31.34,56.77-53.26
		C565.28,830.08,570.82,818.56,570.29,805.85z M532.74,814.65c-9.21,16.86-23.68,28.98-38.23,40.97c-2.93,2.41-4.97,2.18-7.66-0.06
		c-14.49-12.04-29.26-23.91-38.11-41.02c-7.21-13.93,2.43-31.41,16.67-31.16c5.09-0.16,8.93,2.59,12.56,5.61
		c8.54,7.09,17.15,7.03,25.47-0.02c7.95-6.71,15.92-7.96,24.21-1.08C535.31,794.29,537.73,805.56,532.74,814.65z M733.02,482.1
		c8.12,0.48,16.31,0.34,24.46,0.02c11.36-0.47,18.35-7.23,18.43-17.2c0.08-10.05-6.73-16.92-18.15-17.53
		c-8.55-0.45-17.18-0.53-25.74,0c-7.01,0.44-8.88-2.26-8.74-8.93c0.12-6.22,1.12-9.58,8.46-8.91c7.23,0.67,14.58,0.23,21.87,0.12
		c14.35-0.22,22.15-6.42,22.29-17.53c0.12-11.12-7.84-17.71-21.89-17.82c-14.6-0.11-29.19-0.11-43.79,0.02
		c-15.73,0.12-21.84,6.12-21.93,21.59c-0.12,16.31-0.03,32.62-0.03,48.93c0.02,17.17-0.2,34.35,0.09,51.5
		c0.19,11.33,5.94,18.18,17.04,18.65c17.56,0.75,35.19,0.7,52.78,0.08c11.15-0.39,17.98-8.18,17.73-18.09
		c-0.23-9.8-7.52-16.62-18.73-17.03c-8.15-0.3-16.33-0.47-24.46,0.06c-6.93,0.45-9.63-1.28-9.55-8.94
		C723.25,483.39,726.13,481.68,733.02,482.1z M654.85,394.66c-24.89-0.59-49.8-0.7-74.68,0.12c-9.04,0.31-14.69,7.32-15.05,16.51
		c-0.34,9.21,4.75,15.5,13.83,17.6c4.11,0.95,8.55,1.03,12.77,0.7c6.53-0.5,9.13,1.43,8.8,8.54c-0.59,12.85-0.17,25.75-0.16,38.63
		c0,12.45-0.11,24.89,0.03,37.34c0.16,12.99,6.89,20.95,17.4,20.95c10.5,0,17.21-7.8,17.37-21.08c0.23-20.61,0.02-41.22,0.11-61.83
		c0.03-6.82-1.68-14.83,1.28-20.14c3.19-5.73,11.81-1.31,17.95-2.46c9.5-1.81,15.66-8.46,15.75-17.45
		C670.36,403.12,664.16,394.89,654.85,394.66z M570.29,805.85c0.14-29.1-19.05-52.31-46.35-57.08c-11.48-2.01-21.84,3.94-32.37,4.63
		c-10.66,0.67-21.48-6.87-33.48-4.81c-37.23,6.39-58.09,46.25-41.27,80.42c14.3,29.02,38.92,48.39,65.04,65.9
		c6.11,4.08,13.12,3.41,19.33-0.83c21.69-14.8,41.81-31.34,56.77-53.26C565.28,830.08,570.82,818.56,570.29,805.85z M532.74,814.65
		c-9.21,16.86-23.68,28.98-38.23,40.97c-2.93,2.41-4.97,2.18-7.66-0.06c-14.49-12.04-29.26-23.91-38.11-41.02
		c-7.21-13.93,2.43-31.41,16.67-31.16c5.09-0.16,8.93,2.59,12.56,5.61c8.54,7.09,17.15,7.03,25.47-0.02
		c7.95-6.71,15.92-7.96,24.21-1.08C535.31,794.29,537.73,805.56,532.74,814.65z M547.1,415.47c-0.05-13.18-6.65-21.02-17.12-21.12
		c-10.53-0.12-17.34,7.73-17.49,20.75c-0.19,16.68-0.05,33.37-0.05,50.05c0,16.26-0.12,32.53,0.05,48.78
		c0.12,13.16,6.65,21,17.11,21.11c10.48,0.12,17.45-7.74,17.51-20.72C547.28,481.37,547.24,448.42,547.1,415.47z M482.24,395.22
		c-9.8-3.3-18.82,2.27-23.04,14.61c-5.53,16.14-10.81,32.36-16.2,48.54c-0.75-0.02-1.48-0.03-2.23-0.05
		c-5.56-16.54-10.92-33.15-16.76-49.59c-4.14-11.67-12.99-16.68-22.5-13.54c-10.25,3.4-14.49,12.87-10.48,25.1
		c10.87,33.28,22.11,66.44,33.04,99.7c2.99,9.08,8.44,15.27,18.35,14.92c9.18-0.31,14.24-6.17,17.07-14.88
		c10.86-33.31,22.21-66.46,33.14-99.75C496.65,408.05,492.47,398.66,482.24,395.22z M371.33,416.72
		c-0.02-14.08-6.42-22.21-17.31-22.34c-10.87-0.11-17.62,8.04-17.84,22.06c-0.19,12.74-0.05,25.5-0.05,38.25
		c-0.87,0.16-1.76,0.3-2.65,0.45c-9.69-14.52-19.41-29.02-29.09-43.56c-6.17-9.25-11.62-20.63-25.64-16.39
		c-14.46,4.36-13.13,17.06-12.99,28.77c0.14,13.71,0.03,27.43,0.03,41.14c0,17.15-0.28,34.3,0.12,51.44
		c0.26,10.98,7.73,18.41,17.39,18.55c9.63,0.14,17-7.18,17.9-18.18c0.37-4.69,0.11-9.43,0.11-14.15V474.4
		c13.43,16.12,24.38,32.37,35.13,48.76c5.33,8.09,11.61,14.01,22.17,10.95c10.5-3.02,12.88-11.01,12.82-20.95
		C371.22,481.02,371.39,448.87,371.33,416.72z M248.11,464.49c0-16.7,0.16-33.38-0.06-50.09c-0.16-12.26-6.75-19.78-16.89-20.07
		c-10.5-0.28-17.67,7.6-17.74,20.5c-0.17,33.37-0.19,66.75,0.02,100.14c0.08,12.31,6.78,19.82,16.87,20.07
		c10.52,0.25,17.6-7.66,17.76-20.49C248.26,497.88,248.11,481.18,248.11,464.49z M248.11,464.49c0-16.7,0.16-33.38-0.06-50.09
		c-0.16-12.26-6.75-19.78-16.89-20.07c-10.5-0.28-17.67,7.6-17.74,20.5c-0.17,33.37-0.19,66.75,0.02,100.14
		c0.08,12.31,6.78,19.82,16.87,20.07c10.52,0.25,17.6-7.66,17.76-20.49C248.26,497.88,248.11,481.18,248.11,464.49z M371.33,416.72
		c-0.02-14.08-6.42-22.21-17.31-22.34c-10.87-0.11-17.62,8.04-17.84,22.06c-0.19,12.74-0.05,25.5-0.05,38.25
		c-0.87,0.16-1.76,0.3-2.65,0.45c-9.69-14.52-19.41-29.02-29.09-43.56c-6.17-9.25-11.62-20.63-25.64-16.39
		c-14.46,4.36-13.13,17.06-12.99,28.77c0.14,13.71,0.03,27.43,0.03,41.14c0,17.15-0.28,34.3,0.12,51.44
		c0.26,10.98,7.73,18.41,17.39,18.55c9.63,0.14,17-7.18,17.9-18.18c0.37-4.69,0.11-9.43,0.11-14.15V474.4
		c13.43,16.12,24.38,32.37,35.13,48.76c5.33,8.09,11.61,14.01,22.17,10.95c10.5-3.02,12.88-11.01,12.82-20.95
		C371.22,481.02,371.39,448.87,371.33,416.72z M482.24,395.22c-9.8-3.3-18.82,2.27-23.04,14.61c-5.53,16.14-10.81,32.36-16.2,48.54
		c-0.75-0.02-1.48-0.03-2.23-0.05c-5.56-16.54-10.92-33.15-16.76-49.59c-4.14-11.67-12.99-16.68-22.5-13.54
		c-10.25,3.4-14.49,12.87-10.48,25.1c10.87,33.28,22.11,66.44,33.04,99.7c2.99,9.08,8.44,15.27,18.35,14.92
		c9.18-0.31,14.24-6.17,17.07-14.88c10.86-33.31,22.21-66.46,33.14-99.75C496.65,408.05,492.47,398.66,482.24,395.22z M547.1,415.47
		c-0.05-13.18-6.65-21.02-17.12-21.12c-10.53-0.12-17.34,7.73-17.49,20.75c-0.19,16.68-0.05,33.37-0.05,50.05
		c0,16.26-0.12,32.53,0.05,48.78c0.12,13.16,6.65,21,17.11,21.11c10.48,0.12,17.45-7.74,17.51-20.72
		C547.28,481.37,547.24,448.42,547.1,415.47z M654.85,394.66c-24.89-0.59-49.8-0.7-74.68,0.12c-9.04,0.31-14.69,7.32-15.05,16.51
		c-0.34,9.21,4.75,15.5,13.83,17.6c4.11,0.95,8.55,1.03,12.77,0.7c6.53-0.5,9.13,1.43,8.8,8.54c-0.59,12.85-0.17,25.75-0.16,38.63
		c0,12.45-0.11,24.89,0.03,37.34c0.16,12.99,6.89,20.95,17.4,20.95c10.5,0,17.21-7.8,17.37-21.08c0.23-20.61,0.02-41.22,0.11-61.83
		c0.03-6.82-1.68-14.83,1.28-20.14c3.19-5.73,11.81-1.31,17.95-2.46c9.5-1.81,15.66-8.46,15.75-17.45
		C670.36,403.12,664.16,394.89,654.85,394.66z M733.02,482.1c8.12,0.48,16.31,0.34,24.46,0.02c11.36-0.47,18.35-7.23,18.43-17.2
		c0.08-10.05-6.73-16.92-18.15-17.53c-8.55-0.45-17.18-0.53-25.74,0c-7.01,0.44-8.88-2.26-8.74-8.93c0.12-6.22,1.12-9.58,8.46-8.91
		c7.23,0.67,14.58,0.23,21.87,0.12c14.35-0.22,22.15-6.42,22.29-17.53c0.12-11.12-7.84-17.71-21.89-17.82
		c-14.6-0.11-29.19-0.11-43.79,0.02c-15.73,0.12-21.84,6.12-21.93,21.59c-0.12,16.31-0.03,32.62-0.03,48.93
		c0.02,17.17-0.2,34.35,0.09,51.5c0.19,11.33,5.94,18.18,17.04,18.65c17.56,0.75,35.19,0.7,52.78,0.08
		c11.15-0.39,17.98-8.18,17.73-18.09c-0.23-9.8-7.52-16.62-18.73-17.03c-8.15-0.3-16.33-0.47-24.46,0.06
		c-6.93,0.45-9.63-1.28-9.55-8.94C723.25,483.39,726.13,481.68,733.02,482.1z M570.29,805.85c0.14-29.1-19.05-52.31-46.35-57.08
		c-11.48-2.01-21.84,3.94-32.37,4.63c-10.66,0.67-21.48-6.87-33.48-4.81c-37.23,6.39-58.09,46.25-41.27,80.42
		c14.3,29.02,38.92,48.39,65.04,65.9c6.11,4.08,13.12,3.41,19.33-0.83c21.69-14.8,41.81-31.34,56.77-53.26
		C565.28,830.08,570.82,818.56,570.29,805.85z M532.74,814.65c-9.21,16.86-23.68,28.98-38.23,40.97c-2.93,2.41-4.97,2.18-7.66-0.06
		c-14.49-12.04-29.26-23.91-38.11-41.02c-7.21-13.93,2.43-31.41,16.67-31.16c5.09-0.16,8.93,2.59,12.56,5.61
		c8.54,7.09,17.15,7.03,25.47-0.02c7.95-6.71,15.92-7.96,24.21-1.08C535.31,794.29,537.73,805.56,532.74,814.65z M733.02,482.1
		c8.12,0.48,16.31,0.34,24.46,0.02c11.36-0.47,18.35-7.23,18.43-17.2c0.08-10.05-6.73-16.92-18.15-17.53
		c-8.55-0.45-17.18-0.53-25.74,0c-7.01,0.44-8.88-2.26-8.74-8.93c0.12-6.22,1.12-9.58,8.46-8.91c7.23,0.67,14.58,0.23,21.87,0.12
		c14.35-0.22,22.15-6.42,22.29-17.53c0.12-11.12-7.84-17.71-21.89-17.82c-14.6-0.11-29.19-0.11-43.79,0.02
		c-15.73,0.12-21.84,6.12-21.93,21.59c-0.12,16.31-0.03,32.62-0.03,48.93c0.02,17.17-0.2,34.35,0.09,51.5
		c0.19,11.33,5.94,18.18,17.04,18.65c17.56,0.75,35.19,0.7,52.78,0.08c11.15-0.39,17.98-8.18,17.73-18.09
		c-0.23-9.8-7.52-16.62-18.73-17.03c-8.15-0.3-16.33-0.47-24.46,0.06c-6.93,0.45-9.63-1.28-9.55-8.94
		C723.25,483.39,726.13,481.68,733.02,482.1z M654.85,394.66c-24.89-0.59-49.8-0.7-74.68,0.12c-9.04,0.31-14.69,7.32-15.05,16.51
		c-0.34,9.21,4.75,15.5,13.83,17.6c4.11,0.95,8.55,1.03,12.77,0.7c6.53-0.5,9.13,1.43,8.8,8.54c-0.59,12.85-0.17,25.75-0.16,38.63
		c0,12.45-0.11,24.89,0.03,37.34c0.16,12.99,6.89,20.95,17.4,20.95c10.5,0,17.21-7.8,17.37-21.08c0.23-20.61,0.02-41.22,0.11-61.83
		c0.03-6.82-1.68-14.83,1.28-20.14c3.19-5.73,11.81-1.31,17.95-2.46c9.5-1.81,15.66-8.46,15.75-17.45
		C670.36,403.12,664.16,394.89,654.85,394.66z M570.29,805.85c0.14-29.1-19.05-52.31-46.35-57.08c-11.48-2.01-21.84,3.94-32.37,4.63
		c-10.66,0.67-21.48-6.87-33.48-4.81c-37.23,6.39-58.09,46.25-41.27,80.42c14.3,29.02,38.92,48.39,65.04,65.9
		c6.11,4.08,13.12,3.41,19.33-0.83c21.69-14.8,41.81-31.34,56.77-53.26C565.28,830.08,570.82,818.56,570.29,805.85z M532.74,814.65
		c-9.21,16.86-23.68,28.98-38.23,40.97c-2.93,2.41-4.97,2.18-7.66-0.06c-14.49-12.04-29.26-23.91-38.11-41.02
		c-7.21-13.93,2.43-31.41,16.67-31.16c5.09-0.16,8.93,2.59,12.56,5.61c8.54,7.09,17.15,7.03,25.47-0.02
		c7.95-6.71,15.92-7.96,24.21-1.08C535.31,794.29,537.73,805.56,532.74,814.65z M547.1,415.47c-0.05-13.18-6.65-21.02-17.12-21.12
		c-10.53-0.12-17.34,7.73-17.49,20.75c-0.19,16.68-0.05,33.37-0.05,50.05c0,16.26-0.12,32.53,0.05,48.78
		c0.12,13.16,6.65,21,17.11,21.11c10.48,0.12,17.45-7.74,17.51-20.72C547.28,481.37,547.24,448.42,547.1,415.47z M482.24,395.22
		c-9.8-3.3-18.82,2.27-23.04,14.61c-5.53,16.14-10.81,32.36-16.2,48.54c-0.75-0.02-1.48-0.03-2.23-0.05
		c-5.56-16.54-10.92-33.15-16.76-49.59c-4.14-11.67-12.99-16.68-22.5-13.54c-10.25,3.4-14.49,12.87-10.48,25.1
		c10.87,33.28,22.11,66.44,33.04,99.7c2.99,9.08,8.44,15.27,18.35,14.92c9.18-0.31,14.24-6.17,17.07-14.88
		c10.86-33.31,22.21-66.46,33.14-99.75C496.65,408.05,492.47,398.66,482.24,395.22z M371.33,416.72
		c-0.02-14.08-6.42-22.21-17.31-22.34c-10.87-0.11-17.62,8.04-17.84,22.06c-0.19,12.74-0.05,25.5-0.05,38.25
		c-0.87,0.16-1.76,0.3-2.65,0.45c-9.69-14.52-19.41-29.02-29.09-43.56c-6.17-9.25-11.62-20.63-25.64-16.39
		c-14.46,4.36-13.13,17.06-12.99,28.77c0.14,13.71,0.03,27.43,0.03,41.14c0,17.15-0.28,34.3,0.12,51.44
		c0.26,10.98,7.73,18.41,17.39,18.55c9.63,0.14,17-7.18,17.9-18.18c0.37-4.69,0.11-9.43,0.11-14.15V474.4
		c13.43,16.12,24.38,32.37,35.13,48.76c5.33,8.09,11.61,14.01,22.17,10.95c10.5-3.02,12.88-11.01,12.82-20.95
		C371.22,481.02,371.39,448.87,371.33,416.72z M248.11,464.49c0-16.7,0.16-33.38-0.06-50.09c-0.16-12.26-6.75-19.78-16.89-20.07
		c-10.5-0.28-17.67,7.6-17.74,20.5c-0.17,33.37-0.19,66.75,0.02,100.14c0.08,12.31,6.78,19.82,16.87,20.07
		c10.52,0.25,17.6-7.66,17.76-20.49C248.26,497.88,248.11,481.18,248.11,464.49z M570.29,805.85c0.14-29.1-19.05-52.31-46.35-57.08
		c-11.48-2.01-21.84,3.94-32.37,4.63c-10.66,0.67-21.48-6.87-33.48-4.81c-37.23,6.39-58.09,46.25-41.27,80.42
		c14.3,29.02,38.92,48.39,65.04,65.9c6.11,4.08,13.12,3.41,19.33-0.83c21.69-14.8,41.81-31.34,56.77-53.26
		C565.28,830.08,570.82,818.56,570.29,805.85z M532.74,814.65c-9.21,16.86-23.68,28.98-38.23,40.97c-2.93,2.41-4.97,2.18-7.66-0.06
		c-14.49-12.04-29.26-23.91-38.11-41.02c-7.21-13.93,2.43-31.41,16.67-31.16c5.09-0.16,8.93,2.59,12.56,5.61
		c8.54,7.09,17.15,7.03,25.47-0.02c7.95-6.71,15.92-7.96,24.21-1.08C535.31,794.29,537.73,805.56,532.74,814.65z M570.29,805.85
		c0.14-29.1-19.05-52.31-46.35-57.08c-11.48-2.01-21.84,3.94-32.37,4.63c-10.66,0.67-21.48-6.87-33.48-4.81
		c-37.23,6.39-58.09,46.25-41.27,80.42c14.3,29.02,38.92,48.39,65.04,65.9c6.11,4.08,13.12,3.41,19.33-0.83
		c21.69-14.8,41.81-31.34,56.77-53.26C565.28,830.08,570.82,818.56,570.29,805.85z M532.74,814.65
		c-9.21,16.86-23.68,28.98-38.23,40.97c-2.93,2.41-4.97,2.18-7.66-0.06c-14.49-12.04-29.26-23.91-38.11-41.02
		c-7.21-13.93,2.43-31.41,16.67-31.16c5.09-0.16,8.93,2.59,12.56,5.61c8.54,7.09,17.15,7.03,25.47-0.02
		c7.95-6.71,15.92-7.96,24.21-1.08C535.31,794.29,537.73,805.56,532.74,814.65z"/>
	<path d="M302.13,25.29c-29.74-0.34-53.64,22.71-53.9,52.03c-0.25,28.99,24.07,53.37,53.08,53.2c28.84-0.16,52.09-23.48,52.27-52.39
		C353.74,48.8,331.19,25.63,302.13,25.29z M318.51,78.85c-0.65,9.33-8.77,16.79-17.92,16.48c-9.71-0.33-17.51-9.02-16.87-18.74
		c0.61-9.36,8.65-16.76,17.87-16.48C311.31,60.4,319.19,69.14,318.51,78.85z"/>
	<path d="M740.68,44.19c6.77,0.39,12.11,3.44,15.63,8.42c7,9.87,13.02,8.47,19.31-0.44c0.97-1.37,2.41-2.45,3.76-3.49
		c7.92-6.06,16.63-5.84,23.32,0.53c6.31,6,7.2,15.95,1.56,23.4c-3.8,5.02-11.67,9.63-11.53,14.24c0.14,4.9,8.02,9.27,11.75,14.43
		c5.43,7.51,4.9,15.39-1.22,22.36c-5.77,6.56-15.9,7.18-23.36,1.8c-1.72-1.24-3.48-2.68-4.64-4.41
		c-6.75-10.12-12.34-7.76-19.51,0.26c-8.72,9.74-19.45,10.19-26.97,2.86c-7.58-7.39-6.79-17.81,2.05-27.18
		c9.45-10.01,9.69-10.24-0.72-20.85c-6.13-6.25-8.2-13.24-5.23-21.07C727.53,48.1,733.55,44.75,740.68,44.19z"/>
	<path d="M926.19,278.03c10.86,0.28,19.54,9.17,19.38,19.83c-0.17,11.16-9.77,19.93-21.18,19.35c-10.71-0.54-19.16-9.83-18.64-20.5
		C906.27,285.91,915.21,277.74,926.19,278.03z"/>
	<path d="M248.11,464.49c0,16.68,0.16,33.38-0.05,50.07c-0.16,12.82-7.24,20.73-17.76,20.49c-10.09-0.25-16.79-7.76-16.87-20.07
		c-0.2-33.38-0.19-66.77-0.02-100.14c0.08-12.9,7.24-20.78,17.74-20.5c10.14,0.28,16.73,7.8,16.89,20.07
		C248.26,431.11,248.11,447.79,248.11,464.49z"/>
	<path d="M371.44,513.16c0.06,9.94-2.32,17.93-12.82,20.95c-10.56,3.05-16.84-2.87-22.17-10.95c-10.75-16.39-21.7-32.64-35.13-48.76
		v28.37c0,4.72,0.26,9.46-0.11,14.15c-0.9,11-8.27,18.32-17.9,18.18c-9.66-0.14-17.12-7.57-17.39-18.55
		c-0.41-17.14-0.12-34.29-0.12-51.44c0-13.71,0.11-27.43-0.03-41.14c-0.14-11.72-1.46-24.41,12.99-28.77
		c14.02-4.24,19.47,7.14,25.64,16.39c9.67,14.53,19.4,29.04,29.09,43.56c0.89-0.16,1.78-0.3,2.65-0.45c0-12.74-0.14-25.5,0.05-38.25
		c0.22-14.02,6.96-22.17,17.84-22.06c10.89,0.12,17.29,8.26,17.31,22.34C371.39,448.87,371.22,481.02,371.44,513.16z"/>
	<path d="M492.63,420.3c-10.92,33.29-22.28,66.44-33.14,99.75c-2.84,8.71-7.9,14.57-17.07,14.88c-9.91,0.34-15.36-5.84-18.35-14.92
		c-10.94-33.26-22.17-66.43-33.04-99.7c-4-12.23,0.23-21.7,10.48-25.1c9.5-3.15,18.35,1.87,22.5,13.54
		c5.84,16.44,11.2,33.04,16.76,49.59c0.75,0.02,1.48,0.03,2.23,0.05c5.39-16.19,10.67-32.4,16.2-48.54
		c4.22-12.34,13.24-17.92,23.04-14.61C492.47,398.66,496.65,408.05,492.63,420.3z"/>
	<path d="M547.1,415.47c0.14,32.95,0.17,65.9,0,98.85c-0.06,12.98-7.03,20.84-17.51,20.72c-10.45-0.11-16.98-7.95-17.11-21.11
		c-0.17-16.25-0.05-32.51-0.05-48.78c0-16.68-0.14-33.37,0.05-50.05c0.16-13.02,6.96-20.88,17.49-20.75
		C540.45,394.45,547.06,402.29,547.1,415.47z"/>
	<path d="M670.25,412.1c-0.09,8.99-6.25,15.64-15.75,17.45c-6.14,1.15-14.75-3.27-17.95,2.46c-2.96,5.31-1.25,13.32-1.28,20.14
		c-0.09,20.61,0.12,41.22-0.11,61.83c-0.16,13.27-6.87,21.08-17.37,21.08c-10.52,0-17.25-7.96-17.4-20.95
		c-0.14-12.45-0.03-24.89-0.03-37.34c-0.02-12.88-0.44-25.78,0.16-38.63c0.33-7.1-2.27-9.04-8.8-8.54
		c-4.22,0.33-8.66,0.25-12.77-0.7c-9.08-2.1-14.18-8.4-13.83-17.6c0.36-9.19,6.01-16.2,15.05-16.51
		c24.88-0.83,49.79-0.72,74.68-0.12C664.16,394.89,670.36,403.12,670.25,412.1z"/>
	<path d="M723.17,491.1c-0.08,7.66,2.62,9.39,9.55,8.94c8.13-0.53,16.31-0.36,24.46-0.06c11.2,0.41,18.49,7.23,18.73,17.03
		c0.25,9.91-6.57,17.7-17.73,18.09c-17.59,0.62-35.22,0.67-52.78-0.08c-11.11-0.47-16.86-7.32-17.04-18.65
		c-0.3-17.15-0.08-34.34-0.09-51.5c0-16.31-0.09-32.62,0.03-48.93c0.09-15.47,6.2-21.47,21.93-21.59
		c14.6-0.12,29.19-0.12,43.79-0.02c14.05,0.11,22.01,6.7,21.89,17.82c-0.14,11.11-7.95,17.31-22.29,17.53
		c-7.29,0.11-14.64,0.55-21.87-0.12c-7.34-0.67-8.33,2.7-8.46,8.91c-0.14,6.67,1.73,9.36,8.74,8.93c8.55-0.53,17.18-0.45,25.74,0
		c11.42,0.61,18.23,7.48,18.15,17.53c-0.08,9.97-7.07,16.73-18.43,17.2c-8.15,0.33-16.34,0.47-24.46-0.02
		C726.13,481.68,723.25,483.39,723.17,491.1z"/>
	<path d="M570.29,805.85c0.14-29.1-19.05-52.31-46.35-57.08c-11.48-2.01-21.84,3.94-32.37,4.63c-10.66,0.67-21.48-6.87-33.48-4.81
		c-37.23,6.39-58.09,46.25-41.27,80.42c14.3,29.02,38.92,48.39,65.04,65.9c6.11,4.08,13.12,3.41,19.33-0.83
		c21.69-14.8,41.81-31.34,56.77-53.26C565.28,830.08,570.82,818.56,570.29,805.85z M532.74,814.65
		c-9.21,16.86-23.68,28.98-38.23,40.97c-2.93,2.41-4.97,2.18-7.66-0.06c-14.49-12.04-29.26-23.91-38.11-41.02
		c-7.21-13.93,2.43-31.41,16.67-31.16c5.09-0.16,8.93,2.59,12.56,5.61c8.54,7.09,17.15,7.03,25.47-0.02
		c7.95-6.71,15.92-7.96,24.21-1.08C535.31,794.29,537.73,805.56,532.74,814.65z"/>
	<path d="M371.44,513.16c0.06,9.94-2.32,17.93-12.82,20.95c-10.56,3.05-16.84-2.87-22.17-10.95c-10.75-16.39-21.7-32.64-35.13-48.76
		v28.37c0,4.72,0.26,9.46-0.11,14.15c-0.9,11-8.27,18.32-17.9,18.18c-9.66-0.14-17.12-7.57-17.39-18.55
		c-0.41-17.14-0.12-34.29-0.12-51.44c0-13.71,0.11-27.43-0.03-41.14c-0.14-11.72-1.46-24.41,12.99-28.77
		c14.02-4.24,19.47,7.14,25.64,16.39c9.67,14.53,19.4,29.04,29.09,43.56c0.89-0.16,1.78-0.3,2.65-0.45c0-12.74-0.14-25.5,0.05-38.25
		c0.22-14.02,6.96-22.17,17.84-22.06c10.89,0.12,17.29,8.26,17.31,22.34C371.39,448.87,371.22,481.02,371.44,513.16z"/>
	<path d="M723.17,491.1c-0.08,7.66,2.62,9.39,9.55,8.94c8.13-0.53,16.31-0.36,24.46-0.06c11.2,0.41,18.49,7.23,18.73,17.03
		c0.25,9.91-6.57,17.7-17.73,18.09c-17.59,0.62-35.22,0.67-52.78-0.08c-11.11-0.47-16.86-7.32-17.04-18.65
		c-0.3-17.15-0.08-34.34-0.09-51.5c0-16.31-0.09-32.62,0.03-48.93c0.09-15.47,6.2-21.47,21.93-21.59
		c14.6-0.12,29.19-0.12,43.79-0.02c14.05,0.11,22.01,6.7,21.89,17.82c-0.14,11.11-7.95,17.31-22.29,17.53
		c-7.29,0.11-14.64,0.55-21.87-0.12c-7.34-0.67-8.33,2.7-8.46,8.91c-0.14,6.67,1.73,9.36,8.74,8.93c8.55-0.53,17.18-0.45,25.74,0
		c11.42,0.61,18.23,7.48,18.15,17.53c-0.08,9.97-7.07,16.73-18.43,17.2c-8.15,0.33-16.34,0.47-24.46-0.02
		C726.13,481.68,723.25,483.39,723.17,491.1z"/>
	<path d="M492.63,420.3c-10.92,33.29-22.28,66.44-33.14,99.75c-2.84,8.71-7.9,14.57-17.07,14.88c-9.91,0.34-15.36-5.84-18.35-14.92
		c-10.94-33.26-22.17-66.43-33.04-99.7c-4-12.23,0.23-21.7,10.48-25.1c9.5-3.15,18.35,1.87,22.5,13.54
		c5.84,16.44,11.2,33.04,16.76,49.59c0.75,0.02,1.48,0.03,2.23,0.05c5.39-16.19,10.67-32.4,16.2-48.54
		c4.22-12.34,13.24-17.92,23.04-14.61C492.47,398.66,496.65,408.05,492.63,420.3z"/>
	<path d="M670.25,412.1c-0.09,8.99-6.25,15.64-15.75,17.45c-6.14,1.15-14.75-3.27-17.95,2.46c-2.96,5.31-1.25,13.32-1.28,20.14
		c-0.09,20.61,0.12,41.22-0.11,61.83c-0.16,13.27-6.87,21.08-17.37,21.08c-10.52,0-17.25-7.96-17.4-20.95
		c-0.14-12.45-0.03-24.89-0.03-37.34c-0.02-12.88-0.44-25.78,0.16-38.63c0.33-7.1-2.27-9.04-8.8-8.54
		c-4.22,0.33-8.66,0.25-12.77-0.7c-9.08-2.1-14.18-8.4-13.83-17.6c0.36-9.19,6.01-16.2,15.05-16.51
		c24.88-0.83,49.79-0.72,74.68-0.12C664.16,394.89,670.36,403.12,670.25,412.1z"/>
	<path d="M248.06,514.56c-0.16,12.82-7.24,20.73-17.76,20.49c-10.09-0.25-16.79-7.76-16.87-20.07c-0.2-33.38-0.19-66.77-0.02-100.14
		c0.08-12.9,7.24-20.78,17.74-20.5c10.14,0.28,16.73,7.8,16.89,20.07c0.22,16.7,0.06,33.38,0.06,50.09
		C248.11,481.18,248.26,497.88,248.06,514.56z"/>
	<path d="M547.1,514.32c-0.06,12.98-7.03,20.84-17.51,20.72c-10.45-0.11-16.98-7.95-17.11-21.11c-0.17-16.25-0.05-32.51-0.05-48.78
		c0-16.68-0.14-33.37,0.05-50.05c0.16-13.02,6.96-20.88,17.49-20.75c10.47,0.11,17.07,7.95,17.12,21.12
		C547.24,448.42,547.28,481.37,547.1,514.32z"/>
	<path d="M570.29,805.85c0.14-29.1-19.05-52.31-46.35-57.08c-11.48-2.01-21.84,3.94-32.37,4.63c-10.66,0.67-21.48-6.87-33.48-4.81
		c-37.23,6.39-58.09,46.25-41.27,80.42c14.3,29.02,38.92,48.39,65.04,65.9c6.11,4.08,13.12,3.41,19.33-0.83
		c21.69-14.8,41.81-31.34,56.77-53.26C565.28,830.08,570.82,818.56,570.29,805.85z M532.74,814.65
		c-9.21,16.86-23.68,28.98-38.23,40.97c-2.93,2.41-4.97,2.18-7.66-0.06c-14.49-12.04-29.26-23.91-38.11-41.02
		c-7.21-13.93,2.43-31.41,16.67-31.16c5.09-0.16,8.93,2.59,12.56,5.61c8.54,7.09,17.15,7.03,25.47-0.02
		c7.95-6.71,15.92-7.96,24.21-1.08C535.31,794.29,537.73,805.56,532.74,814.65z"/>
</g>
</svg>
