<?xml version="1.0" encoding="utf-8"?>
<!-- Generator: Adobe Illustrator 24.3.0, SVG Export Plug-In . SVG Version: 6.00 Build 0)  -->
<svg version="1.1" id="Layer_1" xmlns="http://www.w3.org/2000/svg" xmlns:xlink="http://www.w3.org/1999/xlink" x="0px" y="0px"
	 viewBox="0 0 1000 1000" style="enable-background:new 0 0 1000 1000;" xml:space="preserve">
<g>
	<path d="M389.23,278.11c-23.49,0.16-42.56,19.32-42.61,42.82c-0.05,23.49,19.09,42.82,42.49,42.93
		c23.42,0.12,42.75-18.86,43.14-42.36C432.65,297.95,412.82,277.95,389.23,278.11z M389.67,338c-9.19,0.16-17.04-7.44-17.18-16.68
		c-0.16-9.21,7.42-17.11,16.61-17.32c9.05-0.21,17.14,7.6,17.27,16.7C406.53,329.84,398.82,337.84,389.67,338z M465.42,478.98
		c-13.2-22.46-26.86-44.64-40.44-66.86c-4.93-8.06-11.82-13.87-20.77-17.23c-18.19-6.79-34.8-1.57-50.88,16.79
		c-9.79-21.51-19.16-42.01-28.44-62.53c-5.11-11.31-13.73-17.64-26.1-17.64c-12.05,0-20.71,6.17-25.66,17.04
		c-20.13,44.24-40.31,88.44-60.11,132.82c-7.28,16.28,3.09,32.13,21.05,32.2c70.59,0.21,141.21,0.23,211.8-0.02
		C465.01,513.48,475.1,495.44,465.42,478.98z M238.74,487.2c19.69-43.51,39.27-86.72,58.82-129.92c0.85-0.07,1.68-0.16,2.51-0.23
		c19.55,43.12,39.11,86.21,59.05,130.15H238.74z M392.74,487.87c-3.66,0.05-5.57-1.08-7.07-4.56c-5.5-12.85-11.45-25.5-17.2-38.23
		c-0.46-1.01-1.11-2.07-1.22-3.16c-0.53-4.93,11.77-21.26,17.25-23.05c8.11-2.65,14.42,0.09,19.88,9.05
		c11.86,19.46,23.58,38.97,36.23,59.88C423.55,487.8,408.14,487.71,392.74,487.87z M644.57,434.52c-1.84-7.12-7.39-9.7-14.39-9.7
		c-24.39,0-48.76-0.09-73.15,0.05c-9.81,0.05-15.8,5.37-15.59,13.27c0.18,7.58,5.92,12.39,15.39,12.48
		c12.35,0.14,24.67,0.05,37.01,0.05c11.75,0,23.52,0.02,35.28-0.02c3.11,0,6.29,0.14,9.19-1.52
		C644.08,445.81,646.18,440.67,644.57,434.52z M749.66,342.35c-3.13-1.73-6.7-1.27-10.11-1.27c-29.83-0.02-59.65,0-89.48,0
		c-31.53,0-63.08-0.07-94.61,0.07c-8.22,0.02-13.66,4.97-14.03,12.02c-0.41,7.3,5.18,12.99,13.5,13.7c1.73,0.14,3.45,0.05,5.16,0.05
		c59.38,0,118.73,0,178.08,0.02c3.73,0,7.49,0.25,10.99-1.38c4.81-2.26,7.51-6.06,7.69-11.45
		C757.01,348.68,754.27,344.84,749.66,342.35z M749.66,342.35c-3.13-1.73-6.7-1.27-10.11-1.27c-29.83-0.02-59.65,0-89.48,0
		c-31.53,0-63.08-0.07-94.61,0.07c-8.22,0.02-13.66,4.97-14.03,12.02c-0.41,7.3,5.18,12.99,13.5,13.7c1.73,0.14,3.45,0.05,5.16,0.05
		c59.38,0,118.73,0,178.08,0.02c3.73,0,7.49,0.25,10.99-1.38c4.81-2.26,7.51-6.06,7.69-11.45
		C757.01,348.68,754.27,344.84,749.66,342.35z M644.57,434.52c-1.84-7.12-7.39-9.7-14.39-9.7c-24.39,0-48.76-0.09-73.15,0.05
		c-9.81,0.05-15.8,5.37-15.59,13.27c0.18,7.58,5.92,12.39,15.39,12.48c12.35,0.14,24.67,0.05,37.01,0.05
		c11.75,0,23.52,0.02,35.28-0.02c3.11,0,6.29,0.14,9.19-1.52C644.08,445.81,646.18,440.67,644.57,434.52z M465.42,478.98
		c-13.2-22.46-26.86-44.64-40.44-66.86c-4.93-8.06-11.82-13.87-20.77-17.23c-18.19-6.79-34.8-1.57-50.88,16.79
		c-9.79-21.51-19.16-42.01-28.44-62.53c-5.11-11.31-13.73-17.64-26.1-17.64c-12.05,0-20.71,6.17-25.66,17.04
		c-20.13,44.24-40.31,88.44-60.11,132.82c-7.28,16.28,3.09,32.13,21.05,32.2c70.59,0.21,141.21,0.23,211.8-0.02
		C465.01,513.48,475.1,495.44,465.42,478.98z M238.74,487.2c19.69-43.51,39.27-86.72,58.82-129.92c0.85-0.07,1.68-0.16,2.51-0.23
		c19.55,43.12,39.11,86.21,59.05,130.15H238.74z M392.74,487.87c-3.66,0.05-5.57-1.08-7.07-4.56c-5.5-12.85-11.45-25.5-17.2-38.23
		c-0.46-1.01-1.11-2.07-1.22-3.16c-0.53-4.93,11.77-21.26,17.25-23.05c8.11-2.65,14.42,0.09,19.88,9.05
		c11.86,19.46,23.58,38.97,36.23,59.88C423.55,487.8,408.14,487.71,392.74,487.87z M389.23,278.11
		c-23.49,0.16-42.56,19.32-42.61,42.82c-0.05,23.49,19.09,42.82,42.49,42.93c23.42,0.12,42.75-18.86,43.14-42.36
		C432.65,297.95,412.82,277.95,389.23,278.11z M389.67,338c-9.19,0.16-17.04-7.44-17.18-16.68c-0.16-9.21,7.42-17.11,16.61-17.32
		c9.05-0.21,17.14,7.6,17.27,16.7C406.53,329.84,398.82,337.84,389.67,338z M389.23,278.11c-23.49,0.16-42.56,19.32-42.61,42.82
		c-0.05,23.49,19.09,42.82,42.49,42.93c23.42,0.12,42.75-18.86,43.14-42.36C432.65,297.95,412.82,277.95,389.23,278.11z M389.67,338
		c-9.19,0.16-17.04-7.44-17.18-16.68c-0.16-9.21,7.42-17.11,16.61-17.32c9.05-0.21,17.14,7.6,17.27,16.7
		C406.53,329.84,398.82,337.84,389.67,338z M465.42,478.98c-13.2-22.46-26.86-44.64-40.44-66.86c-4.93-8.06-11.82-13.87-20.77-17.23
		c-18.19-6.79-34.8-1.57-50.88,16.79c-9.79-21.51-19.16-42.01-28.44-62.53c-5.11-11.31-13.73-17.64-26.1-17.64
		c-12.05,0-20.71,6.17-25.66,17.04c-20.13,44.24-40.31,88.44-60.11,132.82c-7.28,16.28,3.09,32.13,21.05,32.2
		c70.59,0.21,141.21,0.23,211.8-0.02C465.01,513.48,475.1,495.44,465.42,478.98z M238.74,487.2
		c19.69-43.51,39.27-86.72,58.82-129.92c0.85-0.07,1.68-0.16,2.51-0.23c19.55,43.12,39.11,86.21,59.05,130.15H238.74z
		 M392.74,487.87c-3.66,0.05-5.57-1.08-7.07-4.56c-5.5-12.85-11.45-25.5-17.2-38.23c-0.46-1.01-1.11-2.07-1.22-3.16
		c-0.53-4.93,11.77-21.26,17.25-23.05c8.11-2.65,14.42,0.09,19.88,9.05c11.86,19.46,23.58,38.97,36.23,59.88
		C423.55,487.8,408.14,487.71,392.74,487.87z M644.57,434.52c-1.84-7.12-7.39-9.7-14.39-9.7c-24.39,0-48.76-0.09-73.15,0.05
		c-9.81,0.05-15.8,5.37-15.59,13.27c0.18,7.58,5.92,12.39,15.39,12.48c12.35,0.14,24.67,0.05,37.01,0.05
		c11.75,0,23.52,0.02,35.28-0.02c3.11,0,6.29,0.14,9.19-1.52C644.08,445.81,646.18,440.67,644.57,434.52z M749.66,342.35
		c-3.13-1.73-6.7-1.27-10.11-1.27c-29.83-0.02-59.65,0-89.48,0c-31.53,0-63.08-0.07-94.61,0.07c-8.22,0.02-13.66,4.97-14.03,12.02
		c-0.41,7.3,5.18,12.99,13.5,13.7c1.73,0.14,3.45,0.05,5.16,0.05c59.38,0,118.73,0,178.08,0.02c3.73,0,7.49,0.25,10.99-1.38
		c4.81-2.26,7.51-6.06,7.69-11.45C757.01,348.68,754.27,344.84,749.66,342.35z M749.66,342.35c-3.13-1.73-6.7-1.27-10.11-1.27
		c-29.83-0.02-59.65,0-89.48,0c-31.53,0-63.08-0.07-94.61,0.07c-8.22,0.02-13.66,4.97-14.03,12.02c-0.41,7.3,5.18,12.99,13.5,13.7
		c1.73,0.14,3.45,0.05,5.16,0.05c59.38,0,118.73,0,178.08,0.02c3.73,0,7.49,0.25,10.99-1.38c4.81-2.26,7.51-6.06,7.69-11.45
		C757.01,348.68,754.27,344.84,749.66,342.35z M644.57,434.52c-1.84-7.12-7.39-9.7-14.39-9.7c-24.39,0-48.76-0.09-73.15,0.05
		c-9.81,0.05-15.8,5.37-15.59,13.27c0.18,7.58,5.92,12.39,15.39,12.48c12.35,0.14,24.67,0.05,37.01,0.05
		c11.75,0,23.52,0.02,35.28-0.02c3.11,0,6.29,0.14,9.19-1.52C644.08,445.81,646.18,440.67,644.57,434.52z M465.42,478.98
		c-13.2-22.46-26.86-44.64-40.44-66.86c-4.93-8.06-11.82-13.87-20.77-17.23c-18.19-6.79-34.8-1.57-50.88,16.79
		c-9.79-21.51-19.16-42.01-28.44-62.53c-5.11-11.31-13.73-17.64-26.1-17.64c-12.05,0-20.71,6.17-25.66,17.04
		c-20.13,44.24-40.31,88.44-60.11,132.82c-7.28,16.28,3.09,32.13,21.05,32.2c70.59,0.21,141.21,0.23,211.8-0.02
		C465.01,513.48,475.1,495.44,465.42,478.98z M238.74,487.2c19.69-43.51,39.27-86.72,58.82-129.92c0.85-0.07,1.68-0.16,2.51-0.23
		c19.55,43.12,39.11,86.21,59.05,130.15H238.74z M392.74,487.87c-3.66,0.05-5.57-1.08-7.07-4.56c-5.5-12.85-11.45-25.5-17.2-38.23
		c-0.46-1.01-1.11-2.07-1.22-3.16c-0.53-4.93,11.77-21.26,17.25-23.05c8.11-2.65,14.42,0.09,19.88,9.05
		c11.86,19.46,23.58,38.97,36.23,59.88C423.55,487.8,408.14,487.71,392.74,487.87z M389.23,278.11
		c-23.49,0.16-42.56,19.32-42.61,42.82c-0.05,23.49,19.09,42.82,42.49,42.93c23.42,0.12,42.75-18.86,43.14-42.36
		C432.65,297.95,412.82,277.95,389.23,278.11z M389.67,338c-9.19,0.16-17.04-7.44-17.18-16.68c-0.16-9.21,7.42-17.11,16.61-17.32
		c9.05-0.21,17.14,7.6,17.27,16.7C406.53,329.84,398.82,337.84,389.67,338z M389.23,278.11c-23.49,0.16-42.56,19.32-42.61,42.82
		c-0.05,23.49,19.09,42.82,42.49,42.93c23.42,0.12,42.75-18.86,43.14-42.36C432.65,297.95,412.82,277.95,389.23,278.11z M389.67,338
		c-9.19,0.16-17.04-7.44-17.18-16.68c-0.16-9.21,7.42-17.11,16.61-17.32c9.05-0.21,17.14,7.6,17.27,16.7
		C406.53,329.84,398.82,337.84,389.67,338z M465.42,478.98c-13.2-22.46-26.86-44.64-40.44-66.86c-4.93-8.06-11.82-13.87-20.77-17.23
		c-18.19-6.79-34.8-1.57-50.88,16.79c-9.79-21.51-19.16-42.01-28.44-62.53c-5.11-11.31-13.73-17.64-26.1-17.64
		c-12.05,0-20.71,6.17-25.66,17.04c-20.13,44.24-40.31,88.44-60.11,132.82c-7.28,16.28,3.09,32.13,21.05,32.2
		c70.59,0.21,141.21,0.23,211.8-0.02C465.01,513.48,475.1,495.44,465.42,478.98z M238.74,487.2
		c19.69-43.51,39.27-86.72,58.82-129.92c0.85-0.07,1.68-0.16,2.51-0.23c19.55,43.12,39.11,86.21,59.05,130.15H238.74z
		 M392.74,487.87c-3.66,0.05-5.57-1.08-7.07-4.56c-5.5-12.85-11.45-25.5-17.2-38.23c-0.46-1.01-1.11-2.07-1.22-3.16
		c-0.53-4.93,11.77-21.26,17.25-23.05c8.11-2.65,14.42,0.09,19.88,9.05c11.86,19.46,23.58,38.97,36.23,59.88
		C423.55,487.8,408.14,487.71,392.74,487.87z M644.57,434.52c-1.84-7.12-7.39-9.7-14.39-9.7c-24.39,0-48.76-0.09-73.15,0.05
		c-9.81,0.05-15.8,5.37-15.59,13.27c0.18,7.58,5.92,12.39,15.39,12.48c12.35,0.14,24.67,0.05,37.01,0.05
		c11.75,0,23.52,0.02,35.28-0.02c3.11,0,6.29,0.14,9.19-1.52C644.08,445.81,646.18,440.67,644.57,434.52z M749.66,342.35
		c-3.13-1.73-6.7-1.27-10.11-1.27c-29.83-0.02-59.65,0-89.48,0c-31.53,0-63.08-0.07-94.61,0.07c-8.22,0.02-13.66,4.97-14.03,12.02
		c-0.41,7.3,5.18,12.99,13.5,13.7c1.73,0.14,3.45,0.05,5.16,0.05c59.38,0,118.73,0,178.08,0.02c3.73,0,7.49,0.25,10.99-1.38
		c4.81-2.26,7.51-6.06,7.69-11.45C757.01,348.68,754.27,344.84,749.66,342.35z M749.66,342.35c-3.13-1.73-6.7-1.27-10.11-1.27
		c-29.83-0.02-59.65,0-89.48,0c-31.53,0-63.08-0.07-94.61,0.07c-8.22,0.02-13.66,4.97-14.03,12.02c-0.41,7.3,5.18,12.99,13.5,13.7
		c1.73,0.14,3.45,0.05,5.16,0.05c59.38,0,118.73,0,178.08,0.02c3.73,0,7.49,0.25,10.99-1.38c4.81-2.26,7.51-6.06,7.69-11.45
		C757.01,348.68,754.27,344.84,749.66,342.35z M630.17,424.83c-24.39,0-48.76-0.09-73.15,0.05c-9.81,0.05-15.8,5.37-15.59,13.27
		c0.18,7.58,5.92,12.39,15.39,12.48c12.35,0.14,24.67,0.05,37.01,0.05c11.75,0,23.52,0.02,35.28-0.02c3.11,0,6.29,0.14,9.19-1.52
		c5.78-3.32,7.88-8.45,6.26-14.6C642.72,427.41,637.17,424.83,630.17,424.83z M424.98,412.11c-4.93-8.06-11.82-13.87-20.77-17.23
		c-18.19-6.79-34.8-1.57-50.88,16.79c-9.79-21.51-19.16-42.01-28.44-62.53c-5.11-11.31-13.73-17.64-26.1-17.64
		c-12.05,0-20.71,6.17-25.66,17.04c-20.13,44.24-40.31,88.44-60.11,132.82c-7.28,16.28,3.09,32.13,21.05,32.2
		c70.59,0.21,141.21,0.23,211.8-0.02c19.14-0.07,29.23-18.1,19.55-34.57C452.23,456.52,438.57,434.34,424.98,412.11z M238.74,487.2
		c19.69-43.51,39.27-86.72,58.82-129.92c0.85-0.07,1.68-0.16,2.51-0.23c19.55,43.12,39.11,86.21,59.05,130.15H238.74z
		 M392.74,487.87c-3.66,0.05-5.57-1.08-7.07-4.56c-5.5-12.85-11.45-25.5-17.2-38.23c-0.46-1.01-1.11-2.07-1.22-3.16
		c-0.53-4.93,11.77-21.26,17.25-23.05c8.11-2.65,14.42,0.09,19.88,9.05c11.86,19.46,23.58,38.97,36.23,59.88
		C423.55,487.8,408.14,487.71,392.74,487.87z M389.12,363.86c23.42,0.12,42.75-18.86,43.14-42.36
		c0.39-23.56-19.44-43.55-43.02-43.39c-23.49,0.16-42.56,19.32-42.61,42.82C346.58,344.42,365.72,363.75,389.12,363.86z M389.1,304
		c9.05-0.21,17.14,7.6,17.27,16.7c0.16,9.14-7.55,17.14-16.7,17.3c-9.19,0.16-17.04-7.44-17.18-16.68
		C372.33,312.11,379.91,304.21,389.1,304z M915.54,397.58c-16.35-10.59-31.95-22.36-48.16-33.21c-4.58-3.06-6.4-6.24-6.36-11.82
		c0.25-36.18,0.18-72.39,0.09-108.57c-0.05-18.91-7.83-26.53-26.81-26.53c-56.87-0.02-113.75-0.09-170.64,0.09
		c-5.16,0.02-9.26-1.36-13.43-4.28c-39.48-27.62-79.02-55.09-118.59-82.59c-22.55-15.68-40.72-15.62-63.34,0.14
		c-39.55,27.52-79.11,54.98-118.59,82.62c-4.19,2.95-8.36,4.12-13.47,4.1c-56.59-0.14-113.18-0.09-169.79-0.09
		c-20.04,0.02-27.48,7.42-27.52,27.55c-0.05,35.35-0.23,70.68,0.16,106.02c0.07,6.89-2.23,10.8-7.85,14.53
		c-17.92,11.91-35.35,24.48-53.09,36.67c-13.06,9.01-19.55,21.17-19.42,37.13c0.18,24.41,0.05,48.85,0.05,73.26
		c0,15.22-0.16,30.45,0.07,45.67c0.12,8.02,5.53,13.29,12.81,13.31c7.28,0.02,12.48-5.25,12.94-13.24c0.14-2,0.02-4.03,0.02-6.03
		c0-31.02-0.02-62.05,0.05-93.07c0.02-2.37-0.88-5,1.22-7.58c84.94,69.74,169.7,139.34,256.07,210.26c-4.79,0-7.07,0.21-9.33-0.02
		c-27.25-2.67-49.1,7.49-69.56,25.29c-56.7,49.43-114.38,97.72-171.73,146.41c-1.82,1.54-3.13,4.24-6.73,3.59V625.27
		c0-2.58,0.23-5.21-0.14-7.74c-0.92-6.75-6.43-11.26-13.13-11.1c-6.31,0.14-11.49,4.56-12.41,10.92c-0.37,2.53-0.16,5.16-0.16,7.76
		c0,68.08-0.02,136.16,0,204.25c0,32.59,19.19,51.66,51.98,51.66h685.98c32.48,0,64.93,0.09,97.38-0.02
		c20.52-0.09,37.68-12.53,44.68-31.78c0.76-2.03,0.05-4.74,2.49-6.1v-413.7C937.21,415.15,927.77,405.53,915.54,397.58z
		 M138.44,461.31c-15.68-12.85-30.43-24.94-45.86-37.61c15.27-10.62,29.94-20.8,45.86-31.88V461.31z M861.78,391.92
		c15.55,10.8,30.29,21.03,45.72,31.76c-15.22,12.51-29.99,24.67-45.72,37.61V391.92z M457.73,169.59
		c9.63-6.7,19.28-13.4,28.95-20.08c8.75-6.06,17.64-6.24,26.39-0.18c32.01,22.16,63.96,44.41,97.49,67.69H389.74
		C413.3,200.59,435.51,185.09,457.73,169.59z M171.01,488.23c-4.77-3.89-6.36-7.83-6.33-13.8c0.18-73.82,0.12-147.66,0.12-221.47
		c0-9.67,0.02-9.67,9.4-9.67h326.64c108.57,0,217.17,0.07,325.76-0.18c7.16-0.02,8.89,1.68,8.87,8.84
		c-0.3,74.39-0.25,148.81-0.05,223.23c0,5.76-1.84,9.4-6.24,12.99c-68.4,55.99-136.74,112.1-204.96,168.34
		c-4.72,3.92-9.37,5.55-15.5,5.53c-72.96-0.21-145.95-0.16-218.92-0.05c-4.86,0.02-8.64-1.2-12.44-4.33
		C308.67,601.07,239.92,544.55,171.01,488.23z M915.03,837.26c-3.64,0.41-5.25-2.83-7.46-4.7c-23.26-19.65-46.41-39.41-69.6-59.08
		c-1.96-1.68-3.94-3.41-6.2-4.63c-5.8-3.11-11.24-2.1-15.5,2.79c-4.28,4.91-4.54,10.48-0.78,15.8c1.61,2.3,3.96,4.12,6.13,5.99
		c23.58,20.11,47.19,40.19,71.74,61.08H108.08c-0.46-2,1.64-2.49,2.76-3.45c58.8-50.05,117.72-100,176.42-150.19
		c10.55-9.03,22.13-13.27,36.09-13.22c117.79,0.21,235.55,0.21,353.31-0.02c13.98-0.02,25.7,4.1,36.16,13.2
		c17.78,15.45,35.81,30.56,53.76,45.81c1.31,1.13,2.56,2.33,3.92,3.36c6.79,5.21,14.44,4.84,19.16-0.88
		c4.7-5.67,4.31-12.92-2.05-18.38c-21.77-18.7-43.51-37.45-65.83-55.48c-11.42-9.24-25.22-13.34-40.05-13.34h-23.61
		c86.51-71.03,171.27-140.61,256.9-210.9V837.26z M554.93,366.88c1.73,0.14,3.45,0.05,5.16,0.05c59.38,0,118.73,0,178.08,0.02
		c3.73,0,7.49,0.25,10.99-1.38c4.81-2.26,7.51-6.06,7.69-11.45c0.16-5.44-2.58-9.28-7.19-11.77c-3.13-1.73-6.7-1.27-10.11-1.27
		c-29.83-0.02-59.65,0-89.48,0c-31.53,0-63.08-0.07-94.61,0.07c-8.22,0.02-13.66,4.97-14.03,12.02
		C541.01,360.48,546.61,366.17,554.93,366.88z M630.17,424.83c-24.39,0-48.76-0.09-73.15,0.05c-9.81,0.05-15.8,5.37-15.59,13.27
		c0.18,7.58,5.92,12.39,15.39,12.48c12.35,0.14,24.67,0.05,37.01,0.05c11.75,0,23.52,0.02,35.28-0.02c3.11,0,6.29,0.14,9.19-1.52
		c5.78-3.32,7.88-8.45,6.26-14.6C642.72,427.41,637.17,424.83,630.17,424.83z M465.42,478.98c-13.2-22.46-26.86-44.64-40.44-66.86
		c-4.93-8.06-11.82-13.87-20.77-17.23c-18.19-6.79-34.8-1.57-50.88,16.79c-9.79-21.51-19.16-42.01-28.44-62.53
		c-5.11-11.31-13.73-17.64-26.1-17.64c-12.05,0-20.71,6.17-25.66,17.04c-20.13,44.24-40.31,88.44-60.11,132.82
		c-7.28,16.28,3.09,32.13,21.05,32.2c70.59,0.21,141.21,0.23,211.8-0.02C465.01,513.48,475.1,495.44,465.42,478.98z M238.74,487.2
		c19.69-43.51,39.27-86.72,58.82-129.92c0.85-0.07,1.68-0.16,2.51-0.23c19.55,43.12,39.11,86.21,59.05,130.15H238.74z
		 M392.74,487.87c-3.66,0.05-5.57-1.08-7.07-4.56c-5.5-12.85-11.45-25.5-17.2-38.23c-0.46-1.01-1.11-2.07-1.22-3.16
		c-0.53-4.93,11.77-21.26,17.25-23.05c8.11-2.65,14.42,0.09,19.88,9.05c11.86,19.46,23.58,38.97,36.23,59.88
		C423.55,487.8,408.14,487.71,392.74,487.87z M389.12,363.86c23.42,0.12,42.75-18.86,43.14-42.36
		c0.39-23.56-19.44-43.55-43.02-43.39c-23.49,0.16-42.56,19.32-42.61,42.82C346.58,344.42,365.72,363.75,389.12,363.86z M389.1,304
		c9.05-0.21,17.14,7.6,17.27,16.7c0.16,9.14-7.55,17.14-16.7,17.3c-9.19,0.16-17.04-7.44-17.18-16.68
		C372.33,312.11,379.91,304.21,389.1,304z M389.23,278.11c-23.49,0.16-42.56,19.32-42.61,42.82c-0.05,23.49,19.09,42.82,42.49,42.93
		c23.42,0.12,42.75-18.86,43.14-42.36C432.65,297.95,412.82,277.95,389.23,278.11z M389.67,338c-9.19,0.16-17.04-7.44-17.18-16.68
		c-0.16-9.21,7.42-17.11,16.61-17.32c9.05-0.21,17.14,7.6,17.27,16.7C406.53,329.84,398.82,337.84,389.67,338z M465.42,478.98
		c-13.2-22.46-26.86-44.64-40.44-66.86c-4.93-8.06-11.82-13.87-20.77-17.23c-18.19-6.79-34.8-1.57-50.88,16.79
		c-9.79-21.51-19.16-42.01-28.44-62.53c-5.11-11.31-13.73-17.64-26.1-17.64c-12.05,0-20.71,6.17-25.66,17.04
		c-20.13,44.24-40.31,88.44-60.11,132.82c-7.28,16.28,3.09,32.13,21.05,32.2c70.59,0.21,141.21,0.23,211.8-0.02
		C465.01,513.48,475.1,495.44,465.42,478.98z M238.74,487.2c19.69-43.51,39.27-86.72,58.82-129.92c0.85-0.07,1.68-0.16,2.51-0.23
		c19.55,43.12,39.11,86.21,59.05,130.15H238.74z M392.74,487.87c-3.66,0.05-5.57-1.08-7.07-4.56c-5.5-12.85-11.45-25.5-17.2-38.23
		c-0.46-1.01-1.11-2.07-1.22-3.16c-0.53-4.93,11.77-21.26,17.25-23.05c8.11-2.65,14.42,0.09,19.88,9.05
		c11.86,19.46,23.58,38.97,36.23,59.88C423.55,487.8,408.14,487.71,392.74,487.87z M644.57,434.52c-1.84-7.12-7.39-9.7-14.39-9.7
		c-24.39,0-48.76-0.09-73.15,0.05c-9.81,0.05-15.8,5.37-15.59,13.27c0.18,7.58,5.92,12.39,15.39,12.48
		c12.35,0.14,24.67,0.05,37.01,0.05c11.75,0,23.52,0.02,35.28-0.02c3.11,0,6.29,0.14,9.19-1.52
		C644.08,445.81,646.18,440.67,644.57,434.52z M749.66,342.35c-3.13-1.73-6.7-1.27-10.11-1.27c-29.83-0.02-59.65,0-89.48,0
		c-31.53,0-63.08-0.07-94.61,0.07c-8.22,0.02-13.66,4.97-14.03,12.02c-0.41,7.3,5.18,12.99,13.5,13.7c1.73,0.14,3.45,0.05,5.16,0.05
		c59.38,0,118.73,0,178.08,0.02c3.73,0,7.49,0.25,10.99-1.38c4.81-2.26,7.51-6.06,7.69-11.45
		C757.01,348.68,754.27,344.84,749.66,342.35z M749.66,342.35c-3.13-1.73-6.7-1.27-10.11-1.27c-29.83-0.02-59.65,0-89.48,0
		c-31.53,0-63.08-0.07-94.61,0.07c-8.22,0.02-13.66,4.97-14.03,12.02c-0.41,7.3,5.18,12.99,13.5,13.7c1.73,0.14,3.45,0.05,5.16,0.05
		c59.38,0,118.73,0,178.08,0.02c3.73,0,7.49,0.25,10.99-1.38c4.81-2.26,7.51-6.06,7.69-11.45
		C757.01,348.68,754.27,344.84,749.66,342.35z M644.57,434.52c-1.84-7.12-7.39-9.7-14.39-9.7c-24.39,0-48.76-0.09-73.15,0.05
		c-9.81,0.05-15.8,5.37-15.59,13.27c0.18,7.58,5.92,12.39,15.39,12.48c12.35,0.14,24.67,0.05,37.01,0.05
		c11.75,0,23.52,0.02,35.28-0.02c3.11,0,6.29,0.14,9.19-1.52C644.08,445.81,646.18,440.67,644.57,434.52z M465.42,478.98
		c-13.2-22.46-26.86-44.64-40.44-66.86c-4.93-8.06-11.82-13.87-20.77-17.23c-18.19-6.79-34.8-1.57-50.88,16.79
		c-9.79-21.51-19.16-42.01-28.44-62.53c-5.11-11.31-13.73-17.64-26.1-17.64c-12.05,0-20.71,6.17-25.66,17.04
		c-20.13,44.24-40.31,88.44-60.11,132.82c-7.28,16.28,3.09,32.13,21.05,32.2c70.59,0.21,141.21,0.23,211.8-0.02
		C465.01,513.48,475.1,495.44,465.42,478.98z M238.74,487.2c19.69-43.51,39.27-86.72,58.82-129.92c0.85-0.07,1.68-0.16,2.51-0.23
		c19.55,43.12,39.11,86.21,59.05,130.15H238.74z M392.74,487.87c-3.66,0.05-5.57-1.08-7.07-4.56c-5.5-12.85-11.45-25.5-17.2-38.23
		c-0.46-1.01-1.11-2.07-1.22-3.16c-0.53-4.93,11.77-21.26,17.25-23.05c8.11-2.65,14.42,0.09,19.88,9.05
		c11.86,19.46,23.58,38.97,36.23,59.88C423.55,487.8,408.14,487.71,392.74,487.87z M389.23,278.11
		c-23.49,0.16-42.56,19.32-42.61,42.82c-0.05,23.49,19.09,42.82,42.49,42.93c23.42,0.12,42.75-18.86,43.14-42.36
		C432.65,297.95,412.82,277.95,389.23,278.11z M389.67,338c-9.19,0.16-17.04-7.44-17.18-16.68c-0.16-9.21,7.42-17.11,16.61-17.32
		c9.05-0.21,17.14,7.6,17.27,16.7C406.53,329.84,398.82,337.84,389.67,338z M389.23,278.11c-23.49,0.16-42.56,19.32-42.61,42.82
		c-0.05,23.49,19.09,42.82,42.49,42.93c23.42,0.12,42.75-18.86,43.14-42.36C432.65,297.95,412.82,277.95,389.23,278.11z M389.67,338
		c-9.19,0.16-17.04-7.44-17.18-16.68c-0.16-9.21,7.42-17.11,16.61-17.32c9.05-0.21,17.14,7.6,17.27,16.7
		C406.53,329.84,398.82,337.84,389.67,338z M465.42,478.98c-13.2-22.46-26.86-44.64-40.44-66.86c-4.93-8.06-11.82-13.87-20.77-17.23
		c-18.19-6.79-34.8-1.57-50.88,16.79c-9.79-21.51-19.16-42.01-28.44-62.53c-5.11-11.31-13.73-17.64-26.1-17.64
		c-12.05,0-20.71,6.17-25.66,17.04c-20.13,44.24-40.31,88.44-60.11,132.82c-7.28,16.28,3.09,32.13,21.05,32.2
		c70.59,0.21,141.21,0.23,211.8-0.02C465.01,513.48,475.1,495.44,465.42,478.98z M238.74,487.2
		c19.69-43.51,39.27-86.72,58.82-129.92c0.85-0.07,1.68-0.16,2.51-0.23c19.55,43.12,39.11,86.21,59.05,130.15H238.74z
		 M392.74,487.87c-3.66,0.05-5.57-1.08-7.07-4.56c-5.5-12.85-11.45-25.5-17.2-38.23c-0.46-1.01-1.11-2.07-1.22-3.16
		c-0.53-4.93,11.77-21.26,17.25-23.05c8.11-2.65,14.42,0.09,19.88,9.05c11.86,19.46,23.58,38.97,36.23,59.88
		C423.55,487.8,408.14,487.71,392.74,487.87z M644.57,434.52c-1.84-7.12-7.39-9.7-14.39-9.7c-24.39,0-48.76-0.09-73.15,0.05
		c-9.81,0.05-15.8,5.37-15.59,13.27c0.18,7.58,5.92,12.39,15.39,12.48c12.35,0.14,24.67,0.05,37.01,0.05
		c11.75,0,23.52,0.02,35.28-0.02c3.11,0,6.29,0.14,9.19-1.52C644.08,445.81,646.18,440.67,644.57,434.52z M749.66,342.35
		c-3.13-1.73-6.7-1.27-10.11-1.27c-29.83-0.02-59.65,0-89.48,0c-31.53,0-63.08-0.07-94.61,0.07c-8.22,0.02-13.66,4.97-14.03,12.02
		c-0.41,7.3,5.18,12.99,13.5,13.7c1.73,0.14,3.45,0.05,5.16,0.05c59.38,0,118.73,0,178.08,0.02c3.73,0,7.49,0.25,10.99-1.38
		c4.81-2.26,7.51-6.06,7.69-11.45C757.01,348.68,754.27,344.84,749.66,342.35z M749.66,342.35c-3.13-1.73-6.7-1.27-10.11-1.27
		c-29.83-0.02-59.65,0-89.48,0c-31.53,0-63.08-0.07-94.61,0.07c-8.22,0.02-13.66,4.97-14.03,12.02c-0.41,7.3,5.18,12.99,13.5,13.7
		c1.73,0.14,3.45,0.05,5.16,0.05c59.38,0,118.73,0,178.08,0.02c3.73,0,7.49,0.25,10.99-1.38c4.81-2.26,7.51-6.06,7.69-11.45
		C757.01,348.68,754.27,344.84,749.66,342.35z M644.57,434.52c-1.84-7.12-7.39-9.7-14.39-9.7c-24.39,0-48.76-0.09-73.15,0.05
		c-9.81,0.05-15.8,5.37-15.59,13.27c0.18,7.58,5.92,12.39,15.39,12.48c12.35,0.14,24.67,0.05,37.01,0.05
		c11.75,0,23.52,0.02,35.28-0.02c3.11,0,6.29,0.14,9.19-1.52C644.08,445.81,646.18,440.67,644.57,434.52z M465.42,478.98
		c-13.2-22.46-26.86-44.64-40.44-66.86c-4.93-8.06-11.82-13.87-20.77-17.23c-18.19-6.79-34.8-1.57-50.88,16.79
		c-9.79-21.51-19.16-42.01-28.44-62.53c-5.11-11.31-13.73-17.64-26.1-17.64c-12.05,0-20.71,6.17-25.66,17.04
		c-20.13,44.24-40.31,88.44-60.11,132.82c-7.28,16.28,3.09,32.13,21.05,32.2c70.59,0.21,141.21,0.23,211.8-0.02
		C465.01,513.48,475.1,495.44,465.42,478.98z M238.74,487.2c19.69-43.51,39.27-86.72,58.82-129.92c0.85-0.07,1.68-0.16,2.51-0.23
		c19.55,43.12,39.11,86.21,59.05,130.15H238.74z M392.74,487.87c-3.66,0.05-5.57-1.08-7.07-4.56c-5.5-12.85-11.45-25.5-17.2-38.23
		c-0.46-1.01-1.11-2.07-1.22-3.16c-0.53-4.93,11.77-21.26,17.25-23.05c8.11-2.65,14.42,0.09,19.88,9.05
		c11.86,19.46,23.58,38.97,36.23,59.88C423.55,487.8,408.14,487.71,392.74,487.87z M389.23,278.11
		c-23.49,0.16-42.56,19.32-42.61,42.82c-0.05,23.49,19.09,42.82,42.49,42.93c23.42,0.12,42.75-18.86,43.14-42.36
		C432.65,297.95,412.82,277.95,389.23,278.11z M389.67,338c-9.19,0.16-17.04-7.44-17.18-16.68c-0.16-9.21,7.42-17.11,16.61-17.32
		c9.05-0.21,17.14,7.6,17.27,16.7C406.53,329.84,398.82,337.84,389.67,338z M389.23,278.11c-23.49,0.16-42.56,19.32-42.61,42.82
		c-0.05,23.49,19.09,42.82,42.49,42.93c23.42,0.12,42.75-18.86,43.14-42.36C432.65,297.95,412.82,277.95,389.23,278.11z M389.67,338
		c-9.19,0.16-17.04-7.44-17.18-16.68c-0.16-9.21,7.42-17.11,16.61-17.32c9.05-0.21,17.14,7.6,17.27,16.7
		C406.53,329.84,398.82,337.84,389.67,338z M465.42,478.98c-13.2-22.46-26.86-44.64-40.44-66.86c-4.93-8.06-11.82-13.87-20.77-17.23
		c-18.19-6.79-34.8-1.57-50.88,16.79c-9.79-21.51-19.16-42.01-28.44-62.53c-5.11-11.31-13.73-17.64-26.1-17.64
		c-12.05,0-20.71,6.17-25.66,17.04c-20.13,44.24-40.31,88.44-60.11,132.82c-7.28,16.28,3.09,32.13,21.05,32.2
		c70.59,0.21,141.21,0.23,211.8-0.02C465.01,513.48,475.1,495.44,465.42,478.98z M238.74,487.2
		c19.69-43.51,39.27-86.72,58.82-129.92c0.85-0.07,1.68-0.16,2.51-0.23c19.55,43.12,39.11,86.21,59.05,130.15H238.74z
		 M392.74,487.87c-3.66,0.05-5.57-1.08-7.07-4.56c-5.5-12.85-11.45-25.5-17.2-38.23c-0.46-1.01-1.11-2.07-1.22-3.16
		c-0.53-4.93,11.77-21.26,17.25-23.05c8.11-2.65,14.42,0.09,19.88,9.05c11.86,19.46,23.58,38.97,36.23,59.88
		C423.55,487.8,408.14,487.71,392.74,487.87z M644.57,434.52c-1.84-7.12-7.39-9.7-14.39-9.7c-24.39,0-48.76-0.09-73.15,0.05
		c-9.81,0.05-15.8,5.37-15.59,13.27c0.18,7.58,5.92,12.39,15.39,12.48c12.35,0.14,24.67,0.05,37.01,0.05
		c11.75,0,23.52,0.02,35.28-0.02c3.11,0,6.29,0.14,9.19-1.52C644.08,445.81,646.18,440.67,644.57,434.52z M749.66,342.35
		c-3.13-1.73-6.7-1.27-10.11-1.27c-29.83-0.02-59.65,0-89.48,0c-31.53,0-63.08-0.07-94.61,0.07c-8.22,0.02-13.66,4.97-14.03,12.02
		c-0.41,7.3,5.18,12.99,13.5,13.7c1.73,0.14,3.45,0.05,5.16,0.05c59.38,0,118.73,0,178.08,0.02c3.73,0,7.49,0.25,10.99-1.38
		c4.81-2.26,7.51-6.06,7.69-11.45C757.01,348.68,754.27,344.84,749.66,342.35z M749.66,342.35c-3.13-1.73-6.7-1.27-10.11-1.27
		c-29.83-0.02-59.65,0-89.48,0c-31.53,0-63.08-0.07-94.61,0.07c-8.22,0.02-13.66,4.97-14.03,12.02c-0.41,7.3,5.18,12.99,13.5,13.7
		c1.73,0.14,3.45,0.05,5.16,0.05c59.38,0,118.73,0,178.08,0.02c3.73,0,7.49,0.25,10.99-1.38c4.81-2.26,7.51-6.06,7.69-11.45
		C757.01,348.68,754.27,344.84,749.66,342.35z M644.57,434.52c-1.84-7.12-7.39-9.7-14.39-9.7c-24.39,0-48.76-0.09-73.15,0.05
		c-9.81,0.05-15.8,5.37-15.59,13.27c0.18,7.58,5.92,12.39,15.39,12.48c12.35,0.14,24.67,0.05,37.01,0.05
		c11.75,0,23.52,0.02,35.28-0.02c3.11,0,6.29,0.14,9.19-1.52C644.08,445.81,646.18,440.67,644.57,434.52z M465.42,478.98
		c-13.2-22.46-26.86-44.64-40.44-66.86c-4.93-8.06-11.82-13.87-20.77-17.23c-18.19-6.79-34.8-1.57-50.88,16.79
		c-9.79-21.51-19.16-42.01-28.44-62.53c-5.11-11.31-13.73-17.64-26.1-17.64c-12.05,0-20.71,6.17-25.66,17.04
		c-20.13,44.24-40.31,88.44-60.11,132.82c-7.28,16.28,3.09,32.13,21.05,32.2c70.59,0.21,141.21,0.23,211.8-0.02
		C465.01,513.48,475.1,495.44,465.42,478.98z M238.74,487.2c19.69-43.51,39.27-86.72,58.82-129.92c0.85-0.07,1.68-0.16,2.51-0.23
		c19.55,43.12,39.11,86.21,59.05,130.15H238.74z M392.74,487.87c-3.66,0.05-5.57-1.08-7.07-4.56c-5.5-12.85-11.45-25.5-17.2-38.23
		c-0.46-1.01-1.11-2.07-1.22-3.16c-0.53-4.93,11.77-21.26,17.25-23.05c8.11-2.65,14.42,0.09,19.88,9.05
		c11.86,19.46,23.58,38.97,36.23,59.88C423.55,487.8,408.14,487.71,392.74,487.87z M389.23,278.11
		c-23.49,0.16-42.56,19.32-42.61,42.82c-0.05,23.49,19.09,42.82,42.49,42.93c23.42,0.12,42.75-18.86,43.14-42.36
		C432.65,297.95,412.82,277.95,389.23,278.11z M389.67,338c-9.19,0.16-17.04-7.44-17.18-16.68c-0.16-9.21,7.42-17.11,16.61-17.32
		c9.05-0.21,17.14,7.6,17.27,16.7C406.53,329.84,398.82,337.84,389.67,338z"/>
	<path d="M389.23,278.11c-23.49,0.16-42.56,19.32-42.61,42.82c-0.05,23.49,19.09,42.82,42.49,42.93
		c23.42,0.12,42.75-18.86,43.14-42.36C432.65,297.95,412.82,277.95,389.23,278.11z M389.67,338c-9.19,0.16-17.04-7.44-17.18-16.68
		c-0.16-9.21,7.42-17.11,16.61-17.32c9.05-0.21,17.14,7.6,17.27,16.7C406.53,329.84,398.82,337.84,389.67,338z"/>
	<path d="M465.42,478.98c-13.2-22.46-26.86-44.64-40.44-66.86c-4.93-8.06-11.82-13.87-20.77-17.23
		c-18.19-6.79-34.8-1.57-50.88,16.79c-9.79-21.51-19.16-42.01-28.44-62.53c-5.11-11.31-13.73-17.64-26.1-17.64
		c-12.05,0-20.71,6.17-25.66,17.04c-20.13,44.24-40.31,88.44-60.11,132.82c-7.28,16.28,3.09,32.13,21.05,32.2
		c70.59,0.21,141.21,0.23,211.8-0.02C465.01,513.48,475.1,495.44,465.42,478.98z M238.74,487.2
		c19.69-43.51,39.27-86.72,58.82-129.92c0.85-0.07,1.68-0.16,2.51-0.23c19.55,43.12,39.11,86.21,59.05,130.15H238.74z
		 M392.74,487.87c-3.66,0.05-5.57-1.08-7.07-4.56c-5.5-12.85-11.45-25.5-17.2-38.23c-0.46-1.01-1.11-2.07-1.22-3.16
		c-0.53-4.93,11.77-21.26,17.25-23.05c8.11-2.65,14.42,0.09,19.88,9.05c11.86,19.46,23.58,38.97,36.23,59.88
		C423.55,487.8,408.14,487.71,392.74,487.87z"/>
	<path d="M644.57,434.52c1.61,6.15-0.48,11.29-6.26,14.6c-2.9,1.66-6.08,1.52-9.19,1.52c-11.77,0.05-23.54,0.02-35.28,0.02
		c-12.35,0-24.67,0.09-37.01-0.05c-9.47-0.09-15.2-4.91-15.39-12.48c-0.21-7.9,5.78-13.22,15.59-13.27
		c24.39-0.14,48.76-0.05,73.15-0.05C637.17,424.83,642.72,427.41,644.57,434.52z"/>
	<path d="M756.85,354.12c-0.18,5.39-2.88,9.19-7.69,11.45c-3.5,1.64-7.26,1.38-10.99,1.38c-59.35-0.02-118.71-0.02-178.08-0.02
		c-1.7,0-3.43,0.09-5.16-0.05c-8.31-0.71-13.91-6.4-13.5-13.7c0.37-7.05,5.8-12,14.03-12.02c31.53-0.14,63.08-0.07,94.61-0.07
		c29.83,0,59.65-0.02,89.48,0c3.41,0,6.98-0.46,10.11,1.27C754.27,344.84,757.01,348.68,756.85,354.12z"/>
	<path d="M465.42,478.98c-13.2-22.46-26.86-44.64-40.44-66.86c-4.93-8.06-11.82-13.87-20.77-17.23
		c-18.19-6.79-34.8-1.57-50.88,16.79c-9.79-21.51-19.16-42.01-28.44-62.53c-5.11-11.31-13.73-17.64-26.1-17.64
		c-12.05,0-20.71,6.17-25.66,17.04c-20.13,44.24-40.31,88.44-60.11,132.82c-7.28,16.28,3.09,32.13,21.05,32.2
		c70.59,0.21,141.21,0.23,211.8-0.02C465.01,513.48,475.1,495.44,465.42,478.98z M238.74,487.2
		c19.69-43.51,39.27-86.72,58.82-129.92c0.85-0.07,1.68-0.16,2.51-0.23c19.55,43.12,39.11,86.21,59.05,130.15H238.74z
		 M392.74,487.87c-3.66,0.05-5.57-1.08-7.07-4.56c-5.5-12.85-11.45-25.5-17.2-38.23c-0.46-1.01-1.11-2.07-1.22-3.16
		c-0.53-4.93,11.77-21.26,17.25-23.05c8.11-2.65,14.42,0.09,19.88,9.05c11.86,19.46,23.58,38.97,36.23,59.88
		C423.55,487.8,408.14,487.71,392.74,487.87z"/>
	<path d="M756.85,354.12c-0.18,5.39-2.88,9.19-7.69,11.45c-3.5,1.64-7.26,1.38-10.99,1.38c-59.35-0.02-118.71-0.02-178.08-0.02
		c-1.7,0-3.43,0.09-5.16-0.05c-8.31-0.71-13.91-6.4-13.5-13.7c0.37-7.05,5.8-12,14.03-12.02c31.53-0.14,63.08-0.07,94.61-0.07
		c29.83,0,59.65-0.02,89.48,0c3.41,0,6.98-0.46,10.11,1.27C754.27,344.84,757.01,348.68,756.85,354.12z"/>
	<path d="M389.23,278.11c-23.49,0.16-42.56,19.32-42.61,42.82c-0.05,23.49,19.09,42.82,42.49,42.93
		c23.42,0.12,42.75-18.86,43.14-42.36C432.65,297.95,412.82,277.95,389.23,278.11z M389.67,338c-9.19,0.16-17.04-7.44-17.18-16.68
		c-0.16-9.21,7.42-17.11,16.61-17.32c9.05-0.21,17.14,7.6,17.27,16.7C406.53,329.84,398.82,337.84,389.67,338z"/>
	<path d="M638.3,449.13c-2.9,1.66-6.08,1.52-9.19,1.52c-11.77,0.05-23.54,0.02-35.28,0.02c-12.35,0-24.67,0.09-37.01-0.05
		c-9.47-0.09-15.2-4.91-15.39-12.48c-0.21-7.9,5.78-13.22,15.59-13.27c24.39-0.14,48.76-0.05,73.15-0.05c7,0,12.55,2.58,14.39,9.7
		C646.18,440.67,644.08,445.81,638.3,449.13z"/>
</g>
</svg>
