<?xml version="1.0" encoding="utf-8"?>
<!-- Generator: Adobe Illustrator 24.3.0, SVG Export Plug-In . SVG Version: 6.00 Build 0)  -->
<svg version="1.1" id="Layer_1" xmlns="http://www.w3.org/2000/svg" xmlns:xlink="http://www.w3.org/1999/xlink" x="0px" y="0px"
	 viewBox="0 0 1000 1000" style="enable-background:new 0 0 1000 1000;" xml:space="preserve">
<g>
	<path d="M884.3,412.17h-22.22c-3.77-148.13-97.88-278.84-237.17-329.4H809c6.06,23.49,30.02,37.61,53.51,31.55
		c23.49-6.06,37.61-30.02,31.55-53.51c-6.06-23.49-30.02-37.61-53.51-31.55c-15.47,3.99-27.55,16.07-31.55,31.55H543.92V38.85
		c0-6.06-4.92-10.98-10.98-10.98h-65.88c-6.06,0-10.98,4.92-10.98,10.98v21.96H191c-6.06-23.49-30.02-37.61-53.51-31.55
		s-37.61,30.02-31.55,53.51s30.02,37.61,53.51,31.55c15.47-3.99,27.55-16.07,31.55-31.55h184.08
		c-139.29,50.56-233.4,181.26-237.17,329.4H115.7c-6.06,0-10.98,4.92-10.98,10.98v65.88c0,6.06,4.92,10.98,10.98,10.98h65.88
		c6.06,0,10.98-4.92,10.98-10.98v-65.88c0-6.06-4.92-10.98-10.98-10.98h-21.7c4.55-167.05,130.38-305.76,296.2-326.51v19.07
		c0,6.06,4.92,10.98,10.98,10.98h65.88c6.06,0,10.98-4.92,10.98-10.98V85.66c165.82,20.75,291.65,159.46,296.2,326.51h-21.7
		c-6.06,0-10.98,4.92-10.98,10.98v65.88c0,6.06,4.92,10.98,10.98,10.98h65.88c6.06,0,10.98-4.92,10.98-10.98v-65.88
		C895.28,417.08,890.36,412.17,884.3,412.17z"/>
	<path d="M531.78,165.7c-2.71-5.42-9.31-7.62-14.73-4.91c-3.72,1.86-6.07,5.66-6.07,9.82v355.86c0,4.34,2.56,8.28,6.53,10.04
		c23.19,10.08,33.28,37.77,21.43,60.6c-10,19.27-33.09,28.36-53.55,21.1c-24.24-8.61-35.75-35.74-25.67-58.93
		c4.43-10.2,12.57-18.34,22.77-22.77c3.97-1.76,6.53-5.69,6.53-10.04V170.61c0-6.06-4.91-10.98-10.98-10.98
		c-4.16,0-7.96,2.35-9.82,6.07L259.6,582.93c-1.54,3.09-1.54,6.73,0,9.82l78.06,156.13c1.12,2.24,3.42,3.66,5.92,3.66h312.83
		c2.51,0,4.8-1.42,5.92-3.66l78.06-156.13c1.54-3.09,1.54-6.73,0-9.82L531.78,165.7z"/>
	<path d="M313.34,774.5h373.32c6.06,0,10.98,4.92,10.98,10.98v65.88c0,6.06-4.92,10.98-10.98,10.98H313.34
		c-6.06,0-10.98-4.92-10.98-10.98v-65.88C302.36,779.42,307.28,774.5,313.34,774.5z"/>
	<path d="M335.3,961.16c0,6.06,4.92,10.98,10.98,10.98h307.44c6.06,0,10.98-4.92,10.98-10.98V884.3H335.3V961.16z"/>
</g>
</svg>
