<?xml version="1.0" encoding="utf-8"?>
<!-- Generator: Adobe Illustrator 24.3.0, SVG Export Plug-In . SVG Version: 6.00 Build 0)  -->
<svg version="1.1" id="Layer_1" xmlns="http://www.w3.org/2000/svg" xmlns:xlink="http://www.w3.org/1999/xlink" x="0px" y="0px"
	 viewBox="0 0 1000 1000" style="enable-background:new 0 0 1000 1000;" xml:space="preserve">
<style type="text/css">
	.st0{fill:#131313;}
</style>
<g>
	<path class="st0" d="M824.52,92.91c0-33.21-8.65-41.89-41.34-41.9c-188.37-0.03-376.75-0.01-565.11,0
		c-34.21,0-42.63,8.48-42.63,42.83c-0.01,134.55,0,269.11,0,403.65c0,136.63-0.03,273.25,0,409.86
		c0.01,33.04,8.53,41.59,41.49,41.61c189.05,0.03,378.12,0.04,567.17,0.03c31.44-0.01,40.46-8.98,40.46-40.49
		C824.58,636.64,824.57,364.78,824.52,92.91z M778.66,923.11c-185.6,0.03-371.2,0.03-556.8,0.01c-19.66,0-19.74-0.08-19.75-20.66
		c-0.03-134.55-0.01-269.09-0.01-403.64c0-133.17-0.05-266.33,0.05-399.49c0.01-23.92-3.13-21.72,22.43-21.74
		c184.21-0.04,368.43-0.03,552.66,0c20.91,0,21,0.04,21,21.52c0.03,267.72,0.03,535.43,0.01,803.13
		C798.25,923.02,798.17,923.11,778.66,923.11z"/>
	<path class="st0" d="M321.87,575.57c58.65,0.37,117.3,0.11,175.97,0.09c60.72-0.01,121.43,0.24,182.16-0.13
		c23.85-0.15,39.99-14.06,43.79-35.88c3.32-19.15-6.92-37.39-27.81-45.27c-7.86-2.96-10.38-6.06-11.37-14.05
		c-9.38-76.84-50.79-128.98-122.73-157c-7.92-3.09-13.23-5.81-15.14-16.3c-4.01-21.98-22.67-36.36-43.59-37.45
		c-21.95-1.13-41.63,11.71-47.96,34.68c-3.21,11.61-9.04,15.87-19.46,20.11c-68.93,27.96-109.59,78.87-119.57,152.94
		c-1.4,10.33-4.41,15.21-14.5,18.43c-12.35,3.97-20.23,13.81-23.56,26.76C270.77,551.13,290.29,575.37,321.87,575.57z
		 M520.96,312.23h-40.38C494.31,289.32,507.4,289.52,520.96,312.23z M342.2,474.79c13.9-79.07,77.89-135.13,156.16-135.69
		c79.24-0.59,144.22,53.29,159.17,131.95c3.96,20.8,3.96,20.92-16.86,20.96c-46.9,0.08-93.79,0.03-140.68,0.03
		c-47.59,0.01-95.18-0.48-142.74,0.31C343.1,492.58,339.72,488.96,342.2,474.79z M324.35,517.9c58.64,0.21,117.27,0.09,175.93,0.08
		c56.57,0,113.14-0.01,169.72,0.03c5.5,0,11.22-0.48,16.47,0.77c7.53,1.81,11.14,7.53,11.1,15.38c-0.04,7.09-3.49,12.23-10.19,13.78
		c-5.96,1.37-12.29,1.49-18.44,1.49c-112.45,0.08-224.91,0.07-337.37,0.08c-2.76,0-5.52,0-8.29-0.04
		c-10.53-0.17-20.16-2.65-20.23-15.37C302.98,520.41,312.6,517.85,324.35,517.9z"/>
	<path class="st0" d="M397.14,256.99c58.64,0.37,117.29-0.01,175.93,0.25c23.73,0.11,33.78,10.19,34.78,33.82
		c0.37,8.94,0.09,17.92,0.51,26.87c0.33,7.4,5.28,11.45,11.99,11.83c6.84,0.39,11.34-3.76,13.33-10.59
		c14.17-48.55-15.15-88-65.75-88.1c-55.2-0.13-110.39,0.11-165.58-0.12c-23.18-0.09-36.9-11.85-36.53-30.2
		c0.37-17.59,13.71-28.59,35.54-29.21c4.13-0.12,8.28-0.08,12.42-0.08c66.23-0.01,132.47-0.03,198.7-0.01
		c9.92,0,21.42,0.45,20.95-13.23c-0.44-13.19-11.77-12.71-21.74-12.69c-35.88,0.13-71.76,0.05-107.64,0.07
		c-36.57,0.03-73.14-0.59-109.69,0.2c-33.88,0.72-57.56,28.63-54.15,62.08C343.08,236.02,366.56,256.79,397.14,256.99z"/>
	<path class="st0" d="M302.76,618.21c-10.13-0.01-19.08,2.45-19.02,13.7c0.05,9.99,8.62,13.01,17.84,12.87
		c4.13-0.07,8.28-0.01,12.41-0.01h194.38v-0.07h202.66c9.3,0,19.42-0.19,19.8-12.58c0.37-12.02-8.78-13.87-18.63-13.86
		C575.73,618.31,439.24,618.33,302.76,618.21z"/>
	<path class="st0" d="M704.3,821.79c-131.03-0.16-262.07-0.11-393.11-0.11c-3.44,0-6.89,0.04-10.34,0.01
		c-9.49-0.05-17.2,3.89-17.07,13.78c0.13,9.93,8.1,13.47,17.48,13.31c3.45-0.05,6.9-0.01,10.35-0.01c64.82,0,129.66,0,194.48-0.01
		c66.22-0.01,132.43,0.08,198.63-0.11c10.47-0.03,25.31,3.49,25.79-12.61C731.04,818.25,715.4,821.8,704.3,821.79z"/>
	<path class="st0" d="M296.05,789.75c13.01,0.35,13.98-10.55,13.91-20.78c-0.08-14.17-0.01-28.33-0.01-43.99
		c32.3,24.29,32.3,24.29,60.56-2.45c0,18.92,0.07,33.82-0.03,48.72c-0.05,10,2.77,18.95,14.19,18.51
		c9.98-0.39,12.71-8.81,12.67-18.03c-0.11-25.48-0.04-50.95,0.03-76.43c0.03-7.28-1.37-13.71-8.68-17.22
		c-8.05-3.85-12.86,1.6-17.86,6.32c-9.96,9.4-19.36,25.73-29.91,26.49c-12.66,0.92-20.76-17.55-31.57-26.81
		c-5.26-4.5-9.9-9.9-17.95-5.9c-7.41,3.69-8.29,10.22-8.26,17.4c0.07,24.79,0.19,49.58-0.04,74.35
		C283.01,779.79,284.93,789.46,296.05,789.75z"/>
	<path class="st0" d="M603.01,677.05c-10.13-0.49-14.05,6.7-13.95,16.37c0.12,13.75,0.03,27.51,0.03,41.26
		c-1.16,0.65-2.32,1.29-3.49,1.95c-13.91-16.67-27.8-33.37-41.79-49.98c-4.84-5.74-9.5-12.61-18.72-8.76
		c-8.56,3.57-8.97,11.26-8.96,19.06c0.05,24.79,0.04,49.56,0.04,74.34c0,9.81,2.33,19,14.09,18.47c10.1-0.45,12.73-8.68,12.57-17.96
		c-0.25-13.41-0.07-26.81-0.07-40.22c17.74,16.1,31.94,33.36,46.36,50.44c4.48,5.32,9.28,10.38,17.55,6.92
		c6.97-2.91,8.2-8.52,8.2-15.09c-0.05-26.84-0.17-53.69,0.05-80.53C614.98,684.57,611.97,677.5,603.01,677.05z"/>
	<path class="st0" d="M429.79,790.31c17.91,0.32,35.84,0.35,53.76,0.04c8.54-0.15,14.86-4.16,14.7-13.66
		c-0.17-9.68-7.05-12.71-15.39-12.93c-11.02-0.28-22.06-0.08-33.08-0.11c-5.18,0-9.36-0.56-9.49-7.62c-0.13-7.09,2.41-9.9,9.52-9.7
		c11.01,0.32,22.04-0.07,33.08,0.08c8.88,0.12,15.06-3.34,15.27-12.74c0.21-9.6-6.04-13.03-14.9-12.97
		c-10.33,0.07-20.67-0.12-31.01,0.05c-6.73,0.12-12.23-0.12-11.97-9.48c0.23-8.45,5.58-8.1,11.19-8.14
		c9.65-0.08,19.3-0.08,28.93-0.08c8.97,0,17.5-1.73,17.68-12.66c0.23-11.99-8.62-14.07-18.51-14.01
		c-15.85,0.11-31.7,0.12-47.55,0.01c-11.99-0.08-17.68,5.58-17.46,17.67c0.24,13.1,0.05,26.19,0.05,39.29
		c0.01,13.78,0.05,27.56,0,41.35C414.59,784.93,420,790.15,429.79,790.31z"/>
	<path class="st0" d="M731.35,723.53c0-9.64-0.11-19.27,0.03-28.91c0.13-9.17-2.35-17.52-12.74-17.56
		c-10-0.05-13.49,7.57-13.37,17.12c0.2,16.51-0.24,33.04,0.11,49.55c0.32,15.53-8.05,20.22-22.12,20.07
		c-18.68-0.19-23.64-3.52-24.12-19.95c-0.52-17.19-0.12-34.41-0.16-51.61c-0.03-8.81-4.26-15.22-13.13-15.26
		c-9.08-0.04-12.9,6.8-12.9,15.41c0,19.95-0.63,39.95,0.57,59.85c1.16,19.32,14.09,33.24,33.22,36.9
		c39.98,7.66,68.38-11.65,64.67-51.15C730.98,733.21,731.36,728.36,731.35,723.53z"/>
	<path class="st0" d="M559.42,394.48c14.49,10.39,27.73,21.94,38.85,36.04c4.82,6.1,11.66,6.82,17.99,1.11
		c6.21-5.64,5.72-11.9,1.25-18.27c-8.72-12.42-19.39-22.94-31.65-31.8c-5.48-3.97-10.65-8.69-19.52-9.65
		c-3.32,0.24-7.89,1.27-10.33,6.22C552.89,384.41,553.65,390.34,559.42,394.48z"/>
	<path class="st0" d="M614.06,464.04c1.08,8.48,3.81,16.87,14.18,17.24c9.1,0.32,14.37-5.89,13.42-14.45
		c-0.96-8.74-3.68-17.87-15.81-18.72C617.69,449.99,612.93,455.11,614.06,464.04z"/>
</g>
</svg>
